<svg id="图层_1" data-name="图层 1" xmlns="http://www.w3.org/2000/svg" viewBox="0 0 80 80"><title>图标</title><path d="M32.17,33.76l6.4,6.45a2.15,2.15,0,0,0,3,0L48,33.76a2.5,2.5,0,0,0-3.54-3.53l-2,2V2.5a2.5,2.5,0,0,0-5,0V32l-1.78-1.78a2.5,2.5,0,1,0-3.55,3.53Z" fill="#13baf4"/><path d="M79.51,40.78l-9.32-26A7.22,7.22,0,0,0,63.4,10H49.17a2.5,2.5,0,0,0-2.5,2.5h0a2.5,2.5,0,0,0,2.5,2.5H62.41a3.59,3.59,0,0,1,3.38,2.39l7.12,20H54a6.13,6.13,0,0,0-4.4,1.87l-4.77,5a2.88,2.88,0,0,1-2.07.88H37.38a2.85,2.85,0,0,1-2-.86l-5-5.06A6.14,6.14,0,0,0,26,37.41H7.09l7.12-20A3.59,3.59,0,0,1,17.59,15H30.83a2.5,2.5,0,0,0,2.5-2.5h0a2.5,2.5,0,0,0-2.5-2.5H16.62a7.21,7.21,0,0,0-6.8,4.8L.48,41.05A8.37,8.37,0,0,0,0,43.85V70.31A9.69,9.69,0,0,0,9.69,80H70.31A9.69,9.69,0,0,0,80,70.31V43.6A8.45,8.45,0,0,0,79.51,40.78ZM75,69.89A5.11,5.11,0,0,1,69.89,75H10.11A5.11,5.11,0,0,1,5,69.89V45.55a3.14,3.14,0,0,1,3.14-3.14H23.35a6.26,6.26,0,0,1,4.48,1.88l4.48,4.56a4.3,4.3,0,0,0,3.08,1.3h9.36a4.31,4.31,0,0,0,3.12-1.33l4.3-4.48a6.26,6.26,0,0,1,4.52-1.93H71.86A3.14,3.14,0,0,1,75,45.55Z" fill="#13baf4"/></svg>