<svg id="图层_1" data-name="图层 1" xmlns="http://www.w3.org/2000/svg" viewBox="0 0 80 80"><title>图标</title><path d="M69.23,0H10.77A10.78,10.78,0,0,0,0,10.77V69.23A10.78,10.78,0,0,0,10.77,80H69.23A10.78,10.78,0,0,0,80,69.23V10.77A10.78,10.78,0,0,0,69.23,0ZM75,69.23A5.78,5.78,0,0,1,69.23,75H10.77A5.78,5.78,0,0,1,5,69.23V10.77A5.78,5.78,0,0,1,10.77,5H69.23A5.78,5.78,0,0,1,75,10.77Z" fill="#13baf4"/><path d="M65.41,17.25H29.07a2.5,2.5,0,0,0,0,5H65.41a2.5,2.5,0,0,0,0-5Z" fill="#13baf4"/><path d="M65.41,37.5H29.07a2.5,2.5,0,1,0,0,5H65.41a2.5,2.5,0,0,0,0-5Z" fill="#13baf4"/><path d="M65.41,57.75H29.07a2.5,2.5,0,1,0,0,5H65.41a2.5,2.5,0,0,0,0-5Z" fill="#13baf4"/><path d="M18.49,17.25H15.66a2.5,2.5,0,1,0,0,5h2.83a2.5,2.5,0,0,0,0-5Z" fill="#13baf4"/><path d="M18.49,37.5H15.66a2.5,2.5,0,1,0,0,5h2.83a2.5,2.5,0,0,0,0-5Z" fill="#13baf4"/><path d="M18.49,57.75H15.66a2.5,2.5,0,1,0,0,5h2.83a2.5,2.5,0,0,0,0-5Z" fill="#13baf4"/></svg>