<svg id="图层_1" data-name="图层 1" xmlns="http://www.w3.org/2000/svg" viewBox="0 0 80 80"><title>图标</title><path d="M69.23,0H10.77A10.78,10.78,0,0,0,0,10.77V69.23A10.78,10.78,0,0,0,10.77,80H69.23A10.78,10.78,0,0,0,80,69.23V10.77A10.78,10.78,0,0,0,69.23,0ZM75,69.23A5.78,5.78,0,0,1,69.23,75H10.77A5.78,5.78,0,0,1,5,69.23V10.77A5.78,5.78,0,0,1,10.77,5H69.23A5.78,5.78,0,0,1,75,10.77Z" fill="#13baf4"/><path d="M64.16,25.48h-7.5V22.56a2.5,2.5,0,0,0-5,0v2.92H15.84a2.5,2.5,0,0,0,0,5H51.66V33.4a2.5,2.5,0,1,0,5,0V30.48h7.5a2.5,2.5,0,0,0,0-5Z" fill="#13baf4"/><path d="M64.16,49.52h-7.5V46.6a2.5,2.5,0,1,0-5,0v2.92H15.84a2.5,2.5,0,1,0,0,5H51.66v2.92a2.5,2.5,0,0,0,5,0V54.52h7.5a2.5,2.5,0,0,0,0-5Z" fill="#13baf4"/></svg>