<svg id="图层_1" data-name="图层 1" xmlns="http://www.w3.org/2000/svg" viewBox="0 0 80 80"><title>图标</title><path d="M40,0A40,40,0,1,0,80,40,40,40,0,0,0,40,0Zm0,75A35,35,0,1,1,75,40,35,35,0,0,1,40,75Z" fill="#aeaeae"/><path d="M65.79,49.65a10,10,0,0,0-14.94-6.94l-7.31-7.32L54.94,24a2.52,2.52,0,0,0,0-3.54h0a2.52,2.52,0,0,0-3.54,0L40,31.85,28.6,20.45a2.52,2.52,0,0,0-3.54,0h0a2.52,2.52,0,0,0,0,3.54l11.4,11.4-7.31,7.32a10,10,0,1,0,3.53,3.53L40,38.92l7.32,7.32a10,10,0,1,0,18.47,3.41ZM24.08,56.32a5,5,0,1,1,5-5A5,5,0,0,1,24.08,56.32Zm31.84,0a5,5,0,1,1,5-5A5,5,0,0,1,55.92,56.32Z" fill="#aeaeae"/></svg>