<svg id="图层_1" data-name="图层 1" xmlns="http://www.w3.org/2000/svg" viewBox="0 0 80 80"><title>图标</title><path d="M44.23,46h5.36a1.26,1.26,0,0,0,1.34-1.34V39.25a1.26,1.26,0,0,0-1.34-1.34H44.23a1.26,1.26,0,0,0-1.34,1.34v5.36A1.26,1.26,0,0,0,44.23,46Zm13.4,0H63a1.27,1.27,0,0,0,1.34-1.34V39.25A1.26,1.26,0,0,0,63,37.91H57.63a1.26,1.26,0,0,0-1.34,1.34v5.36A1.27,1.27,0,0,0,57.63,46Zm-26.8,0h5.36a1.27,1.27,0,0,0,1.34-1.34V39.25a1.26,1.26,0,0,0-1.34-1.34H30.83a1.26,1.26,0,0,0-1.34,1.34v5.36A1.26,1.26,0,0,0,30.83,46ZM57.63,65H63a1.27,1.27,0,0,0,1.34-1.35V58.3A1.27,1.27,0,0,0,63,57H57.63a1.27,1.27,0,0,0-1.34,1.34v5.36A1.27,1.27,0,0,0,57.63,65Zm-13.4,0h5.36a1.27,1.27,0,0,0,1.34-1.35V58.3A1.26,1.26,0,0,0,49.59,57H44.23a1.26,1.26,0,0,0-1.34,1.34v5.36A1.27,1.27,0,0,0,44.23,65ZM17.42,65h5.37a1.27,1.27,0,0,0,1.34-1.35V58.3A1.27,1.27,0,0,0,22.79,57H17.42a1.27,1.27,0,0,0-1.34,1.34v5.36A1.27,1.27,0,0,0,17.42,65Zm0-19.06h5.37a1.27,1.27,0,0,0,1.34-1.34V39.25a1.26,1.26,0,0,0-1.34-1.34H17.42a1.26,1.26,0,0,0-1.34,1.34v5.36A1.27,1.27,0,0,0,17.42,46ZM30.83,65h5.36a1.27,1.27,0,0,0,1.34-1.35V58.3A1.27,1.27,0,0,0,36.19,57H30.83a1.26,1.26,0,0,0-1.34,1.34v5.36A1.27,1.27,0,0,0,30.83,65ZM70.58,80.63H9.42A9.44,9.44,0,0,1,0,71.2V13.51A9.44,9.44,0,0,1,9.42,4.08H70.58A9.44,9.44,0,0,1,80,13.51V71.2a9.44,9.44,0,0,1-9.42,9.43ZM9.42,10.37a3.15,3.15,0,0,0-3.14,3.14V71.2a3.16,3.16,0,0,0,3.14,3.15H70.58a3.16,3.16,0,0,0,3.14-3.15V13.51a3.15,3.15,0,0,0-3.14-3.14ZM5,21.57H75v6.28H5ZM22.3,15.18A3.14,3.14,0,0,1,19.16,12V2.51a3.14,3.14,0,0,1,6.28,0V12a3.13,3.13,0,0,1-3.14,3.14Zm33.83,0A3.14,3.14,0,0,1,53,12V2.51a3.15,3.15,0,0,1,6.29,0V12a3.14,3.14,0,0,1-3.14,3.14Zm0,0" fill="#13baf4"/></svg>