<svg id="图层_1" data-name="图层 1" xmlns="http://www.w3.org/2000/svg" viewBox="0 0 80 80"><title>图标</title><path d="M67,34.42H19V27.05a21,21,0,1,1,42.1,0v.72h0a3,3,0,0,0,5.95,0h0v-.72a27.05,27.05,0,0,0-54.1,0v7.37H13a6.73,6.73,0,0,0-6.72,6.72V73.28A6.72,6.72,0,0,0,13,80H67a6.72,6.72,0,0,0,6.72-6.72V41.14A6.73,6.73,0,0,0,67,34.42Zm.72,38.86A.72.72,0,0,1,67,74H13a.72.72,0,0,1-.72-.72V41.14a.72.72,0,0,1,.72-.72H67a.72.72,0,0,1,.72.72Z" fill="#13baf4"/><path d="M40,49a3,3,0,0,0-3,3V62.48a3,3,0,0,0,6,0V52A3,3,0,0,0,40,49Z" fill="#13baf4"/></svg>