<svg id="图层_1" data-name="图层 1" xmlns="http://www.w3.org/2000/svg" viewBox="0 0 80 80"><title>图标</title><path d="M53,23.73a14.31,14.31,0,0,0-1.61-1.2c-.56-.4-1.12-.72-1.72-1.08a15.52,15.52,0,0,0-1.84-.88,18.72,18.72,0,0,0-1.92-.72A20.42,20.42,0,0,0,41.84,19a19.14,19.14,0,0,0-4.28,0,18.68,18.68,0,0,0-2.08.32c-.68.16-1.36.32-2,.52a2.36,2.36,0,0,0-1.65,2.24,1.87,1.87,0,0,0,.12.68,2.27,2.27,0,0,0,2.89,1.53c.52-.16,1-.28,1.56-.41A10.79,10.79,0,0,1,38,23.65a15.72,15.72,0,0,1,3.36,0c.56,0,1.09.16,1.65.24s1,.25,1.56.41,1,.36,1.48.56,1,.44,1.44.68a9.58,9.58,0,0,1,1.36.84,9.36,9.36,0,0,1,1.24,1,9.77,9.77,0,0,1,1.16,1.08,2.31,2.31,0,0,0,1.65.68,2.27,2.27,0,0,0,1.64-.68,2.32,2.32,0,0,0,0-3.28A18.06,18.06,0,0,0,53,23.73ZM9.05,54c.24-.28.48-.6.68-.88s.44-.6.64-.92l.6-1c.2-.32.36-.65.56-1a8.25,8.25,0,0,0,.48-1c.16-.36.32-.72.44-1s.28-.72.4-1.08A9.15,9.15,0,0,0,13.17,46c.08-.4.2-.76.28-1.13a11.72,11.72,0,0,0,.2-1.16c.08-.4.12-.8.16-1.16s.09-.8.09-1.2,0-.8,0-1.2v0a26.77,26.77,0,0,1,.13-2.69,19.47,19.47,0,0,1,.4-2.6,24.52,24.52,0,0,1,.64-2.49,19.35,19.35,0,0,1,.88-2.4c.32-.77.68-1.53,1.08-2.29a2.72,2.72,0,0,0,.28-1.12,2.37,2.37,0,0,0-1.2-2,2.3,2.3,0,0,0-3.13.92c-.48.88-.88,1.76-1.28,2.68s-.72,1.89-1,2.81-.56,2-.76,3-.36,2.05-.48,3.05A27.23,27.23,0,0,0,9.29,40v0a7.71,7.71,0,0,1,0,1c0,.32,0,.64-.08.92s-.08.6-.12.92-.12.6-.16.88a7,7,0,0,0-.2.88c-.08.28-.16.56-.28.89a7.21,7.21,0,0,1-.32.84l-.36.84a7.46,7.46,0,0,1-.4.8c-.12.24-.28.52-.44.8s-.32.52-.48.76a8.11,8.11,0,0,1-.52.72c-.16.24-.36.49-.52.69l-.56.68-.61.64c-.2.2-.44.4-.64.6a2.35,2.35,0,0,0-.2,3.29,2.41,2.41,0,0,0,1.73.8,2.15,2.15,0,0,0,1.52-.6c.28-.24.56-.53.8-.77s.52-.52.76-.8A2.75,2.75,0,0,0,9.05,54ZM4.61,40.53v-.65c0-1.12.07-2.28.16-3.4s.28-2.37.52-3.53.52-2.28.84-3.4A27.73,27.73,0,0,1,7.29,26.3a32.31,32.31,0,0,1,1.48-3.09,31.42,31.42,0,0,1,1.76-2.92c.64-.92,1.32-1.85,2-2.73A32.12,32.12,0,0,1,14.82,15a2.33,2.33,0,0,0,.68-1.64,2.27,2.27,0,0,0-.68-1.65,2.31,2.31,0,0,0-3.29,0c-.88.92-1.76,1.85-2.56,2.85s-1.56,2-2.28,3.08a38.71,38.71,0,0,0-2,3.33c-.6,1.12-1.16,2.32-1.68,3.53S2,27,1.68,28.22a34.37,34.37,0,0,0-1,3.85,33.41,33.41,0,0,0-.6,4c0,1.28-.12,2.68-.12,4.05v.24a2.33,2.33,0,0,0,1.64,2.24l.08.08h.56a2.34,2.34,0,0,0,2.33-2.16Zm29-30.5a25.76,25.76,0,0,0-2.93.76,26.45,26.45,0,0,0-2.8,1c-.88.4-1.8.8-2.64,1.28s-1.68,1-2.49,1.53a25.24,25.24,0,0,0-2.32,1.76,25.12,25.12,0,0,0-2.16,2A2.37,2.37,0,0,0,17.54,20a2.32,2.32,0,0,0,2.32,2.32,2.33,2.33,0,0,0,1.64-.68A18.33,18.33,0,0,1,23.34,20c.65-.52,1.29-1,2-1.49a23.36,23.36,0,0,1,2.12-1.32,23.07,23.07,0,0,1,2.24-1.08A23.79,23.79,0,0,1,32,15.2c.81-.24,1.65-.48,2.45-.64a2.29,2.29,0,0,0,1.84-2.29,2,2,0,0,0,0-.48A2.32,2.32,0,0,0,33.56,10ZM50.09,6.22c1.08.36,2.17.76,3.21,1.2s2.08,1,3,1.49a26.38,26.38,0,0,1,2.88,1.76,2.53,2.53,0,0,0,1.28.4,2.36,2.36,0,0,0,1.93-1,2.27,2.27,0,0,0,.36-1.76,2.47,2.47,0,0,0-1-1.49,34.32,34.32,0,0,0-3.29-2A34.87,34.87,0,0,0,55.06,3.1a36.4,36.4,0,0,0-3.65-1.37,2.28,2.28,0,0,0-2.88,1.53A2.42,2.42,0,0,0,48.69,5a2.69,2.69,0,0,0,1.4,1.2ZM18.78,11.11a2.31,2.31,0,0,0,1.28-.4A30.83,30.83,0,0,1,22.94,9c1-.56,2-1,3-1.49s2.12-.84,3.2-1.2a31.88,31.88,0,0,1,3.36-.88A33.73,33.73,0,0,1,36,4.86a35.79,35.79,0,0,1,7.17,0,2.3,2.3,0,0,0,2.52-2.08A2.34,2.34,0,0,0,43.65.21a39.45,39.45,0,0,0-8.13,0,32.41,32.41,0,0,0-3.93.6c-1.28.28-2.56.6-3.8,1s-2.44.85-3.64,1.37a38.55,38.55,0,0,0-3.49,1.68c-1.12.6-2.2,1.28-3.28,2a2.36,2.36,0,0,0-.6,3.25,2.71,2.71,0,0,0,2,1ZM56.26,46.46a2.26,2.26,0,0,0,.56,1.68,2.21,2.21,0,0,0,1.56.8h.16a2.33,2.33,0,0,0,2.29-2.16c.07-.84.12-1.73.16-2.61s0-1.76,0-2.64a17.67,17.67,0,0,0-.13-2.17,19.35,19.35,0,0,0-.31-2.12c-.17-.68-.33-1.36-.53-2a15.9,15.9,0,0,0-.72-2c-.28-.64-.56-1.24-.88-1.84s-.68-1.2-1-1.76a2.35,2.35,0,0,0-1.48-1,2.21,2.21,0,0,0-1.72.36,2.35,2.35,0,0,0-1,1.93,2.55,2.55,0,0,0,.4,1.32,15.16,15.16,0,0,1,.8,1.36c.24.48.48,1,.68,1.45s.4,1,.56,1.52.28,1,.4,1.6a11.58,11.58,0,0,1,.24,1.64c0,.57.08,1.13.08,1.73,0,.8,0,1.64,0,2.44s0,1.69-.08,2.49Zm1.4,3.84A2.31,2.31,0,0,0,55,52.19c-.16.8-.28,1.56-.48,2.32s-.36,1.53-.56,2.29-.4,1.52-.64,2.24-.44,1.48-.72,2.24-.48,1.45-.76,2.21L51,65.65c-.28.72-.6,1.45-.92,2.13s-.64,1.4-1,2.08-.68,1.36-1.08,2-.76,1.33-1.12,2-.8,1.32-1.2,2a2.49,2.49,0,0,0-.32,1.77,2.37,2.37,0,0,0,1,1.48,2.25,2.25,0,0,0,1.24.36,2.2,2.2,0,0,0,1.92-1.08c.44-.68.88-1.41,1.28-2.09s.81-1.44,1.21-2.12.76-1.44,1.12-2.17.72-1.48,1.08-2.24.68-1.52,1-2.28.6-1.53.92-2.33.56-1.56.84-2.36.52-1.61.76-2.41.48-1.6.68-2.4.4-1.64.6-2.45.36-1.68.48-2.48a2.3,2.3,0,0,0-1.8-2.77ZM69.39,34a26.8,26.8,0,0,0-.76-3,23.69,23.69,0,0,0-1-2.81c-.4-.92-.8-1.8-1.28-2.68A26.47,26.47,0,0,0,64.79,23,24.07,24.07,0,0,0,63,20.61a28.79,28.79,0,0,0-4.13-4.13c-.76-.64-1.52-1.2-2.32-1.76a24.71,24.71,0,0,0-2.48-1.53,22.9,22.9,0,0,0-2.64-1.28c-.93-.4-1.85-.72-2.81-1s-1.92-.56-2.92-.76-2-.36-3-.48a27.23,27.23,0,0,0-3.09-.16,2.33,2.33,0,0,0,0,4.65c.88,0,1.76,0,2.65.12a18.9,18.9,0,0,1,2.56.4,24.25,24.25,0,0,1,2.44.64,23.79,23.79,0,0,1,2.36.88,24.41,24.41,0,0,1,2.25,1.08A23.36,23.36,0,0,1,54,18.56c.68.49,1.36,1,2,1.49a24.06,24.06,0,0,1,1.84,1.68c.56.6,1.12,1.2,1.64,1.84s1,1.33,1.49,2a22.94,22.94,0,0,1,1.28,2.12A19.31,19.31,0,0,1,63.31,30c.32.76.6,1.56.88,2.4a24.52,24.52,0,0,1,.64,2.49c.16.84.32,1.72.4,2.6s.12,1.76.12,2.73c0,.64,0,1.32,0,2s0,1.32-.08,2-.08,1.33-.12,2S65,47.38,65,48s-.16,1.28-.2,1.92-.16,1.29-.28,1.93-.2,1.24-.32,1.88-.24,1.24-.36,1.88-.24,1.25-.4,1.85-.28,1.24-.44,1.84l-.48,1.8c-.16.61-.36,1.21-.52,1.81s-.4,1.2-.56,1.76-.4,1.16-.6,1.76-.45,1.17-.69,1.77-.48,1.16-.72,1.72a2.35,2.35,0,0,0,1.21,3,2.37,2.37,0,0,0,.92.2,2.31,2.31,0,0,0,2.12-1.41c.24-.6.52-1.2.76-1.84s.48-1.24.72-1.84.44-1.24.64-1.89.44-1.24.6-1.88.4-1.28.56-1.92.36-1.29.52-1.93.32-1.28.48-2,.28-1.32.44-2,.28-1.33.4-2,.24-1.32.32-2,.2-1.36.28-2l.24-2c.08-.68.12-1.36.16-2s.08-1.37.12-2.09.08-1.4.08-2.08,0-1.4,0-2.08v0A27.23,27.23,0,0,0,69.83,37a25.75,25.75,0,0,0-.44-3ZM35.72,64.81c.4-.72.8-1.48,1.16-2.24s.72-1.53,1-2.29.64-1.56.92-2.36.56-1.6.8-2.41.48-1.64.72-2.44.4-1.68.56-2.48.32-1.73.48-2.57.24-1.72.32-2.6.16-1.77.2-2.65S42,41,42,40.09a2.33,2.33,0,1,0-4.65,0c0,.8,0,1.6-.08,2.4s-.12,1.6-.16,2.4-.16,1.57-.28,2.37-.24,1.56-.4,2.32-.32,1.53-.52,2.29-.4,1.48-.64,2.24-.48,1.44-.76,2.17-.56,1.44-.84,2.12-.6,1.4-1,2.08-.69,1.37-1,2-.76,1.32-1.12,2-.8,1.28-1.24,1.88-.84,1.25-1.32,1.85-.92,1.2-1.4,1.76-1,1.12-1.48,1.68-1,1.09-1.56,1.61a2.31,2.31,0,0,0,0,3.28,2.38,2.38,0,0,0,1.64.72,2.24,2.24,0,0,0,1.6-.68c.6-.56,1.16-1.16,1.72-1.76s1.12-1.24,1.64-1.84,1-1.29,1.52-1.93,1-1.32,1.45-2,.92-1.4,1.36-2.08.89-1.4,1.28-2.13ZM16.34,60c.36-.44.72-.92,1-1.4s.68-1,1-1.44.6-1,.88-1.49.56-1,.8-1.56.52-1.08.72-1.6.44-1.12.64-1.64.4-1.13.56-1.69.32-1.16.48-1.72.24-1.2.36-1.76.2-1.21.28-1.81.12-1.24.16-1.84,0-1.24,0-1.88a1.17,1.17,0,0,0,0-.37c0-.48,0-.92.08-1.4s.17-1.12.25-1.64.24-1.08.4-1.6.36-1.05.56-1.53.44-1,.68-1.44a15.16,15.16,0,0,1,.8-1.36,9.71,9.71,0,0,1,1-1.28,12.79,12.79,0,0,1,1-1.17c.36-.36.76-.72,1.16-1.08s.84-.64,1.28-1a2.32,2.32,0,0,0,1-1.92,2.32,2.32,0,0,0-3.6-2c-.56.36-1.08.8-1.6,1.2a17.77,17.77,0,0,0-1.48,1.37c-.48.48-.92,1-1.36,1.52a14.41,14.41,0,0,0-1.21,1.64c-.36.56-.72,1.17-1,1.77s-.6,1.24-.88,1.84-.48,1.28-.72,2-.36,1.37-.52,2.05A18,18,0,0,0,18.7,38a19.59,19.59,0,0,0-.12,2.17,1.11,1.11,0,0,0,0,.36c0,.44,0,.84,0,1.28l-.12,1.56c-.08.52-.12,1-.24,1.56s-.2,1-.32,1.53-.24,1-.4,1.48L17,49.34c-.16.48-.36,1-.56,1.41s-.4.92-.64,1.36-.44.88-.68,1.32-.48.84-.76,1.28L13.53,56c-.28.41-.6.81-.88,1.17s-.64.76-1,1.12-.68.72-1,1.08-.72.68-1.08,1-.76.64-1.12,1a2.43,2.43,0,0,0-.88,1.57,2.24,2.24,0,0,0,.48,1.72,2.33,2.33,0,0,0,3.24.4c.44-.36.88-.72,1.32-1.12s.84-.8,1.29-1.2.8-.84,1.2-1.24A8.22,8.22,0,0,0,16.34,60Zm30.31,3.69c.32-.8.68-1.64,1-2.45s.6-1.64.84-2.48.52-1.68.76-2.52.44-1.73.64-2.61.36-1.76.52-2.64.28-1.77.4-2.69.2-1.8.28-2.72.16-1.81.16-2.73.08-1.84.08-2.8a12.09,12.09,0,0,0-.08-1.21c0-.4-.12-.8-.16-1.16a9.16,9.16,0,0,0-.28-1.12c-.12-.36-.24-.72-.4-1.08s-.32-.68-.48-1.05a6.3,6.3,0,0,0-.6-1c-.2-.32-.44-.6-.68-.92s-.48-.56-.76-.84A5.15,5.15,0,0,0,47,31c-.28-.24-.6-.48-.88-.68l-1-.6c-.32-.16-.68-.36-1-.49s-.72-.28-1.08-.4A11,11,0,0,0,42,28.54a5.78,5.78,0,0,0-1.16-.16,11.63,11.63,0,0,0-2.36,0c-.4,0-.8.12-1.16.16a11.46,11.46,0,0,0-1.12.28c-.36.12-.72.24-1.08.4l-1,.49a6.3,6.3,0,0,0-1,.6,6.74,6.74,0,0,0-.89.68c-.28.24-.56.48-.84.76s-.52.56-.76.84a7.81,7.81,0,0,0-.68.92l-.6,1a9.1,9.1,0,0,0-.48,1.05c-.12.36-.28.72-.4,1.08A10.78,10.78,0,0,0,28,38.88,12.09,12.09,0,0,0,28,40.09v0c0,.68,0,1.4,0,2.08s-.08,1.4-.16,2.08-.16,1.37-.28,2.05-.24,1.32-.4,2-.32,1.32-.48,2-.4,1.29-.6,1.89-.44,1.24-.68,1.84-.52,1.2-.8,1.8S24,57,23.63,57.6s-.65,1.16-1,1.68-.68,1.12-1,1.64S20.86,62,20.5,62.49s-.8,1-1.2,1.52-.84,1-1.28,1.44-.89.93-1.36,1.37-1,.88-1.44,1.28a2.22,2.22,0,0,0-.8,1.6,2.59,2.59,0,0,0,.52,1.72,2.24,2.24,0,0,0,3.24.28c.56-.48,1.08-1,1.64-1.44a18.73,18.73,0,0,0,1.52-1.56c.48-.52,1-1.08,1.44-1.64s.93-1.13,1.37-1.73.88-1.16,1.28-1.76.8-1.24,1.2-1.84.76-1.29,1.08-1.93.68-1.32,1-2,.6-1.36.88-2.05.52-1.4.8-2.08.48-1.44.68-2.16.4-1.45.56-2.21.32-1.48.44-2.24.24-1.52.32-2.29.16-1.56.2-2.32.08-1.56.08-2.4a3.54,3.54,0,0,1,0-.73l.12-.72c0-.24.12-.48.16-.68s.16-.44.24-.64.2-.4.28-.6l.36-.6a4.85,4.85,0,0,1,.4-.56c.16-.16.28-.36.44-.52l.48-.49a4.53,4.53,0,0,1,.52-.4c.2-.12.4-.24.56-.36a4,4,0,0,1,.6-.28l.64-.24a3.39,3.39,0,0,1,.68-.16l.72-.12a8.65,8.65,0,0,1,1.44,0l.68.12c.24,0,.44.12.68.16l.65.24c.2.08.4.2.6.28s.4.24.56.36l.52.4a3.17,3.17,0,0,1,.48.49,2.75,2.75,0,0,1,.44.52,2.84,2.84,0,0,1,.4.56l.36.6a3.1,3.1,0,0,1,.28.64c.08.24.16.44.24.64a3.39,3.39,0,0,1,.16.68l.12.72a4.66,4.66,0,0,1,0,.77c0,.84,0,1.72,0,2.56s-.08,1.68-.16,2.52-.16,1.69-.28,2.49-.24,1.64-.4,2.44-.32,1.65-.48,2.41-.36,1.61-.6,2.4-.44,1.57-.68,2.37-.52,1.52-.8,2.28-.56,1.52-.88,2.25-.65,1.48-1,2.2-.68,1.44-1.08,2.16-.76,1.41-1.16,2.09-.8,1.36-1.24,2-.88,1.32-1.32,2-.92,1.28-1.4,1.92-1,1.24-1.48,1.84a2.38,2.38,0,0,0,.28,3.29,2.27,2.27,0,0,0,1.48.56,2.32,2.32,0,0,0,1.76-.84c.56-.64,1.08-1.32,1.6-2s1-1.4,1.52-2.08,1-1.44,1.44-2.16.93-1.49,1.37-2.21.84-1.52,1.24-2.28.79-1.54,1.16-2.33a18.7,18.7,0,0,0,1.2-2.36ZM67.43,11.15A2.3,2.3,0,0,0,64.15,11l0,0A2.44,2.44,0,0,0,64,14.4C72.2,23.49,76,33.87,75.2,45.25c-.36,5.46-1.48,9.7-2.4,14.23l-.08.4a2.41,2.41,0,0,0,1.84,2.81,2,2,0,0,0,.48,0,2.31,2.31,0,0,0,2.28-1.89l.08-.4c.92-4.65,2.08-9,2.49-14.82.88-12.83-3.33-24.41-12.46-34.47Z" fill="#13baf4"/></svg>