<svg id="图层_1" data-name="图层 1" xmlns="http://www.w3.org/2000/svg" viewBox="0 0 80 80"><title>图标</title><path d="M56.76,60.7a2.38,2.38,0,0,0,2.36,2.08h.07a2.38,2.38,0,0,0,2.38-2.63A21.77,21.77,0,0,0,49,43a15.47,15.47,0,1,0-18,0A21.77,21.77,0,0,0,18.43,60.15a2.38,2.38,0,0,0,2.38,2.63h.07a2.38,2.38,0,0,0,2.36-2.08,16.89,16.89,0,0,1,33.52,0ZM40,41.06A10.64,10.64,0,1,1,50.64,30.42,10.65,10.65,0,0,1,40,41.06Z" fill="#13baf4"/><path d="M2.42,30.33h0a2.39,2.39,0,0,0,2.29-1.67,37.24,37.24,0,0,1,24-23.95,2.39,2.39,0,0,0,1.67-2.29A2.42,2.42,0,0,0,27.17.12a42,42,0,0,0-27,27.05A2.42,2.42,0,0,0,2.42,30.33Z" fill="#13baf4"/><path d="M51.34,4.71a37.24,37.24,0,0,1,24,24,2.39,2.39,0,0,0,2.29,1.67h0a2.42,2.42,0,0,0,2.3-3.16,42,42,0,0,0-27-27,2.42,2.42,0,0,0-3.16,2.3A2.39,2.39,0,0,0,51.34,4.71Z" fill="#13baf4"/><path d="M28.66,75.29a37.24,37.24,0,0,1-23.95-24,2.39,2.39,0,0,0-2.29-1.67h0a2.42,2.42,0,0,0-2.3,3.16A42,42,0,0,0,27.17,79.88a2.42,2.42,0,0,0,3.16-2.3A2.39,2.39,0,0,0,28.66,75.29Z" fill="#13baf4"/><path d="M77.58,49.67h0a2.39,2.39,0,0,0-2.29,1.67,37.24,37.24,0,0,1-24,24,2.39,2.39,0,0,0-1.67,2.29,2.42,2.42,0,0,0,3.16,2.3,42,42,0,0,0,27.05-27A2.42,2.42,0,0,0,77.58,49.67Z" fill="#13baf4"/></svg>