<svg id="图层_1" data-name="图层 1" xmlns="http://www.w3.org/2000/svg" viewBox="0 0 80 80"><title>图标</title><path d="M75.39,29.3A17.48,17.48,0,1,0,46.69,10H16.62a7.21,7.21,0,0,0-6.8,4.8L.49,41.05A8.13,8.13,0,0,0,0,43.85V70.31A9.69,9.69,0,0,0,9.69,80H70.31A9.69,9.69,0,0,0,80,70.31V43.6a8.45,8.45,0,0,0-.49-2.82ZM14.21,17.43A3.59,3.59,0,0,1,17.59,15h27.6A18.14,18.14,0,0,0,45,17.5a15.67,15.67,0,0,0,.09,1.69H13.58ZM11.8,24.19H46.34a17.52,17.52,0,0,0,2.45,4.16H10.32ZM8.54,33.35H55.12a17.34,17.34,0,0,0,16.1-.7l1.69,4.76H7.09ZM75,69.89A5.11,5.11,0,0,1,69.89,75H10.11A5.11,5.11,0,0,1,5,69.89V45.55a3.14,3.14,0,0,1,3.14-3.14H71.86A3.14,3.14,0,0,1,75,45.55ZM62.5,30A12.5,12.5,0,1,1,75,17.5,12.52,12.52,0,0,1,62.5,30Z" fill="#aeaeae"/><path d="M48.09,56.2H31.91a2.5,2.5,0,1,0,0,5H48.09a2.5,2.5,0,0,0,0-5Z" fill="#aeaeae"/><path d="M68,13l-6.17,6.17a.67.67,0,0,1-1,0l-3-3a2.5,2.5,0,0,0-3.54,0h0a2.49,2.49,0,0,0,0,3.53l5.7,5.7a1.91,1.91,0,0,0,2.72,0l8.83-8.82A2.5,2.5,0,0,0,68,13Z" fill="#aeaeae"/></svg>