<svg id="图层_1" data-name="图层 1" xmlns="http://www.w3.org/2000/svg" viewBox="0 0 80 80"><title>图标</title><path d="M77.5,75H74.86a4.09,4.09,0,0,1-4.09-4.08V30.64C70.77,14.31,58,.5,41.68,0A30,30,0,0,0,10.77,30V70.92A4.08,4.08,0,0,1,6.69,75H2.5a2.5,2.5,0,0,0,0,5h75a2.5,2.5,0,0,0,0-5ZM65.77,70.92A4.08,4.08,0,0,1,61.69,75H19.86a4.09,4.09,0,0,1-4.09-4.08V30A25,25,0,0,1,40.35,5c14-.23,25.42,11.58,25.42,25.57Z" fill="#aeaeae"/><path d="M48.89,39.75,43,38.62a2.88,2.88,0,0,1-2.25-3.51l3.51-14.44L30.49,39.76a1,1,0,0,0,.62,1.59L37,42.48A2.88,2.88,0,0,1,39.23,46L35.72,60.43l13.79-19.1A1,1,0,0,0,48.89,39.75Z" fill="#aeaeae"/></svg>