<svg id="图层_1" data-name="图层 1" xmlns="http://www.w3.org/2000/svg" viewBox="0 0 80 80"><title>图标</title><path d="M40,22.5A17.5,17.5,0,1,0,57.5,40,17.52,17.52,0,0,0,40,22.5Zm0,30A12.5,12.5,0,1,1,52.5,40,12.52,12.52,0,0,1,40,52.5Z" fill="#aeaeae"/><path d="M79.8,49.6A5.73,5.73,0,0,0,77,46l-.42-.24a6.59,6.59,0,0,1-3.43-5.72v-.19a6.54,6.54,0,0,1,3.39-5.67L77,34a5.71,5.71,0,0,0,2.78-3.56A5.64,5.64,0,0,0,79.17,26L72,14a6,6,0,0,0-8-2.11,7.46,7.46,0,0,1-7.27,0l-.1-.06a6.9,6.9,0,0,1-3.56-6A5.86,5.86,0,0,0,47.16,0H32.84a5.86,5.86,0,0,0-5.9,5.8v.25a6.54,6.54,0,0,1-3.38,5.66l-.27.15a7.5,7.5,0,0,1-7.3,0A6,6,0,0,0,8,14L.81,26A5.68,5.68,0,0,0,.2,30.4,5.77,5.77,0,0,0,3,34l.46.26a6.54,6.54,0,0,1,3.39,5.67v.19A6.59,6.59,0,0,1,3.4,45.8L3,46A5.73,5.73,0,0,0,.2,49.6,5.64,5.64,0,0,0,.81,54L8,66a6,6,0,0,0,8,2.1,7.46,7.46,0,0,1,7.27,0l.1.06a6.88,6.88,0,0,1,3.56,6,5.86,5.86,0,0,0,5.9,5.8H47.16a5.86,5.86,0,0,0,5.9-5.8V74a6.53,6.53,0,0,1,3.39-5.66l.26-.15a7.5,7.5,0,0,1,7.3,0A6,6,0,0,0,72,66l7.16-12A5.64,5.64,0,0,0,79.8,49.6Zm-4.91,1.85-7.16,12a1,1,0,0,1-1.29.3,12.54,12.54,0,0,0-12.17,0l-.27.15a11.56,11.56,0,0,0-5.94,10v.25a.85.85,0,0,1-.9.8H32.84a.86.86,0,0,1-.9-.85,11.87,11.87,0,0,0-6.1-10.31l-.1-.06a12.51,12.51,0,0,0-12.19,0,1,1,0,0,1-1.28-.3l-7.16-12A.68.68,0,0,1,5,50.9a.78.78,0,0,1,.4-.5l.42-.24a11.59,11.59,0,0,0,6-10.08v-.19a11.53,11.53,0,0,0-5.95-10l-.45-.26a.82.82,0,0,1-.4-.49.7.7,0,0,1,.08-.56l7.16-12a1,1,0,0,1,1.3-.3,12.54,12.54,0,0,0,12.17,0l.26-.15a11.56,11.56,0,0,0,5.94-10V5.8a.85.85,0,0,1,.9-.8H47.16a.86.86,0,0,1,.9.85,11.87,11.87,0,0,0,6.1,10.31l.1.06a12.56,12.56,0,0,0,12.18,0,1,1,0,0,1,1.28.31l7.15,12a.66.66,0,0,1,.08.56.76.76,0,0,1-.4.49l-.43.25a11.54,11.54,0,0,0-6,10v.19a11.59,11.59,0,0,0,6,10.08l.42.24a.79.79,0,0,1,.4.49A.7.7,0,0,1,74.89,51.45Z" fill="#aeaeae"/></svg>