<svg id="图层_1" data-name="图层 1" xmlns="http://www.w3.org/2000/svg" viewBox="0 0 80 80"><title>图标</title><path d="M20.34,37.5a2.5,2.5,0,0,0,0,5H59.66a2.5,2.5,0,0,0,0-5Z" fill="#aeaeae"/><path d="M76,48h0a2.48,2.48,0,0,0-2.39,1.78A35.13,35.13,0,0,1,49.78,73.6,2.48,2.48,0,0,0,48,76h0a2.49,2.49,0,0,0,3.16,2.42A40.21,40.21,0,0,0,78.42,51.16,2.49,2.49,0,0,0,76,48Z" fill="#aeaeae"/><path d="M4,32H4A2.48,2.48,0,0,0,6.4,30.22,35.13,35.13,0,0,1,30.22,6.4,2.48,2.48,0,0,0,32,4h0a2.49,2.49,0,0,0-3.16-2.42A40.21,40.21,0,0,0,1.58,28.84,2.49,2.49,0,0,0,4,32Z" fill="#aeaeae"/><path d="M49.78,6.4A35.13,35.13,0,0,1,73.6,30.22,2.48,2.48,0,0,0,76,32h0a2.49,2.49,0,0,0,2.42-3.16A40.21,40.21,0,0,0,51.16,1.58,2.49,2.49,0,0,0,48,4h0A2.48,2.48,0,0,0,49.78,6.4Z" fill="#aeaeae"/><path d="M30.22,73.6A35.13,35.13,0,0,1,6.4,49.78,2.48,2.48,0,0,0,4,48H4a2.49,2.49,0,0,0-2.42,3.16A40.21,40.21,0,0,0,28.84,78.42,2.49,2.49,0,0,0,32,76h0A2.48,2.48,0,0,0,30.22,73.6Z" fill="#aeaeae"/></svg>