<svg id="图层_1" data-name="图层 1" xmlns="http://www.w3.org/2000/svg" viewBox="0 0 80 80"><title>图标</title><path d="M78.69,73l-14-14a3.88,3.88,0,0,1-.47-4.88A35,35,0,1,0,54.21,64.25a3.87,3.87,0,0,1,4.88.47l14.1,14.11a4,4,0,0,0,5.94-.31A4.16,4.16,0,0,0,78.69,73ZM35,65A30,30,0,1,1,65,35,30,30,0,0,1,35,65Z" fill="#fff"/><path d="M52.09,16.75a2.48,2.48,0,0,0-3.66.27l-.06.09a2.47,2.47,0,0,0,.32,3.33A19.91,19.91,0,0,1,55,35c0,.41,0,.82,0,1.22a2.46,2.46,0,0,0,2,2.61h.09A2.46,2.46,0,0,0,60,36.58c0-.52.05-1,.05-1.58A24.94,24.94,0,0,0,52.09,16.75Z" fill="#fff"/><circle cx="55.4" cy="44.96" r="2.5" fill="#fff"/></svg>