<svg id="图层_1" data-name="图层 1" xmlns="http://www.w3.org/2000/svg" viewBox="0 0 80 80"><title>图标</title><path d="M63.91,17.75a2.5,2.5,0,0,0-2.5-2.5H15.66a2.5,2.5,0,1,0,0,5H61.41A2.5,2.5,0,0,0,63.91,17.75Z" fill="#fff"/><path d="M47.24,38a2.5,2.5,0,0,0-2.5-2.5H15.66a2.5,2.5,0,1,0,0,5H44.74A2.5,2.5,0,0,0,47.24,38Z" fill="#fff"/><path d="M15.66,55.75a2.5,2.5,0,1,0,0,5H29.73a2.5,2.5,0,0,0,0-5Z" fill="#fff"/><path d="M35.28,71H10.77A5.77,5.77,0,0,1,5,65.23V10.77A5.77,5.77,0,0,1,10.77,5H65.23A5.77,5.77,0,0,1,71,10.77V35.28a2.5,2.5,0,0,0,5,0V10.77A10.77,10.77,0,0,0,65.23,0H10.77A10.77,10.77,0,0,0,0,10.77V65.23A10.77,10.77,0,0,0,10.77,76H35.28a2.5,2.5,0,0,0,0-5Z" fill="#fff"/><path d="M61,42A19,19,0,1,0,80,61,19,19,0,0,0,61,42Zm0,33A14,14,0,1,1,75,61,14,14,0,0,1,61,75Z" fill="#fff"/><path d="M67.43,61.05l-3-1.31a1.47,1.47,0,0,1-.9-1.36V51.83a2.5,2.5,0,0,0-2.5-2.5h0a2.5,2.5,0,0,0-2.5,2.5v9.24A2.39,2.39,0,0,0,60,63.27l5.5,2.37a2.49,2.49,0,0,0,3.28-1.31h0A2.48,2.48,0,0,0,67.43,61.05Z" fill="#fff"/></svg>