<svg id="图层_1" data-name="图层 1" xmlns="http://www.w3.org/2000/svg" viewBox="0 0 80 80"><title>图标</title><path d="M78.82,35.78,44.35,1.31a6.16,6.16,0,0,0-8.7,0L1.18,35.78a4.22,4.22,0,0,0,3,7.21H9a2.34,2.34,0,0,1,2.34,2.34V74.66a5.83,5.83,0,0,0,5.83,5.83h6.08a8.5,8.5,0,0,0,8.5-8.5V63.33A8.25,8.25,0,0,1,40,55.08h0a8.25,8.25,0,0,1,8.25,8.25V72a8.5,8.5,0,0,0,8.5,8.5h5.76a5.83,5.83,0,0,0,5.83-5.83V45.33A2.33,2.33,0,0,1,70.67,43h5.17A4.22,4.22,0,0,0,78.82,35.78ZM72.74,38H70.59a7.25,7.25,0,0,0-7.25,7.25V73.85a1.64,1.64,0,0,1-1.65,1.64H57a3.75,3.75,0,0,1-3.75-3.75V63.33A13.25,13.25,0,0,0,40,50.08h0A13.25,13.25,0,0,0,26.75,63.33v8.41A3.75,3.75,0,0,1,23,75.49H18a1.63,1.63,0,0,1-1.64-1.64V45.24A7.26,7.26,0,0,0,9.09,38H7.26a.5.5,0,0,1-.36-.86L38.56,5.47a2,2,0,0,1,2.88,0L73.1,37.13A.5.5,0,0,1,72.74,38Z" fill="#fff"/></svg>