<svg id="图层_1" data-name="图层 1" xmlns="http://www.w3.org/2000/svg" viewBox="0 0 80 80"><title>图标</title><path d="M70.06,80H9.94C4,80,0,75.61,0,71.5V64.78a8.44,8.44,0,0,1,3.87-7.1l24.4-12.45V43.36C25.58,41,20,34.82,20,23.45V20.14C20,8.09,28,0,40,0s20,8.09,20,20.14v3.31c0,11.37-5.63,17.59-8.32,19.91v1.87l24.4,12.45A8.42,8.42,0,0,1,80,64.78V71.5C80,75.61,76,80,70.06,80ZM40,6C33.21,6,26,9.71,26,20.14v3.31A21.21,21.21,0,0,0,33.4,39.61a2.34,2.34,0,0,1,.85,1.81l0,5.1A3.88,3.88,0,0,1,32.15,50L6.87,62.87A2.43,2.43,0,0,0,6,64.78V71.5C6,72.1,7.19,74,9.94,74H70.06C72.81,74,74,72.1,74,71.5V64.78a2.45,2.45,0,0,0-1-2L47.84,50a3.86,3.86,0,0,1-2.11-3.45V41.41a2.36,2.36,0,0,1,.85-1.82,21.14,21.14,0,0,0,7.47-16.14V20.14C54.05,9.71,46.79,6,40,6Z" fill="#fff"/></svg>