<?xml version="1.0" standalone="no"?><!DOCTYPE svg PUBLIC "-//W3C//DTD SVG 1.1//EN" "http://www.w3.org/Graphics/SVG/1.1/DTD/svg11.dtd"><svg t="1558767581880" class="icon" style="" viewBox="0 0 1024 1024" version="1.1" xmlns="http://www.w3.org/2000/svg" p-id="3207" xmlns:xlink="http://www.w3.org/1999/xlink" width="128" height="128"><defs><style type="text/css"></style></defs><path d="M539.245041 484.572515V105.452904c0-15.446965-12.527854-27.853189-27.853189-27.853189-15.446965 0-27.853189 12.527854-27.853189 27.853189v379.119611H104.419052c-15.446965 0-27.853189 12.527854-27.853189 27.853189 0 15.446965 12.527854 27.853189 27.853189 27.853189h379.119611v379.11961c0 15.446965 12.527854 27.853189 27.853189 27.85319 7.662668 0 14.717187-3.162371 19.704003-8.149187 4.986816-5.108445 8.149186-12.041335 8.149186-19.704003V540.278893H918.364651c7.662668 0 14.717187-3.162371 19.704003-8.149186s8.149186-12.041335 8.149187-19.704003c0-15.446965-12.527854-27.853189-27.85319-27.853189H539.245041z m0 0" p-id="3208" fill="#c9e6f4"></path></svg>