<svg id="图层_1" data-name="图层 1" xmlns="http://www.w3.org/2000/svg" viewBox="0 0 24 24"><title>未标题-1</title><path d="M23.59,6.52h0a1.08,1.08,0,0,0-.67-.24,1.12,1.12,0,0,0-.88.44v0a20.36,20.36,0,0,1-3.16,2.85,16,16,0,0,1-3.14,1.78,9.7,9.7,0,0,1-3.72.8,9.38,9.38,0,0,1-3.66-.81A16.17,16.17,0,0,1,5.19,9.54,21,21,0,0,1,2,6.68h0A1.13,1.13,0,0,0,1.1,6.3a1.1,1.1,0,0,0-.72.26A1.11,1.11,0,0,0,.26,8.11a18.59,18.59,0,0,0,2.49,2.37l-1.93,2a1.07,1.07,0,0,0-.31.79A1.12,1.12,0,0,0,.84,14a.86.86,0,0,0,.72.35,1.07,1.07,0,0,0,.78-.33L4.5,11.82a16.54,16.54,0,0,0,3.44,1.79l-.81,2.73h0a1.11,1.11,0,0,0,.76,1.37h.34a1.1,1.1,0,0,0,1.07-.84l.8-2.73a12.23,12.23,0,0,0,1.91.18,11,11,0,0,0,1.9-.17l.81,2.69a1.12,1.12,0,0,0,1.06.84.62.62,0,0,0,.33-.07,1.1,1.1,0,0,0,.73-1.37L16,13.56a16.57,16.57,0,0,0,3.45-1.78L21.58,14h0a1.09,1.09,0,0,0,1.54,0l0,0a1.12,1.12,0,0,0,.05-1.55h0l-1.92-2a17.18,17.18,0,0,0,2.44-2.23h0l.08-.12a1.18,1.18,0,0,0-.22-1.54Z" fill="#65cdef"/></svg>