<?xml version="1.0" standalone="no"?><!DOCTYPE svg PUBLIC "-//W3C//DTD SVG 1.1//EN" "http://www.w3.org/Graphics/SVG/1.1/DTD/svg11.dtd"><svg t="1558666960552" class="icon" style="" viewBox="0 0 1024 1024" version="1.1" xmlns="http://www.w3.org/2000/svg" p-id="4113" xmlns:xlink="http://www.w3.org/1999/xlink" width="32" height="32"><defs><style type="text/css"></style></defs><path d="M457.216 135.808l22.784-22.784v377.728a32 32 0 0 0 64 0V110.592l25.6 25.6A32 32 0 0 0 614.4 90.624L532.608 8.064a27.52 27.52 0 0 0-38.4 0l-81.92 82.56a32 32 0 0 0 45.44 45.184z" fill="#1fd873" p-id="4114"></path><path d="M1017.728 521.984l-119.296-332.8A92.416 92.416 0 0 0 811.52 128h-105.344a32 32 0 0 0-32 32 32 32 0 0 0 32 32h92.672a45.952 45.952 0 0 1 43.264 30.592l91.136 256H691.2a78.464 78.464 0 0 0-56.32 23.936l-61.056 64a36.864 36.864 0 0 1-26.496 11.264h-68.864a36.48 36.48 0 0 1-25.6-11.008l-64-64.768A78.592 78.592 0 0 0 332.8 478.848H90.752l91.136-256A45.952 45.952 0 0 1 225.152 192h92.672a32 32 0 0 0 32-32 32 32 0 0 0-32-32h-105.088a92.288 92.288 0 0 0-87.04 61.44L6.144 525.44a107.136 107.136 0 0 0-6.144 35.84v338.688A124.032 124.032 0 0 0 124.032 1024h775.936A124.032 124.032 0 0 0 1024 899.968V558.08a108.16 108.16 0 0 0-6.272-36.096zM960 894.592A65.408 65.408 0 0 1 894.592 960H129.408A65.408 65.408 0 0 1 64 894.592V583.04a40.192 40.192 0 0 1 40.192-40.192h194.688a80.128 80.128 0 0 1 57.344 24.064l57.344 58.368a55.04 55.04 0 0 0 39.424 16.64h119.808a55.168 55.168 0 0 0 39.936-17.024l55.04-57.344a80.128 80.128 0 0 1 57.856-24.704h194.176A40.192 40.192 0 0 1 960 583.04z" fill="#1fd873" p-id="4115"></path></svg>