<svg id="图层_1" data-name="图层 1" xmlns="http://www.w3.org/2000/svg" viewBox="0 0 80 80"><title>logo</title><path d="M77.21,27.91A2.79,2.79,0,0,0,80,25.12V17.67A10.24,10.24,0,0,0,69.77,7.44H10.23A10.24,10.24,0,0,0,0,17.67V62.33A10.24,10.24,0,0,0,10.23,72.56H69.77A10.24,10.24,0,0,0,80,62.33V40a2.79,2.79,0,0,0-5.58,0v9.77H5.58V17.67A4.66,4.66,0,0,1,10.23,13H69.77a4.66,4.66,0,0,1,4.65,4.65v7.45a2.79,2.79,0,0,0,2.79,2.79ZM74.42,55.35v7A4.66,4.66,0,0,1,69.77,67H10.23a4.66,4.66,0,0,1-4.65-4.65v-7ZM63.25,33.05a2.79,2.79,0,0,1,0,5.58H54.66a2.78,2.78,0,0,1-2.37-1.31l-1.77-2.86L44,45.32a2.79,2.79,0,0,1-5.06-.61L34.31,29.44l-1.94,7.37a2.78,2.78,0,0,1-2.69,2.07H16.75a2.79,2.79,0,0,1,0-5.58H27.53l3.9-14.83a2.83,2.83,0,0,1,2.66-2.08,2.92,2.92,0,0,1,2.71,2l5.65,18.68,5.66-9.4a2.75,2.75,0,0,1,2.38-1.35h0a2.8,2.8,0,0,1,2.38,1.32l3.34,5.42ZM11.16,62.33A2.79,2.79,0,0,1,14,59.53H21.4a2.8,2.8,0,0,1,0,5.59H14a2.79,2.79,0,0,1-2.79-2.79Zm18.61,0a2.79,2.79,0,0,1,2.79-2.8H40a2.8,2.8,0,0,1,0,5.59H32.56a2.79,2.79,0,0,1-2.79-2.79Zm28.83,0a3.73,3.73,0,1,1,3.73,3.72,3.73,3.73,0,0,1-3.73-3.72Zm0,0" fill="#13baf4"/></svg>