<svg id="图层_1" data-name="图层 1" xmlns="http://www.w3.org/2000/svg" viewBox="0 0 80 80"><title>logo</title><path d="M17.32,32.14c-2.82,0-4.79,1.77-4.79,4.32a4.46,4.46,0,0,0,4.79,4.83c2.53,0,4.3-2,4.3-4.83A4.21,4.21,0,0,0,17.32,32.14Z" fill="#aeaeae"/><path d="M17.32,47.6a4.5,4.5,0,0,0-3.44,1.31A3.91,3.91,0,0,0,13,52.43a4.22,4.22,0,0,0,4.29,4.33c2.57,0,4.3-2.51,4.3-4.84A4.21,4.21,0,0,0,17.32,47.6Z" fill="#aeaeae"/><path d="M36.37,67.18H9.81a3.83,3.83,0,0,1-3.73-3.92V13.78A3.83,3.83,0,0,1,9.81,9.86H63.44a3.83,3.83,0,0,1,3.73,3.92V35.43a2.79,2.79,0,0,0,5.58,0V13.78a9.91,9.91,0,0,0-9.81-10H9.81A9.91,9.91,0,0,0,0,13.78v49a12,12,0,0,0,2.7,7.18,10.22,10.22,0,0,0,7.11,2.81H36.37a2.78,2.78,0,1,0,0-5.55Z" fill="#aeaeae"/><path d="M28.35,17.71A3.37,3.37,0,0,0,25.76,19l-.13.18a3,3,0,0,0,.13,3.34,3.37,3.37,0,0,0,2.59,1.27H57.93a3.07,3.07,0,0,0,2.79-3.29,2.61,2.61,0,0,0-2.79-2.77Z" fill="#aeaeae"/><path d="M33.37,54.69a2.92,2.92,0,0,0,2.78-2.77c0-1,0-3.29-2.28-3.29H28.35a3.15,3.15,0,0,0-3.29,3.29,2.93,2.93,0,0,0,2.79,2.77Z" fill="#aeaeae"/><path d="M17.32,16.67a4.77,4.77,0,0,0-4.79,4.84c0,2.55,2,4.32,4.79,4.32a4.21,4.21,0,0,0,4.3-4.32C21.62,19.18,19.89,16.67,17.32,16.67Z" fill="#aeaeae"/><path d="M76.06,57.11a1.87,1.87,0,0,1,.06-1.69L80,50.32l-.8-.82a9.32,9.32,0,0,0-1.53-3.12,9.44,9.44,0,0,1-.89-2.19v-.27l-1-1L70,43.47a1.94,1.94,0,0,1-1.77-1.07L66,36.77l-1.41,0a24.72,24.72,0,0,0-8.75,0h-1L52.7,42.35A1.94,1.94,0,0,1,51,43.47l-5.87-1.1-.87.91c-.27.36-.53.72-.8,1.06a12.75,12.75,0,0,0-2.78,5.19l-.77.79,3.92,5.16a2,2,0,0,1,0,1.67L40,61.61l.65,1.33a28.52,28.52,0,0,0,1.54,3.7,12.31,12.31,0,0,0,2.14,2.76l.8.82L51,69.13a2.08,2.08,0,0,1,1.23,1.07l2.19,5.62h1.41a25.45,25.45,0,0,0,4.41.4,24,24,0,0,0,4.25-.39h1.07l2.19-6.16,0-.22c0-.72.9-.82,1.16-.83l5.87,1.1.86-.9c1.48-2,3-4.11,3.58-6.24l.8-.83Zm-18,13.32-.87-2.69a5,5,0,0,0-2.53-3.1,4.73,4.73,0,0,0-3.37-.54l-3,.44-.14-.28a3.41,3.41,0,0,0-.55-.87c-.15-.33-.25-.6-.34-.83a5.08,5.08,0,0,0-.34-.79l2.17-2.24c1.71-2.35,1.68-5.25-.07-7.06l-2.18-2.24.18-.4a10.38,10.38,0,0,1,1.19-2.23l3,.88A4.78,4.78,0,0,0,54.66,48a5,5,0,0,0,2.52-3.05l.87-2.71a7.33,7.33,0,0,1,3.75,0l.88,2.69A5,5,0,0,0,65.21,48a4.76,4.76,0,0,0,3.37.54l3-.44c.05.08.1.18.15.28a4.19,4.19,0,0,0,.46.77,2.83,2.83,0,0,0,.72,1.26l-2.12,2.18c-1.71,2.35-1.69,5.25,0,7l1.84,2.36a5,5,0,0,1-.77,1.5c-.13.2-.26.4-.38.61l-2.85-.42a4.81,4.81,0,0,0-3.46.52,5,5,0,0,0-2.52,3.08l-.9,3.23A7.6,7.6,0,0,1,58.06,70.43Z" fill="#aeaeae"/><path d="M67.23,56.56A7.3,7.3,0,1,0,59.94,64,7.46,7.46,0,0,0,67.23,56.56Zm-4.57,0a2.73,2.73,0,1,1-2.72-2.9A2.72,2.72,0,0,1,62.66,56.56Z" fill="#aeaeae"/><path d="M42.67,36.46a2.58,2.58,0,0,0-.71-2,3.11,3.11,0,0,0-2.08-1.26H28.35a2.86,2.86,0,0,0-2.72,2c-.52,1.07-.7,2,.13,2.82a3.37,3.37,0,0,0,2.59,1.27H39.88A2.63,2.63,0,0,0,42,38.48,2.59,2.59,0,0,0,42.67,36.46Z" fill="#aeaeae"/></svg>