<?xml version="1.0" standalone="no"?>
<!DOCTYPE svg PUBLIC "-//W3C//DTD SVG 1.1//EN" "http://www.w3.org/Graphics/SVG/1.1/DTD/svg11.dtd" >
<!--
2013-9-30: Created.
-->
<svg>
<metadata>
Created by iconfont
</metadata>
<defs>

<font id="iconfont" horiz-adv-x="1024" >
  <font-face
    font-family="iconfont"
    font-weight="500"
    font-stretch="normal"
    units-per-em="1024"
    ascent="896"
    descent="-128"
  />
    <missing-glyph />
    
    <glyph glyph-name="shanchu" unicode="&#59036;" d="M512 896c282.794667 0 512-229.205333 512-512s-229.205333-512-512-512S0 101.205333 0 384 229.205333 896 512 896zM323.285333 630.869333a41.386667 41.386667 0 0 1-55.168-2.986666l-2.986666-3.370667a41.386667 41.386667 0 0 1 2.986666-55.168L453.418667 384l-185.344-185.344a41.386667 41.386667 0 1 1 58.538666-58.538667L512 325.461333l185.344-185.344 3.370667-2.986666a41.386667 41.386667 0 0 1 55.168 2.986666l2.986666 3.370667a41.386667 41.386667 0 0 1-2.986666 55.168L570.538667 384l185.386666 185.344a41.386667 41.386667 0 0 1-58.538666 58.538667L512 442.538667 326.656 627.84l-3.370667 3.029333z"  horiz-adv-x="1024" />

    
    <glyph glyph-name="morentouxiang" unicode="&#59035;" d="M1022.677661 384.666981c-0.16384 233.123211-157.982293 436.632421-383.722484 494.795464-225.75043 58.183523-462.263072-43.693962-575.076847-247.704932C-48.945685 427.756784-9.480832 173.272991 159.806391 13.007184a447.415112 447.415112 0 0 0 35.153825 95.876861c15.667158 28.118964 133.590679 63.917907 183.756304 99.071733 50.175865 35.153825 16.619475 67.747657 0 83.404575a604.649887 604.649887 0 0 0-66.7851 99.071732c-37.713818 60.405597 0 66.79534 0 66.79534 3.194871 123.033268 23.961535 169.061944 66.7851 215.080379s198.143465 31.948714 198.143465 31.948714v-10.547172a95.876861 95.876861 0 0 0 53.370736-22.04666c44.748679-46.018436 63.917907-92.999429 66.795339-213.800383 0 0 37.703578-7.3523 0-66.7851a660.580616 660.580616 0 0 0-66.795339-99.071732c-16.619475-16.619475-50.175865-47.943551 0-83.414815 50.175865-35.471264 166.81939-70.942528 183.756304-99.071733a421.845901 421.845901 0 0 0 36.7615-108.338907 511.333019 511.333019 0 0 1 171.929136 383.497205zM630.230721 207.300419c-50.175865 35.471264-16.619475 66.79534 0 83.414815a660.580616 660.580616 0 0 1 66.795339 99.071733c37.703578 59.44304 0 66.7851 0 66.785099-3.194871 121.128633-22.0569 168.099386-66.795339 213.810623a95.876861 95.876861 0 0 1-53.370736 22.046661v11.827168s-155.63734 13.414364-198.143465-31.958954c-42.495885-45.383557-63.907667-91.719432-66.7851-215.080379 0 0-37.713818-6.389743 0-66.79534a604.649887 604.649887 0 0 1 66.7851-101.621486c16.619475-15.667158 50.175865-46.980993 0-83.414814-50.175865-36.433822-167.771707-69.990211-183.438865-98.109175a447.415112 447.415112 0 0 1-35.153825-95.876862c192.77772-181.861909 492.54267-186.306057 690.614455-10.229732a421.845901 421.845901 0 0 1-36.75126 106.106594c-16.619475 29.081521-133.580439 64.552786-183.756304 100.024049z"  horiz-adv-x="1024" />

    
    <glyph glyph-name="tianjia" unicode="&#59034;" d="M512-128C229.248-128 0 101.248 0 384S229.248 896 512 896s512-229.248 512-512-229.248-512-512-512z m0 938.666667C276.352 810.666667 85.333333 619.648 85.333333 384s191.018667-426.666667 426.666667-426.666667 426.666667 191.018667 426.666667 426.666667S747.648 810.666667 512 810.666667z m261.333333-469.333334H554.666667v-213.333333a42.666667 42.666667 0 1 0-85.333334 0v213.333333H250.666667A37.333333 37.333333 0 0 0 213.333333 378.666667v10.666666c0 20.608 16.725333 37.333333 37.333334 37.333334H469.333333V640a42.666667 42.666667 0 1 0 85.333334 0v-213.333333h218.666666c20.608 0 37.333333-16.725333 37.333334-37.333334v-10.666666a37.333333 37.333333 0 0 0-37.333334-37.333334z"  horiz-adv-x="1024" />

    
    <glyph glyph-name="gen" unicode="&#59032;" d=""  horiz-adv-x="1508" />

    
    <glyph glyph-name="yiwuyima" unicode="&#59033;" d="M411.136 854.272h-271.36c-37.952 0-68.736-30.784-68.736-68.672v-273.472c0-37.952 30.784-68.736 68.736-68.736h271.36c37.888 0 68.736 30.784 68.736 68.736V785.5360000000001c0 37.888-30.848 68.736-68.736 68.736zM879.488 854.272H608.064c-37.952 0-68.736-30.784-68.736-68.672v-273.472c0-37.952 30.784-68.736 68.736-68.736h271.424c37.888 0 68.672 30.784 68.672 68.736V785.5360000000001c0 37.888-30.784 68.736-68.672 68.736zM411.136 384.256h-271.36c-37.952 0-68.736-30.784-68.736-68.736v-273.472c0-37.888 30.784-68.672 68.736-68.672h271.36c37.888 0 68.736 30.784 68.736 68.672V315.52c0 37.888-30.848 68.736-68.736 68.736zM621.184 297.472V364.288a13.568 13.568 0 0 1-13.568 13.568H534.976a13.504 13.504 0 0 1-13.504-13.568v-66.816c0-7.424 6.016-13.568 13.504-13.568h72.64a13.632 13.632 0 0 1 13.568 13.568zM907.52 377.856h-69.888a13.568 13.568 0 0 1-13.568-13.568v-66.816c0-7.424 6.08-13.568 13.568-13.568h69.888a13.632 13.632 0 0 1 13.504 13.568V364.288a13.504 13.504 0 0 1-13.504 13.568zM724.096 270.46400000000006a13.568 13.568 0 0 1-13.504 13.504H634.688a13.568 13.568 0 0 1-13.504-13.504v-169.792c0-7.424 6.08-13.504 13.504-13.504h75.968a13.568 13.568 0 0 1 13.504 13.504V270.46400000000006zM607.616 87.10400000000004h-57.728a13.568 13.568 0 0 1-13.504-13.568v-69.76c0-7.488 6.08-13.568 13.504-13.568h57.728a13.568 13.568 0 0 1 13.568 13.568v69.76a13.504 13.504 0 0 1-13.568 13.568zM907.52 178.75199999999995h-71.36c-7.488 0-13.568-6.656-13.568-14.912v-97.856h-84.928a13.568 13.568 0 0 1-13.504-13.568v-48.576c0-7.488 6.08-13.568 13.504-13.568h169.856a13.568 13.568 0 0 1 13.504 13.568v48.576c0 0.256-0.256 0.384-0.256 0.64s0.256 0.448 0.256 0.704v110.08c0 8.192-6.08 14.912-13.504 14.912z"  horiz-adv-x="1024" />

    
    <glyph glyph-name="shoushumoban" unicode="&#59031;" d="M982.820571 416.109714H560.420571a27.867429 27.867429 0 0 0-28.16 28.16V866.669714c0 15.725714 12.434286 28.16 28.16 28.16h422.4c15.798857 0 28.16-12.434286 28.16-28.16v-422.4c0-15.213714-12.434286-28.16-28.16-28.16z m-394.24 56.32h366.08V838.509714H588.580571v-366.08z m394.24-599.771428H560.420571a27.867429 27.867429 0 0 0-28.16 28.086857V323.145143c0 15.798857 12.434286 28.16 28.16 28.16h422.4c15.798857 0 28.16-12.361143 28.16-28.16v-422.4c0-15.213714-12.434286-28.16-28.16-28.16z m-394.24 56.32h366.08V294.912H588.580571v-366.08z m-140.8-56.32H41.106286a27.867429 27.867429 0 0 0-28.086857 28.086857V866.742857c0 15.725714 12.434286 28.16 28.16 28.16H448.365714c15.798857 0 28.16-12.434286 28.16-28.16v-965.924571a29.110857 29.110857 0 0 0-28.745143-28.16z m-378.441142 56.32h350.866285V838.436571H69.339429v-909.604571z"  horiz-adv-x="1024" />

    
    <glyph glyph-name="peisongdan" unicode="&#59030;" d="M164.63968-101.12c-59.84 0-99.584 30.912-99.584 104.768V796.16C65.05568 848.32 112.41568 895.68 164.63968 895.68h666.496c49.152 0 99.584-47.36 99.584-99.584v-473.856c0-12.288-17.536-24.512-29.824-24.512s-29.824 12.224-29.824 24.512V796.16c0 18.432-18.432 36.864-36.864 36.864H164.63968c-18.432 0-36.864-18.432-36.864-36.864v-798.592c0-21.12 19.008-36.864 36.864-36.864h283.264c12.224 0 24.512-18.816 24.512-31.104 0-15.36-12.288-30.336-24.512-30.336l6.08-0.384H164.63968z m258.048 288.448H250.33568c-7.552 0-15.104 17.536-15.104 29.824s7.552 29.824 15.104 29.824h172.352c7.488 0 15.36-13.056 15.04-32.448-0.064-15.36-7.552-27.2-15.04-27.2z m310.144 215.552H253.66368c-12.288 0-24.576 17.536-24.576 29.824s12.288 29.824 24.576 29.824H735.96768c12.288 0 24.576-17.536 24.576-29.824s-15.36-29.824-27.648-29.824z m6.144 215.552H259.80768c-12.288 0-24.576 17.536-24.576 29.824s12.288 29.824 24.576 29.824h482.24c12.288 0 24.576-17.536 24.576-29.824s-12.288-29.824-27.648-29.824zM532.70368 256h274.304c40 0 72.576-33.92 72.576-75.52v-42.752l70.848-47.36a21.76 21.76 0 0 0 9.536-18.176v-107.52c0-7.744-3.968-14.912-10.368-18.752-6.4-3.84-14.336-3.84-20.736 0a21.824 21.824 0 0 0-10.368 18.688v95.808l-70.848 47.36a21.76 21.76 0 0 0-9.6 18.176v54.528a32.832 32.832 0 0 1-9.088 22.848 30.72 30.72 0 0 1-21.952 9.536H553.43968v-226.688h16.576c12.928 25.984 38.464 42.24 66.368 42.304 26.816 0 51.584-14.848 65.152-39.104l0.64-1.344h50.24c13.248 24.96 38.272 40.384 65.472 40.448 26.752 0 51.584-14.848 65.088-39.104 13.44-24.192 13.44-54.08 0-78.272A74.88 74.88 0 0 0 817.88768-128c-37.312 0-68.864 28.8-74.112 67.456h-32.96c-1.28-9.984-4.48-19.584-9.28-28.352A74.88 74.88 0 0 0 636.38368-128c-38.528 0-70.784 30.72-74.432 71.04h-29.248A21.184 21.184 0 0 0 511.96768-35.392v269.824c0 11.904 9.28 21.568 20.736 21.568z m75.2-305.792c0-16.32 12.8-29.632 28.48-29.632a29.12 29.12 0 0 1 28.544 29.632c0 16.384-12.8 29.696-28.544 29.696a29.184 29.184 0 0 1-28.48-29.696z m181.44 0c0-16.32 12.8-29.632 28.544-29.632a29.12 29.12 0 0 1 28.48 29.632c0 16.384-12.8 29.696-28.48 29.696a29.184 29.184 0 0 1-28.544-29.696z"  horiz-adv-x="1024" />

    
    <glyph glyph-name="mianma-" unicode="&#59029;" d="M1010.4832 227.9424c-17.8176 27.0336-62.464 16.1792-84.1728 3.072-33.792-20.48-135.3728-107.1104-171.8272-111.616a1398.9888 1398.9888 0 0 0-203.3664 9.216c-78.6432 7.3728-47.9232 39.1168-35.4304 42.5984s163.84 11.4688 213.4016 17.408c45.2608 5.12 38.7072 49.7664-12.4928 51.6096s-282.2144 17.408-360.0384 12.288c-64.9216-4.5056-155.0336-77.824-182.8864-102.4a18.0224 18.0224 0 0 1-5.7344-18.2272 22.1184 22.1184 0 0 1 5.7344-9.6256l155.648-138.0352a18.2272 18.2272 0 0 1 13.5168-4.5056h6.5536a36.2496 36.2496 0 0 1 14.5408 4.3008 288.5632 288.5632 0 0 0 67.7888 26.8288c33.792 6.9632 220.5696-13.5168 284.8768-4.096s230.8096 148.2752 266.24 178.5856c18.6368 15.7696 31.3344 36.864 27.648 42.5984zM292.4544-27.648l-160.768 143.36a31.744 31.744 0 0 1-42.8032 2.048c-10.4448-8.192-54.6816-40.96-66.3552-50.3808-20.48-18.2272-2.048-35.2256 8.8064-45.6704s128.4096-119.1936 145.8176-136.3968a33.1776 33.1776 0 0 1 48.3328-4.3008c13.1072 11.0592 43.4176 37.0688 62.8736 50.5856s17.6128 28.4672 4.096 40.7552zM185.344 291.4304H839.68A71.68 71.68 0 0 1 911.1552 363.52V824.32A71.68 71.68 0 0 1 839.68 896H185.344a71.68 71.68 0 0 1-71.4752-71.68V363.52a71.68 71.68 0 0 1 71.4752-72.0896z m49.9712 302.2848a39.3216 39.3216 0 0 0 39.3216 39.3216h475.7504a39.3216 39.3216 0 0 0 39.3216-39.3216 39.3216 39.3216 0 0 0-39.3216-39.3216H274.6368a39.3216 39.3216 0 0 0-39.3216 39.3216z"  horiz-adv-x="1024" />

    
    <glyph glyph-name="_huaban" unicode="&#59026;" d="M989.926193 735.659477l-127.529178 127.529178a115.413906 115.413906 0 0 1-162.599702 0l-332.213509-331.575863-255.058357-255.058356a63.764589 63.764589 0 0 1-15.941147-26.781128L3.488-60.760241a49.098734 49.098734 0 0 1 63.764589-63.764589l313.721779 92.458654a63.764589 63.764589 0 0 1 28.694065 17.216439l250.594835 255.058357 330.938217 332.851155a116.051552 116.051552 0 0 1-1.275292 162.599702z m-382.587534-441.888602l-239.117209-239.11721a63.764589 63.764589 0 0 0-28.694065-17.216439l-218.074895-63.764589a15.941147 15.941147 0 0 0-19.767023 19.767023l63.764589 219.350186a58.025776 58.025776 0 0 0 15.941148 26.781128l240.392501 237.841917L586.93399 640.650239 768.663069 458.92116z m330.300571 332.851155L823.500616 513.121061 641.133891 695.487786l113.500969 112.225677a38.258753 38.258753 0 0 0 54.837546 0l127.529179-127.529178a38.258753 38.258753 0 0 0-1.275292-53.562255zM841.354701-48.007323h-306.070028a38.258753 38.258753 0 1 1 0-76.517507h306.070028a38.258753 38.258753 0 1 1 0 76.517507z"  horiz-adv-x="1027" />

    
    <glyph glyph-name="-2" unicode="&#59027;" d="M896 700.16L593.92 874.24a166.4 166.4 0 0 1-163.84 0L128 700.16A165.12 165.12 0 0 1 46.72 558.08v-348.16A165.12 165.12 0 0 1 128 67.84l301.44-174.08a165.12 165.12 0 0 1 163.84 0L896 67.84a165.12 165.12 0 0 1 81.92 142.08V558.08A165.12 165.12 0 0 1 896 700.16zM167.04 633.6l301.44 174.08a87.68 87.68 0 0 0 87.04 0l301.44-174.08a87.68 87.68 0 0 0 43.52-75.52v-305.92L592 390.4a199.04 199.04 0 0 1-160 0l-308.48-138.24V558.08a87.68 87.68 0 0 0 43.52 75.52z m689.92-499.2l-301.44-174.08a87.68 87.68 0 0 0-87.04 0L167.04 134.4a85.76 85.76 0 0 0-35.84 42.24L463.36 320a117.12 117.12 0 0 0 97.28 0l330.88-147.2a83.2 83.2 0 0 0-34.56-38.4z"  horiz-adv-x="1024" />

    
    <glyph glyph-name="-3" unicode="&#59028;" d="M784 896h-544A240 240 0 0 1 0 656v-544A240 240 0 0 1 240-128h544A240 240 0 0 1 1024 112v544A240 240 0 0 1 784 896z m163.2-784a163.2 163.2 0 0 0-163.2-163.2h-544a163.2 163.2 0 0 0-163.2 163.2v544A163.2 163.2 0 0 0 240 819.2h544a163.2 163.2 0 0 0 163.2-163.2zM729.6 422.4H569.6a18.56 18.56 0 0 0-19.2 19.2V601.6a38.4 38.4 0 0 1-76.8 0v-160a18.56 18.56 0 0 0-19.2-19.2H294.4a38.4 38.4 0 0 1 0-76.8h160a18.56 18.56 0 0 0 19.2-19.2v-160a38.4 38.4 0 0 1 76.8 0V326.4a18.56 18.56 0 0 0 19.2 19.2h160a38.4 38.4 0 0 1 0 76.8z"  horiz-adv-x="1024" />

    
    <glyph glyph-name="suofang" unicode="&#59337;" d="M912.16767052 823.93588622l-240.47342934-239.85205097 0.62137837 136.08186312c0.62137837 11.18481067-8.69929718 21.12686459-19.88410785 21.1268646h-14.29170252c-11.18481067-0.62137837-20.50548622-6.83516208-21.12686459-18.64135112l-0.62137837-201.94797037 0.62137837-0.62137837-1.24275674-10.56343229c0-5.59240533 1.24275675-10.5634323 4.97102697-14.29170252 3.72827022-3.72827022 8.69929718-6.2137837 14.29170251-5.59240533h11.18481067l200.70521363-0.62137838c11.18481067 0.62137837 20.50548622 9.32067555 21.12686459 21.12686459v14.29170252c-1.86413511 13.67032415-12.42756741 21.12686459-23.61237807 21.1268646h-132.3535929l239.85205097 238.60929422c11.18481067 11.18481067 11.18481067 28.58340503 0 39.7682157-11.18481067 11.18481067-28.58340503 11.18481067-39.7682157 0zM111.21095111-55.93588622000004l240.47342934 238.60929422-0.62137837-135.46048475c-0.62137837-11.18481067 8.69929718-21.12686459 19.88410784-21.12686458h15.53445926c11.18481067 0.62137837 20.50548622 6.83516208 21.1268646 18.64135111l0.62137837 202.56934874-0.62137837 0.62137837 1.24275674 10.56343229c0 5.59240533-1.24275675 10.5634323-4.97102697 14.29170252-3.72827022 3.72827022-8.69929718 6.2137837-14.29170252 5.59240533h-10.56343228-0.62137838l-201.326592 0.62137838c-11.18481067-0.62137837-20.50548622-9.32067555-21.12686459-21.12686459v-14.29170252c1.86413511-13.67032415 12.42756741-21.12686459 23.61237807-21.1268646l132.3535929-0.62137837-239.85205097-238.60929422c-11.18481067-11.18481067-11.18481067-28.58340503 0-39.7682157 10.5634323-10.5634323 28.58340503-10.5634323 39.14683733 0.62137837z m505.18061511 303.85402311l0.62137837-202.56934874c0.62137837-11.18481067 9.32067555-18.01997275 21.12686459-18.64135112h14.29170252c11.18481067-0.62137837 20.50548622 9.32067555 19.88410785 21.1268646l-0.62137837 136.08186312 240.47342934-239.2306726c11.18481067-11.18481067 28.58340503-11.18481067 39.7682157 0 11.18481067 11.18481067 11.18481067 28.58340503 0 39.7682157L712.08383525 222.44162370000004l132.3535929 0.62137838c11.18481067-0.62137837 21.74824297 7.45654045 23.61237807 21.12686459v14.29170251c-0.62137837 11.18481067-9.32067555 20.50548622-21.12686459 21.1268646l-200.70521363-0.62137837h-11.18481067c-5.59240533 0-10.5634323-1.86413511-14.29170251-5.59240533-3.72827022-3.72827022-4.97102697-8.69929718-4.97102697-14.29170253l1.24275674-10.5634323c0-0.62137837-0.62137837-0.62137837-0.62137837-0.62137836z m-304.47540147 297.01886103l-132.3535929-0.62137837c-11.18481067 0.62137837-21.74824297-7.45654045-23.61237807-21.12686458v-14.29170252c0.62137837-11.18481067 9.32067555-20.50548622 21.12686459-21.1268646l201.326592 1.86413512h11.18481066c5.59240533 0 10.5634323 1.86413511 14.29170252 5.59240533 3.72827022 3.72827022 4.97102697 8.69929718 4.97102697 14.29170252l-1.24275674 10.56343229 0.62137837 0.62137837-0.62137837 202.56934874c0 11.18481067-9.32067555 18.01997275-21.1268646 18.64135111h-15.53445926c-11.18481067 0.62137837-20.50548622-9.32067555-19.88410784-21.12686458l0.62137837-135.46048475-239.85205097 238.60929422c-11.18481067 11.18481067-28.58340503 11.18481067-39.7682157 0-11.18481067-11.18481067-11.18481067-28.58340503 0-39.7682157l239.85205097-239.2306726z"  horiz-adv-x="1024" />

    
    <glyph glyph-name="suofang1" unicode="&#59025;" d="M94.1 355.1l290.1-3.8c15.4 0.1 27.7 12.7 27.6 28.1-0.1 15.4-12.7 27.7-28.1 27.6l-292.9 3.8 127.8 130.1c10.8 11 10.6 28.6-0.4 39.3-11 10.8-28.6 10.6-39.3-0.4L19.4 417.4c-3.7-3.7-6.1-8.3-7.2-13-5.7-5.2-9.2-12.6-9.2-20.9 0.1-8.3 3.8-15.7 9.6-20.7 1.2-4.7 3.7-9.2 7.5-12.9l162.5-159.5c11-10.8 28.6-10.6 39.3 0.4 10.8 11 10.6 28.6-0.4 39.3l-127.4 125zM1014.4 402.5c-1.2 4.7-3.7 9.2-7.5 12.9L844.5 575c-11 10.8-28.6 10.6-39.3-0.4-10.8-11-10.6-28.6 0.4-39.3l127.4-125-290.2 3.7c-15.4-0.1-27.7-12.7-27.6-28.1 0.1-15.4 12.7-27.7 28.1-27.6l292.9-3.8-127.8-130.1c-10.8-11-10.6-28.6 0.4-39.3 11-10.8 28.6-10.6 39.3 0.4L1007.6 348c3.7 3.7 6.1 8.3 7.2 13 5.7 5.2 9.2 12.6 9.2 20.9-0.1 8.2-3.8 15.6-9.6 20.6zM321.6 674.3c11-10.8 28.6-10.6 39.3 0.4L485.9 802l-3.8-290.1c0.1-15.4 12.7-27.7 28.1-27.6 15.4 0.1 27.7 12.7 27.6 28.1l3.8 292.9 130.1-127.8c11-10.8 28.6-10.6 39.3 0.4 10.8 11 10.6 28.6-0.4 39.3L548.3 876.8c-3.7 3.7-8.3 6.1-13 7.2-5.2 5.7-12.6 9.2-20.9 9.2-8.3-0.1-15.7-3.8-20.7-9.6-4.7-1.2-9.2-3.7-12.9-7.5L321.2 713.7c-10.8-11-10.6-28.6 0.4-39.4zM705.4 91c-11 10.8-28.6 10.6-39.3-0.4l-125-127.4 3.8 290.1c-0.1 15.4-12.7 27.7-28.1 27.6-15.4-0.1-27.7-12.7-27.6-28.1L485.4-40 355.2 87.8c-11 10.8-28.6 10.6-39.3-0.4-10.8-11-10.6-28.6 0.4-39.3l162.5-159.5c3.7-3.7 8.3-6.1 13-7.2 5.2-5.7 12.6-9.2 20.9-9.2 8.3 0.1 15.7 3.8 20.7 9.6 4.7 1.2 9.2 3.7 12.9 7.5l159.5 162.5c10.8 10.8 10.6 28.4-0.4 39.2z"  horiz-adv-x="1024" />

    
    <glyph glyph-name="jia" unicode="&#59127;" d="M539.245041 411.427485V790.547096c0 15.446965-12.527854 27.853189-27.853189 27.853189-15.446965 0-27.853189-12.527854-27.853189-27.853189v-379.119611H104.419052c-15.446965 0-27.853189-12.527854-27.853189-27.853189 0-15.446965 12.527854-27.853189 27.853189-27.853189h379.119611v-379.11961c0-15.446965 12.527854-27.853189 27.853189-27.85319 7.662668 0 14.717187 3.162371 19.704003 8.149187 4.986816 5.108445 8.149186 12.041335 8.149186 19.704003V355.721107H918.364651c7.662668 0 14.717187 3.162371 19.704003 8.149186s8.149186 12.041335 8.149187 19.704003c0 15.446965-12.527854 27.853189-27.85319 27.853189H539.245041z m0 0"  horiz-adv-x="1024" />

    
    <glyph glyph-name="add" unicode="&#59024;" d="M1020.937188 524.889332h-371.621136V896H371.621137v-371.110668H0v-278.205384h371.621137v-371.621136h277.694915v371.621136H1020.937188V524.889332z"  horiz-adv-x="1024" />

    
    <glyph glyph-name="huifu-" unicode="&#59023;" d="M173.6 444.48v70.08h676.8v-70.08zM608.48 133.76V64h243.52v69.76z m0 190.4v-70.08h243.52v70.08zM497.76 256v2.56a17.6 17.6 0 0 1-2.88 4.48l-122.56 122.24a35.2 35.2 0 0 1-24.96 10.24 34.88 34.88 0 0 1-26.88-58.88l64-62.4H201.12a200.64 200.64 0 1 1 0-402.24H416.48v71.36H201.12a130.56 130.56 0 1 0 0 260.8H384.48l-64-64a34.56 34.56 0 0 1-7.68-38.08 35.2 35.2 0 0 1 32-21.76 36.48 36.48 0 0 1 24.96 10.24l122.56 122.56a17.92 17.92 0 0 1 3.2 4.8v1.92l2.24 2.88a36.16 36.16 0 0 1 0 28.8l-3.2 4.16z m352 377.92V704H173.6v-69.12zM1024.48 896H0.48v-483.2h70.08V825.28h882.56v-881.92H608.48V-128h416z m0 0"  horiz-adv-x="1024" />

    
    <glyph glyph-name="shanchu-" unicode="&#59019;" d="M800 22.08a62.08 62.08 0 0 0-62.08-64H288a64 64 0 0 0-62.4 64V684.48H800zM352 796.48a12.48 12.48 0 0 0 12.8 12.8h297.6a12.48 12.48 0 0 0 12.8-12.8v-37.76H349.76z m636.8-37.76h-236.8V796.48A87.36 87.36 0 0 1 662.4 883.52h-299.84A87.04 87.04 0 0 1 275.2 796.48v-37.76H37.44a37.76 37.76 0 0 1 0-75.2h112.32v-661.44A136.96 136.96 0 0 1 288-115.52h448a137.6 137.6 0 0 1 137.6 137.6V684.48h112A37.44 37.44 0 0 1 1024 721.92a36.8 36.8 0 0 1-37.44 36.8zM512 72.32a37.76 37.76 0 0 1 37.76 37.76v400a37.76 37.76 0 0 1-75.2 0v-400A37.44 37.44 0 0 1 512 72.32m-175.04 0a37.76 37.76 0 0 1 37.44 37.76v400a37.76 37.76 0 0 1-75.2 0v-400a39.04 39.04 0 0 1 37.76-37.76m352 0a37.76 37.76 0 0 1 37.44 37.76v400a37.76 37.76 0 0 1-75.2 0v-400a37.76 37.76 0 0 1 37.76-37.76"  horiz-adv-x="1024" />

    
    <glyph glyph-name="shanchu-1" unicode="&#59020;" d="M873.166007 896H357.168869a95.96971 95.96971 0 0 1-95.96971-95.96971v-169.866385a39.027682 39.027682 0 0 1 78.055364 0V800.03029a18.234245 18.234245 0 0 0 18.234245 17.914346h383.878838L566.382835 745.007657a133.397896 133.397896 0 0 1-76.455868-114.843752v-528.153302h-132.758098a18.234245 18.234245 0 0 0-18.234245 17.914346v170.186285a39.027682 39.027682 0 0 1-78.055364 0v-170.186285a95.96971 95.96971 0 0 1 95.96971-95.96971h132.758098v-74.536474a76.455869 76.455869 0 0 1 31.989903-65.899201 70.697686 70.697686 0 0 1 39.347581-11.516365 89.571729 89.571729 0 0 1 34.549095 7.357678l295.906605 125.40042a133.717795 133.717795 0 0 1 76.455868 114.843753V800.03029a95.96971 95.96971 0 0 1-94.690113 95.96971z m18.234245-97.569205v-678.505846a55.662432 55.662432 0 0 0-27.511317-43.506269l-293.98721-124.760622V630.483804a55.022633 55.022633 0 0 0 27.191417 41.586874zM340.534119 472.133783l-110.045267 99.1687a24.312326 24.312326 0 0 1-38.387884-17.274548v-7.997476a23.352629 23.352629 0 0 0-23.992427-22.392932h-89.571729a23.352629 23.352629 0 0 1-23.992428-22.073033v-93.730417a23.352629 23.352629 0 0 1 23.992428-22.073033h88.931931a23.352629 23.352629 0 0 0 23.992427-22.073033v-8.317375a24.312326 24.312326 0 0 1 39.027682-17.274548l110.045267 99.1687a21.113336 21.113336 0 0 1 0 34.868995z"  horiz-adv-x="1024" />

    
    <glyph glyph-name="yanjing" unicode="&#59021;" d="M512 574.2933330000001A189.866667 189.866667 0 1 1 701.866667 384 189.866667 189.866667 0 0 1 512 574.2933330000001z m0-308.906666A119.466667 119.466667 0 1 0 631.466667 384a119.466667 119.466667 0 0 0-119.466667-118.613333z m502.613333 136.96C930.133333 562.773333 730.88 725.333333 512 725.333333S93.866667 562.346667 10.24 402.346667L0 384l10.24-18.346667C94.293333 205.22666700000002 293.546667 42.66666699999996 512 42.66666699999996s417.706667 162.986667 502.613333 322.56L1024 384zM512 118.18666700000006c-180.053333 0-350.72 133.973333-426.666667 265.813333 76.373333 132.266667 246.613333 265.813333 426.666667 265.813333S862.72 516.266667 938.666667 384c-75.946667-131.84-246.613333-265.813333-426.666667-265.813333z"  horiz-adv-x="1024" />

    
    <glyph glyph-name="biyan" unicode="&#59022;" d="M1006.506667 617.8133330000001a46.08 46.08 0 0 1-28.586667 10.24 47.786667 47.786667 0 0 1-37.546667-18.773333 868.693333 868.693333 0 0 0-134.826666-121.6 682.666667 682.666667 0 0 0-133.973334-75.946667 413.866667 413.866667 0 0 0-158.72-34.133333 400.213333 400.213333 0 0 0-156.16 34.56 689.92 689.92 0 0 0-135.253333 76.8A896 896 0 0 0 85.333333 610.986667a48.213333 48.213333 0 0 1-38.4 16.213333 46.933333 46.933333 0 0 1-30.72-11.093333 47.36 47.36 0 0 1-5.12-66.133334 793.173333 793.173333 0 0 1 106.24-101.12l-82.346666-85.333333a45.653333 45.653333 0 0 1-13.226667-33.706667 47.786667 47.786667 0 0 1 14.08-31.146666 36.693333 36.693333 0 0 1 30.72-14.933334 45.653333 45.653333 0 0 1 33.28 14.08l92.16 93.866667a705.706667 705.706667 0 0 1 146.773333-76.373333l-34.56-116.48a47.36 47.36 0 0 1 32.426667-58.453334h14.506667a46.933333 46.933333 0 0 1 45.653333 35.84l34.133333 116.48a521.813333 521.813333 0 0 1 81.493334-7.68 469.333333 469.333333 0 0 1 81.066666 7.253334l34.56-114.773334a47.786667 47.786667 0 0 1 45.226667-35.84 26.453333 26.453333 0 0 1 14.08 2.986667 46.933333 46.933333 0 0 1 31.146667 58.453333L682.666667 317.44000000000005a706.986667 706.986667 0 0 1 147.2 75.946667L920.746667 298.66666699999996a46.506667 46.506667 0 0 1 65.706666 0 47.786667 47.786667 0 0 1 2.133334 66.133333l-81.92 85.333333a733.013333 733.013333 0 0 1 104.106666 95.146667l3.413334 5.12a50.346667 50.346667 0 0 1-9.386667 65.706667z"  horiz-adv-x="1024" />

    
    <glyph glyph-name="tubiao-" unicode="&#59001;" d="M512 896a512 512 0 1 1 512-512A512 512 0 0 1 512 896z m0-960a448 448 0 1 0 448 448 448 448 0 0 0-448-448zM777.216 296.192l-219.008 101.632a24.32 24.32 0 0 0-14.208 22.272V707.584a32 32 0 1 1-64 0v-322.816a33.152 33.152 0 0 1 19.2-30.08l251.008-116.608a32 32 0 0 1 42.496 15.616 31.872 31.872 0 0 1-15.488 42.496z"  horiz-adv-x="1024" />

    
    <glyph glyph-name="tubiao-1" unicode="&#59002;" d="M512 896a512 512 0 1 1 512-512A512 512 0 0 1 512 896z m0-960a448 448 0 1 0 448 448 448 448 0 0 0-448-448zM777.216 296.192l-219.008 101.632a24.32 24.32 0 0 0-14.208 22.272V707.584a32 32 0 1 1-64 0v-322.816a33.152 33.152 0 0 1 19.2-30.08l251.008-116.608a32 32 0 0 1 42.496 15.616 31.872 31.872 0 0 1-15.488 42.496z"  horiz-adv-x="1024" />

    
    <glyph glyph-name="tubiao-2" unicode="&#59003;" d="M480.001024 342.912h-71.552a32 32 0 0 1 0-64h71.552a32 32 0 0 1 0 64zM768.001024 384a256 256 0 1 1 256-256 256 256 0 0 1-256 256z m-49.792-268.8l42.368-179.2a192 192 0 1 0 132.352 337.536l-168.704-140.8a18.304 18.304 0 0 1-6.016-17.536z m106.112-170.752l-21.888 92.672a12.8 12.8 0 0 0 19.584 12.8l81.664-57.6a192 192 0 0 0-79.36-47.872z m116.352 100.096l-100.864 71.68a18.176 18.176 0 0 0-1.152 28.928L934.401024 224.384a190.464 190.464 0 0 0 6.784-179.2zM1017.857024 499.2l-25.6 70.4-93.952 265.088A92.416 92.416 0 0 1 811.265024 896H212.737024a92.416 92.416 0 0 1-87.04-61.312L6.145024 499.2A107.136 107.136 0 0 1 0.001024 463.232v-338.688A124.032 124.032 0 0 1 124.033024 0h319.104a33.28 33.28 0 0 1 33.664 28.672A32 32 0 0 1 444.929024 64H129.409024A65.408 65.408 0 0 0 64.001024 129.92V441.472a40.192 40.192 0 0 0 40.192 40.192h815.616A40.192 40.192 0 0 0 960.001024 441.472 32 32 0 0 1 991.873024 409.6 32 32 0 0 1 1024.001024 441.6v21.632a107.136 107.136 0 0 1-6.144 35.968zM181.889024 801.408A45.952 45.952 0 0 0 225.153024 832h573.696a45.952 45.952 0 0 0 43.264-30.592l8.064-22.528H173.825024z m-30.848-86.528h721.92l18.944-53.248H132.097024zM512.001024 545.664H90.753024l18.56 51.968h805.376l10.112-28.16 8.448-23.808z"  horiz-adv-x="1024" />

    
    <glyph glyph-name="tubiao-3" unicode="&#59004;" d="M480.001024 342.912h-71.552a32 32 0 0 1 0-64h71.552a32 32 0 0 1 0 64zM768.001024 384a256 256 0 1 1 256-256 256 256 0 0 1-256 256z m-49.792-268.8l42.368-179.2a192 192 0 1 0 132.352 337.536l-168.704-140.8a18.304 18.304 0 0 1-6.016-17.536z m106.112-170.752l-21.888 92.672a12.8 12.8 0 0 0 19.584 12.8l81.664-57.6a192 192 0 0 0-79.36-47.872z m116.352 100.096l-100.864 71.68a18.176 18.176 0 0 0-1.152 28.928L934.401024 224.384a190.464 190.464 0 0 0 6.784-179.2zM1017.857024 499.2l-25.6 70.4-93.952 265.088A92.416 92.416 0 0 1 811.265024 896H212.737024a92.416 92.416 0 0 1-87.04-61.312L6.145024 499.2A107.136 107.136 0 0 1 0.001024 463.232v-338.688A124.032 124.032 0 0 1 124.033024 0h319.104a33.28 33.28 0 0 1 33.664 28.672A32 32 0 0 1 444.929024 64H129.409024A65.408 65.408 0 0 0 64.001024 129.92V441.472a40.192 40.192 0 0 0 40.192 40.192h815.616A40.192 40.192 0 0 0 960.001024 441.472 32 32 0 0 1 991.873024 409.6 32 32 0 0 1 1024.001024 441.6v21.632a107.136 107.136 0 0 1-6.144 35.968zM181.889024 801.408A45.952 45.952 0 0 0 225.153024 832h573.696a45.952 45.952 0 0 0 43.264-30.592l8.064-22.528H173.825024z m-30.848-86.528h721.92l18.944-53.248H132.097024zM512.001024 545.664H90.753024l18.56 51.968h805.376l10.112-28.16 8.448-23.808z"  horiz-adv-x="1024" />

    
    <glyph glyph-name="tubiao-4" unicode="&#59005;" d="M866.048 864H157.952A158.208 158.208 0 0 1 0 706.048v-644.096A158.208 158.208 0 0 1 157.952-96h708.096A158.208 158.208 0 0 1 1024 61.952V706.048A158.208 158.208 0 0 1 866.048 864zM960 61.952a93.952 93.952 0 0 0-93.952-93.952H157.952A93.952 93.952 0 0 0 64 61.952V706.048a93.952 93.952 0 0 0 93.952 93.952h708.096A93.952 93.952 0 0 0 960 706.048zM804.224 654.848H419.2a32 32 0 0 1 0-64h385.024a32 32 0 0 1 0 64zM804.224 409.6H419.2a32 32 0 0 1 0-64h385.024a32 32 0 0 1 0 64zM804.224 164.352H419.2a32 32 0 0 1 0-64h385.024a32 32 0 0 1 0 64zM252.8 622.848m-51.2 0a51.2 51.2 0 1 1 102.4 0 51.2 51.2 0 1 1-102.4 0ZM252.8 375.936m-51.2 0a51.2 51.2 0 1 1 102.4 0 51.2 51.2 0 1 1-102.4 0ZM252.8 132.352m-51.2 0a51.2 51.2 0 1 1 102.4 0 51.2 51.2 0 1 1-102.4 0Z"  horiz-adv-x="1024" />

    
    <glyph glyph-name="tubiao-5" unicode="&#59006;" d="M352 131.2a32 32 0 0 1 32 32V204.8a15.488 15.488 0 0 0 15.488 15.488h42.112a32 32 0 0 1 0 64h-42.112A15.488 15.488 0 0 0 384 300.288v42.112a32 32 0 0 1-64 0v-42.112a15.488 15.488 0 0 0-15.488-15.488H262.4a32 32 0 0 1 0-64h42.112A15.488 15.488 0 0 0 320 204.8v-42.112a32 32 0 0 1 32-31.488zM768 384a256 256 0 1 1 256-256 256 256 0 0 1-256 256z m-49.792-268.8l42.368-179.2a192 192 0 1 0 132.352 337.536l-168.704-140.8a18.304 18.304 0 0 1-6.016-17.536z m106.112-170.752l-21.888 92.672a12.8 12.8 0 0 0 19.584 12.8l81.664-57.6a192 192 0 0 0-79.36-47.872z m116.352 100.096l-100.864 71.68a18.176 18.176 0 0 0-1.152 28.928L934.4 224.384a190.464 190.464 0 0 0 6.784-179.2zM661.504 405.12A42.496 42.496 0 0 1 704 448v33.536A158.464 158.464 0 0 1 545.536 640h-0.768A19.968 19.968 0 0 0 524.8 659.968V704h-6.912A83.712 83.712 0 0 1 601.6 787.712V812.288A83.712 83.712 0 0 1 517.888 896H185.984A83.712 83.712 0 0 1 102.4 812.288v-24.576A83.712 83.712 0 0 1 185.984 704H179.2v-44.032A19.968 19.968 0 0 0 159.232 640h-0.768A158.592 158.592 0 0 1 0 481.536v-533.504A76.032 76.032 0 0 1 76.032-128H441.6a32 32 0 0 1 0 64H87.168A23.168 23.168 0 0 0 64-40.832v76.8h377.6a32 32 0 0 1 0 64H64V405.12h597.504zM166.4 800A32 32 0 0 0 198.4 832h307.2a32 32 0 0 0 0-64h-307.2A32 32 0 0 0 166.4 800z m467.456-330.88H64v12.8A94.336 94.336 0 0 0 158.464 576h8.576A76.8 76.8 0 0 1 243.2 652.16V704h217.6v-51.84A76.8 76.8 0 0 1 537.6 576h2.432A100.608 100.608 0 0 0 640 475.392a6.272 6.272 0 0 0-6.144-6.272z"  horiz-adv-x="1024" />

    
    <glyph glyph-name="tubiao-6" unicode="&#59007;" d="M768 384a256 256 0 1 1 256-256 256 256 0 0 1-256 256z m-49.792-268.8l42.368-179.2a192 192 0 1 0 132.352 337.536l-168.704-140.8a18.304 18.304 0 0 1-6.016-17.536z m106.112-170.752l-21.888 92.672a12.8 12.8 0 0 0 19.584 12.8l81.664-57.6a192 192 0 0 0-79.36-47.872z m116.352 100.096l-100.864 71.68a18.176 18.176 0 0 0-1.152 28.928L934.4 224.384a190.464 190.464 0 0 0 6.784-179.2zM934.4 729.6H793.6V810.624A85.376 85.376 0 0 1 708.224 896H315.776A85.376 85.376 0 0 1 230.4 810.624V729.6H89.6a89.6 89.6 0 0 1-89.6-89.6v-524.8a89.6 89.6 0 0 1 89.6-89.6h358.4a32 32 0 0 1 0 64H100.352A36.352 36.352 0 0 0 64 125.952V488.576h896v-88.576a32 32 0 0 1 64 0V640a89.6 89.6 0 0 1-89.6 89.6zM294.4 789.76A42.24 42.24 0 0 0 336.64 832h350.72A42.24 42.24 0 0 0 729.6 789.76V729.6H294.4z m665.6-237.184H64v76.8A36.352 36.352 0 0 0 100.352 665.6h823.296A36.352 36.352 0 0 0 960 629.248z"  horiz-adv-x="1024" />

    
    <glyph glyph-name="tubiao-7" unicode="&#59008;" d="M768 384a256 256 0 1 1 256-256 256 256 0 0 1-256 256z m-49.792-268.8l42.368-179.2a192 192 0 1 0 132.352 337.536l-168.704-140.8a18.304 18.304 0 0 1-6.016-17.536z m106.112-170.752l-21.888 92.672a12.8 12.8 0 0 0 19.584 12.8l81.664-57.6a192 192 0 0 0-79.36-47.872z m116.352 100.096l-100.864 71.68a18.176 18.176 0 0 0-1.152 28.928L934.4 224.384a190.464 190.464 0 0 0 6.784-179.2zM326.4 246.4a32 32 0 0 1 32 32V358.4a15.488 15.488 0 0 0 15.488 15.488h80.512a32 32 0 0 1 0 64h-80.512A15.488 15.488 0 0 0 358.4 453.888v80.512a32 32 0 0 1-64 0v-80.512a15.488 15.488 0 0 0-15.488-15.488H198.4a32 32 0 0 1 0-64h80.512A15.488 15.488 0 0 0 294.4 358.4v-80.512a32 32 0 0 1 32-31.488zM934.4 729.6H793.6V810.624A85.376 85.376 0 0 1 708.224 896H315.776A85.376 85.376 0 0 1 230.4 810.624V729.6H89.6a89.6 89.6 0 0 1-89.6-89.6v-524.8a89.6 89.6 0 0 1 89.6-89.6h358.4a32 32 0 0 1 0 64H100.352A36.352 36.352 0 0 0 64 125.952V629.248A36.352 36.352 0 0 0 100.352 665.6h823.296A36.352 36.352 0 0 0 960 629.248v-229.248a32 32 0 0 1 64 0V640a89.6 89.6 0 0 1-89.6 89.6z m-204.8 0H294.4V789.76A42.24 42.24 0 0 0 336.64 832h350.72A42.24 42.24 0 0 0 729.6 789.76z"  horiz-adv-x="1024" />

    
    <glyph glyph-name="tubiao-8" unicode="&#59009;" d="M767.989728 383.993152a255.996576 255.996576 0 1 1 255.996576-255.996576 255.996576 255.996576 0 0 1-255.996576 255.996576z m-49.791334-268.796405l42.367433-179.197603a191.997432 191.997432 0 1 0 132.35023 337.531486l-168.701743-140.798117a18.303755 18.303755 0 0 1-6.01592-17.535766z m106.110581-170.749716l-21.887707 92.670761a12.799829 12.799829 0 0 0 19.583738 12.799828l81.662907-57.599229a191.997432 191.997432 0 0 0-79.358938-47.87136z m116.350444 100.094661l-100.862651 71.679042a18.175757 18.175757 0 0 0-1.151985 28.927613L934.387503 224.379287a190.461453 190.461453 0 0 0 6.783909-179.197603zM481.913554-62.97687a447.994008 447.994008 0 1 0 477.04962 477.04962 31.999572 31.999572 0 1 1 63.999144 3.967947 511.993152 511.993152 0 1 1-545.016711-544.888712 31.999572 31.999572 0 1 1 3.967947 63.999144zM703.222594 634.229805a31.743575 31.743575 0 0 1-45.055397 0L511.993152 488.311757 365.819107 634.357803a31.615577 31.615577 0 0 1-43.775414 1.023987l-1.279983-1.151985a32.255569 32.255569 0 0 1 0-45.311394l145.918048-145.918048-93.566748-93.694747a129.022274 129.022274 0 0 1-113.150487 8.95988A122.366363 122.366363 0 0 1 187.261495 281.594522a128.638279 128.638279 0 0 1 163.965807-163.325816 121.726372 121.726372 0 0 1 75.902985 72.831026 127.998288 127.998288 0 0 1-8.831882 113.022488L511.993152 397.816967l33.151557-33.279555a33.535551 33.535551 0 0 1 43.647416-3.583952 31.999572 31.999572 0 0 1 2.431967 47.487365l-34.431539 34.559538L703.222594 588.790413a32.255569 32.255569 0 0 1 0 45.439392zM364.283128 206.97152a55.423259 55.423259 0 0 0-23.93568-23.93568 65.02313 65.02313 0 0 0-88.318819 88.318819 54.783267 54.783267 0 0 0 23.93568 23.935679 64.895132 64.895132 0 0 0 88.318819-88.318818z"  horiz-adv-x="1024" />

    
    <glyph glyph-name="tubiao-9" unicode="&#59010;" d="M352 140.8a32 32 0 0 1 32 32v42.112A15.488 15.488 0 0 0 399.488 230.4h42.112a32 32 0 0 1 0 64h-42.112a15.488 15.488 0 0 0-15.488 15.488V352a32 32 0 0 1-64 0v-42.112A15.488 15.488 0 0 0 304.512 294.4h-42.112a32 32 0 1 1 0-64h42.112a15.488 15.488 0 0 0 15.488-15.488v-42.112a32 32 0 0 1 32-32zM661.504 405.12A42.496 42.496 0 0 1 704 448v33.536A158.464 158.464 0 0 1 545.536 640h-0.896a19.84 19.84 0 0 0-19.84 19.968V704h-6.912a83.712 83.712 0 0 1 83.712 83.712V812.288A83.712 83.712 0 0 1 517.888 896H185.984a83.584 83.584 0 0 1-83.584-83.712v-24.576A83.584 83.584 0 0 1 185.984 704h-6.784v-44.032A19.968 19.968 0 0 0 159.232 640h-0.768A158.592 158.592 0 0 1 0 481.536v-533.504A76.032 76.032 0 0 1 76.032-128h365.568a32 32 0 0 1 0 64H87.04a23.168 23.168 0 0 0-23.04 23.168v76.8h377.6a32 32 0 0 1 0 64H64V405.12h597.504zM166.4 800a32 32 0 0 0 32 32h307.2a32 32 0 0 0 0-64h-307.2a32 32 0 0 0-32 32z m467.328-330.88H64v12.8A94.336 94.336 0 0 0 158.464 576H167.552a76.8 76.8 0 0 1 76.16 76.16V704h217.6v-51.84a76.8 76.8 0 0 1 76.8-76.16H538.752a100.608 100.608 0 0 0 100.736-100.608 6.272 6.272 0 0 0-5.76-6.272zM922.752 345.6H617.472a103.296 103.296 0 0 1-103.168-103.168v-267.264A103.296 103.296 0 0 1 617.472-128H922.752a103.296 103.296 0 0 1 103.168 103.168V242.432A103.296 103.296 0 0 1 922.752 345.6z m-118.016-409.6h-55.168a20.352 20.352 0 1 0 0 40.576h55.168a20.352 20.352 0 0 0 0-40.576z m2.816 104.576h-61.312a17.024 17.024 0 1 0 0 34.048H807.552a17.024 17.024 0 0 0 0-34.048z m0 98.048h-61.312a17.024 17.024 0 0 0 0 34.048H807.552a17.024 17.024 0 0 0 0-34.048z m154.752-163.456A39.168 39.168 0 0 0 922.752-64h-33.792V201.984a34.688 34.688 0 0 1-34.56 34.688H699.904a34.816 34.816 0 0 1-34.688-34.688V-64h-47.744a39.168 39.168 0 0 0-39.168 39.168V242.432A39.168 39.168 0 0 0 617.472 281.6H922.752a39.168 39.168 0 0 0 39.168-39.168z"  horiz-adv-x="1025" />

    
    <glyph glyph-name="tubiao-10" unicode="&#59011;" d="M768 384a256 256 0 1 1 256-256 256 256 0 0 1-256 256z m-49.792-268.8l42.368-179.2a192 192 0 1 0 132.352 337.536l-168.704-140.8a18.304 18.304 0 0 1-6.016-17.536z m106.112-170.752l-21.888 92.672a12.8 12.8 0 0 0 19.584 12.8l81.664-57.6a192 192 0 0 0-79.36-47.872z m116.352 100.096l-100.864 71.68a18.176 18.176 0 0 0-1.152 28.928L934.4 224.384a190.464 190.464 0 0 0 6.784-179.2zM326.4 246.4a32 32 0 0 1 32 32V358.4a15.488 15.488 0 0 0 15.488 15.488h80.512a32 32 0 0 1 0 64h-80.512A15.488 15.488 0 0 0 358.4 453.888v80.512a32 32 0 0 1-64 0v-80.512a15.488 15.488 0 0 0-15.488-15.488H198.4a32 32 0 0 1 0-64h80.512A15.488 15.488 0 0 0 294.4 358.4v-80.512a32 32 0 0 1 32-31.488zM934.4 729.6H793.6V810.624A85.376 85.376 0 0 1 708.224 896H315.776A85.376 85.376 0 0 1 230.4 810.624V729.6H89.6a89.6 89.6 0 0 1-89.6-89.6v-524.8a89.6 89.6 0 0 1 89.6-89.6h358.4a32 32 0 0 1 0 64H100.352A36.352 36.352 0 0 0 64 125.952V629.248A36.352 36.352 0 0 0 100.352 665.6h823.296A36.352 36.352 0 0 0 960 629.248v-229.248a32 32 0 0 1 64 0V640a89.6 89.6 0 0 1-89.6 89.6z m-204.8 0H294.4V789.76A42.24 42.24 0 0 0 336.64 832h350.72A42.24 42.24 0 0 0 729.6 789.76z"  horiz-adv-x="1024" />

    
    <glyph glyph-name="tubiao-11" unicode="&#59012;" d="M866.048 864H157.952A158.208 158.208 0 0 1 0 706.048v-644.096A158.208 158.208 0 0 1 157.952-96h708.096A158.208 158.208 0 0 1 1024 61.952V706.048A158.208 158.208 0 0 1 866.048 864zM960 61.952a93.952 93.952 0 0 0-93.952-93.952H157.952A93.952 93.952 0 0 0 64 61.952V706.048a93.952 93.952 0 0 0 93.952 93.952h708.096A93.952 93.952 0 0 0 960 706.048zM804.224 654.848H419.2a32 32 0 0 1 0-64h385.024a32 32 0 0 1 0 64zM804.224 409.6H419.2a32 32 0 0 1 0-64h385.024a32 32 0 0 1 0 64zM804.224 164.352H419.2a32 32 0 0 1 0-64h385.024a32 32 0 0 1 0 64zM252.8 622.848m-51.2 0a51.2 51.2 0 1 1 102.4 0 51.2 51.2 0 1 1-102.4 0ZM252.8 375.936m-51.2 0a51.2 51.2 0 1 1 102.4 0 51.2 51.2 0 1 1-102.4 0ZM252.8 132.352m-51.2 0a51.2 51.2 0 1 1 102.4 0 51.2 51.2 0 1 1-102.4 0Z"  horiz-adv-x="1024" />

    
    <glyph glyph-name="tubiao-12" unicode="&#59013;" d="M352 140.8a32 32 0 0 1 32 32v42.112A15.488 15.488 0 0 0 399.488 230.4h42.112a32 32 0 0 1 0 64h-42.112a15.488 15.488 0 0 0-15.488 15.488V352a32 32 0 0 1-64 0v-42.112A15.488 15.488 0 0 0 304.512 294.4h-42.112a32 32 0 1 1 0-64h42.112a15.488 15.488 0 0 0 15.488-15.488v-42.112a32 32 0 0 1 32-32zM661.504 405.12A42.496 42.496 0 0 1 704 448v33.536A158.464 158.464 0 0 1 545.536 640h-0.896a19.84 19.84 0 0 0-19.84 19.968V704h-6.912a83.712 83.712 0 0 1 83.712 83.712V812.288A83.712 83.712 0 0 1 517.888 896H185.984a83.584 83.584 0 0 1-83.584-83.712v-24.576A83.584 83.584 0 0 1 185.984 704h-6.784v-44.032A19.968 19.968 0 0 0 159.232 640h-0.768A158.592 158.592 0 0 1 0 481.536v-533.504A76.032 76.032 0 0 1 76.032-128h365.568a32 32 0 0 1 0 64H87.04a23.168 23.168 0 0 0-23.04 23.168v76.8h377.6a32 32 0 0 1 0 64H64V405.12h597.504zM166.4 800a32 32 0 0 0 32 32h307.2a32 32 0 0 0 0-64h-307.2a32 32 0 0 0-32 32z m467.328-330.88H64v12.8A94.336 94.336 0 0 0 158.464 576H167.552a76.8 76.8 0 0 1 76.16 76.16V704h217.6v-51.84a76.8 76.8 0 0 1 76.8-76.16H538.752a100.608 100.608 0 0 0 100.736-100.608 6.272 6.272 0 0 0-5.76-6.272zM922.752 345.6H617.472a103.296 103.296 0 0 1-103.168-103.168v-267.264A103.296 103.296 0 0 1 617.472-128H922.752a103.296 103.296 0 0 1 103.168 103.168V242.432A103.296 103.296 0 0 1 922.752 345.6z m-118.016-409.6h-55.168a20.352 20.352 0 1 0 0 40.576h55.168a20.352 20.352 0 0 0 0-40.576z m2.816 104.576h-61.312a17.024 17.024 0 1 0 0 34.048H807.552a17.024 17.024 0 0 0 0-34.048z m0 98.048h-61.312a17.024 17.024 0 0 0 0 34.048H807.552a17.024 17.024 0 0 0 0-34.048z m154.752-163.456A39.168 39.168 0 0 0 922.752-64h-33.792V201.984a34.688 34.688 0 0 1-34.56 34.688H699.904a34.816 34.816 0 0 1-34.688-34.688V-64h-47.744a39.168 39.168 0 0 0-39.168 39.168V242.432A39.168 39.168 0 0 0 617.472 281.6H922.752a39.168 39.168 0 0 0 39.168-39.168z"  horiz-adv-x="1025" />

    
    <glyph glyph-name="tubiao-13" unicode="&#59014;" d="M352 131.2a32 32 0 0 1 32 32V204.8a15.488 15.488 0 0 0 15.488 15.488h42.112a32 32 0 0 1 0 64h-42.112A15.488 15.488 0 0 0 384 300.288v42.112a32 32 0 0 1-64 0v-42.112a15.488 15.488 0 0 0-15.488-15.488H262.4a32 32 0 0 1 0-64h42.112A15.488 15.488 0 0 0 320 204.8v-42.112a32 32 0 0 1 32-31.488zM768 384a256 256 0 1 1 256-256 256 256 0 0 1-256 256z m-49.792-268.8l42.368-179.2a192 192 0 1 0 132.352 337.536l-168.704-140.8a18.304 18.304 0 0 1-6.016-17.536z m106.112-170.752l-21.888 92.672a12.8 12.8 0 0 0 19.584 12.8l81.664-57.6a192 192 0 0 0-79.36-47.872z m116.352 100.096l-100.864 71.68a18.176 18.176 0 0 0-1.152 28.928L934.4 224.384a190.464 190.464 0 0 0 6.784-179.2zM661.504 405.12A42.496 42.496 0 0 1 704 448v33.536A158.464 158.464 0 0 1 545.536 640h-0.768A19.968 19.968 0 0 0 524.8 659.968V704h-6.912A83.712 83.712 0 0 1 601.6 787.712V812.288A83.712 83.712 0 0 1 517.888 896H185.984A83.712 83.712 0 0 1 102.4 812.288v-24.576A83.712 83.712 0 0 1 185.984 704H179.2v-44.032A19.968 19.968 0 0 0 159.232 640h-0.768A158.592 158.592 0 0 1 0 481.536v-533.504A76.032 76.032 0 0 1 76.032-128H441.6a32 32 0 0 1 0 64H87.168A23.168 23.168 0 0 0 64-40.832v76.8h377.6a32 32 0 0 1 0 64H64V405.12h597.504zM166.4 800A32 32 0 0 0 198.4 832h307.2a32 32 0 0 0 0-64h-307.2A32 32 0 0 0 166.4 800z m467.456-330.88H64v12.8A94.336 94.336 0 0 0 158.464 576h8.576A76.8 76.8 0 0 1 243.2 652.16V704h217.6v-51.84A76.8 76.8 0 0 1 537.6 576h2.432A100.608 100.608 0 0 0 640 475.392a6.272 6.272 0 0 0-6.144-6.272z"  horiz-adv-x="1024" />

    
    <glyph glyph-name="tubiao-14" unicode="&#59015;" d="M352 131.2a32 32 0 0 1 32 32V204.8a15.488 15.488 0 0 0 15.488 15.488h42.112a32 32 0 0 1 0 64h-42.112A15.488 15.488 0 0 0 384 300.288v42.112a32 32 0 0 1-64 0v-42.112a15.488 15.488 0 0 0-15.488-15.488H262.4a32 32 0 0 1 0-64h42.112A15.488 15.488 0 0 0 320 204.8v-42.112a32 32 0 0 1 32-31.488zM661.504 405.12A42.496 42.496 0 0 1 704 448v33.536A158.464 158.464 0 0 1 545.536 640h-0.768A19.968 19.968 0 0 0 524.8 659.968V704h-6.912A83.712 83.712 0 0 1 601.6 787.712V812.288A83.712 83.712 0 0 1 517.888 896H185.984A83.712 83.712 0 0 1 102.4 812.288v-24.576A83.712 83.712 0 0 1 185.984 704H179.2v-44.032A19.968 19.968 0 0 0 159.232 640h-0.768A158.592 158.592 0 0 1 0 481.536v-533.504A76.032 76.032 0 0 1 76.032-128H441.6a32 32 0 0 1 0 64H87.168A23.168 23.168 0 0 0 64-40.832v76.8h377.6a32 32 0 0 1 0 64H64V405.12h597.504zM166.4 800A32 32 0 0 0 198.4 832h307.2a32 32 0 0 0 0-64h-307.2A32 32 0 0 0 166.4 800z m467.456-330.88H64v12.8A94.336 94.336 0 0 0 158.464 576h8.576A76.8 76.8 0 0 1 243.2 652.16V704h217.6v-51.84A76.8 76.8 0 0 1 537.6 576h2.432A100.608 100.608 0 0 0 640 475.392a6.272 6.272 0 0 0-6.144-6.272zM768 384a256 256 0 1 1 256-256 256 256 0 0 1-256 256z m0-449.792A193.92 193.92 0 1 0 961.92 128 193.92 193.92 0 0 0 768-65.792zM894.464 160h-123.264a32 32 0 0 1 0-64h123.264a32 32 0 0 1 0 64zM771.2 195.072H844.8a32 32 0 0 1 0 64h-73.6a32 32 0 0 1 0-64zM844.8 60.928h-73.6a32 32 0 0 1 0-64H844.8a32 32 0 0 1 0 64zM681.6 227.072m-32 0a32 32 0 1 1 64 0 32 32 0 1 1-64 0ZM681.6 131.2m-32 0a32 32 0 1 1 64 0 32 32 0 1 1-64 0ZM681.6 28.928m-32 0a32 32 0 1 1 64 0 32 32 0 1 1-64 0Z"  horiz-adv-x="1024" />

    
    <glyph glyph-name="tubiao-15" unicode="&#59016;" d="M767.989728 383.993152a255.996576 255.996576 0 1 1 255.996576-255.996576 255.996576 255.996576 0 0 1-255.996576 255.996576z m-49.791334-268.796405l42.367433-179.197603a191.997432 191.997432 0 1 0 132.35023 337.531486l-168.701743-140.798117a18.303755 18.303755 0 0 1-6.01592-17.535766z m106.110581-170.749716l-21.887707 92.670761a12.799829 12.799829 0 0 0 19.583738 12.799828l81.662907-57.599229a191.997432 191.997432 0 0 0-79.358938-47.87136z m116.350444 100.094661l-100.862651 71.679042a18.175757 18.175757 0 0 0-1.151985 28.927613L934.387503 224.379287a190.461453 190.461453 0 0 0 6.783909-179.197603zM481.913554-62.97687a447.994008 447.994008 0 1 0 477.04962 477.04962 31.999572 31.999572 0 1 1 63.999144 3.967947 511.993152 511.993152 0 1 1-545.016711-544.888712 31.999572 31.999572 0 1 1 3.967947 63.999144zM703.222594 634.229805a31.743575 31.743575 0 0 1-45.055397 0L511.993152 488.311757 365.819107 634.357803a31.615577 31.615577 0 0 1-43.775414 1.023987l-1.279983-1.151985a32.255569 32.255569 0 0 1 0-45.311394l145.918048-145.918048-93.566748-93.694747a129.022274 129.022274 0 0 1-113.150487 8.95988A122.366363 122.366363 0 0 1 187.261495 281.594522a128.638279 128.638279 0 0 1 163.965807-163.325816 121.726372 121.726372 0 0 1 75.902985 72.831026 127.998288 127.998288 0 0 1-8.831882 113.022488L511.993152 397.816967l33.151557-33.279555a33.535551 33.535551 0 0 1 43.647416-3.583952 31.999572 31.999572 0 0 1 2.431967 47.487365l-34.431539 34.559538L703.222594 588.790413a32.255569 32.255569 0 0 1 0 45.439392zM364.283128 206.97152a55.423259 55.423259 0 0 0-23.93568-23.93568 65.02313 65.02313 0 0 0-88.318819 88.318819 54.783267 54.783267 0 0 0 23.93568 23.935679 64.895132 64.895132 0 0 0 88.318819-88.318818z"  horiz-adv-x="1024" />

    
    <glyph glyph-name="tubiao-16" unicode="&#59017;" d="M768 384a256 256 0 1 1 256-256 256 256 0 0 1-256 256z m-49.792-268.8l42.368-179.2a192 192 0 1 0 132.352 337.536l-168.704-140.8a18.304 18.304 0 0 1-6.016-17.536z m106.112-170.752l-21.888 92.672a12.8 12.8 0 0 0 19.584 12.8l81.664-57.6a192 192 0 0 0-79.36-47.872z m116.352 100.096l-100.864 71.68a18.176 18.176 0 0 0-1.152 28.928L934.4 224.384a190.464 190.464 0 0 0 6.784-179.2zM934.4 729.6H793.6V810.624A85.376 85.376 0 0 1 708.224 896H315.776A85.376 85.376 0 0 1 230.4 810.624V729.6H89.6a89.6 89.6 0 0 1-89.6-89.6v-524.8a89.6 89.6 0 0 1 89.6-89.6h358.4a32 32 0 0 1 0 64H100.352A36.352 36.352 0 0 0 64 125.952V488.576h896v-88.576a32 32 0 0 1 64 0V640a89.6 89.6 0 0 1-89.6 89.6zM294.4 789.76A42.24 42.24 0 0 0 336.64 832h350.72A42.24 42.24 0 0 0 729.6 789.76V729.6H294.4z m665.6-237.184H64v76.8A36.352 36.352 0 0 0 100.352 665.6h823.296A36.352 36.352 0 0 0 960 629.248z"  horiz-adv-x="1024" />

    
    <glyph glyph-name="tubiao-17" unicode="&#59018;" d="M352 131.2a32 32 0 0 1 32 32V204.8a15.488 15.488 0 0 0 15.488 15.488h42.112a32 32 0 0 1 0 64h-42.112A15.488 15.488 0 0 0 384 300.288v42.112a32 32 0 0 1-64 0v-42.112a15.488 15.488 0 0 0-15.488-15.488H262.4a32 32 0 0 1 0-64h42.112A15.488 15.488 0 0 0 320 204.8v-42.112a32 32 0 0 1 32-31.488zM661.504 405.12A42.496 42.496 0 0 1 704 448v33.536A158.464 158.464 0 0 1 545.536 640h-0.768A19.968 19.968 0 0 0 524.8 659.968V704h-6.912A83.712 83.712 0 0 1 601.6 787.712V812.288A83.712 83.712 0 0 1 517.888 896H185.984A83.712 83.712 0 0 1 102.4 812.288v-24.576A83.712 83.712 0 0 1 185.984 704H179.2v-44.032A19.968 19.968 0 0 0 159.232 640h-0.768A158.592 158.592 0 0 1 0 481.536v-533.504A76.032 76.032 0 0 1 76.032-128H441.6a32 32 0 0 1 0 64H87.168A23.168 23.168 0 0 0 64-40.832v76.8h377.6a32 32 0 0 1 0 64H64V405.12h597.504zM166.4 800A32 32 0 0 0 198.4 832h307.2a32 32 0 0 0 0-64h-307.2A32 32 0 0 0 166.4 800z m467.456-330.88H64v12.8A94.336 94.336 0 0 0 158.464 576h8.576A76.8 76.8 0 0 1 243.2 652.16V704h217.6v-51.84A76.8 76.8 0 0 1 537.6 576h2.432A100.608 100.608 0 0 0 640 475.392a6.272 6.272 0 0 0-6.144-6.272zM768 384a256 256 0 1 1 256-256 256 256 0 0 1-256 256z m0-449.792A193.92 193.92 0 1 0 961.92 128 193.92 193.92 0 0 0 768-65.792zM894.464 160h-123.264a32 32 0 0 1 0-64h123.264a32 32 0 0 1 0 64zM771.2 195.072H844.8a32 32 0 0 1 0 64h-73.6a32 32 0 0 1 0-64zM844.8 60.928h-73.6a32 32 0 0 1 0-64H844.8a32 32 0 0 1 0 64zM681.6 227.072m-32 0a32 32 0 1 1 64 0 32 32 0 1 1-64 0ZM681.6 131.2m-32 0a32 32 0 1 1 64 0 32 32 0 1 1-64 0ZM681.6 28.928m-32 0a32 32 0 1 1 64 0 32 32 0 1 1-64 0Z"  horiz-adv-x="1024" />

    
    <glyph glyph-name="icon-test35-copy" unicode="&#59128;" d="M1009.236114-38.356318999999985l-179.191623 179.191623a49.661678 49.661678 0 0 0-6.015718 62.46108 447.979057 447.979057 0 1 1-128.122011-129.657939 49.533684 49.533684 0 0 0 62.46108-6.015718l180.471563-180.599557a51.197607 51.197607 0 0 1 76.028446 3.967814 53.245511 53.245511 0 0 1-5.631737 70.652697zM450.030257 64.03889400000003a383.982049 383.982049 0 1 0 383.982049 383.982049 383.982049 383.982049 0 0 0-383.982049-383.982049zM668.772031 681.610023a31.742516 31.742516 0 0 1-46.84581-3.455839l-0.767964-1.151946a31.614522 31.614522 0 0 1 4.095808-42.622007A254.836086 254.836086 0 0 0 706.01829 448.020943v-15.61527a31.486528 31.486528 0 0 1 25.598803-33.406438h1.151946A31.486528 31.486528 0 0 1 770.015298 427.797888c0 6.655689 0.63997 12.799402 0.63997 20.223055a319.217077 319.217077 0 0 1-101.883237 233.58908zM711.13805 320.538903m-31.998504 0a31.998504 31.998504 0 1 1 63.997008 0 31.998504 31.998504 0 1 1-63.997008 0Z"  horiz-adv-x="1026" />

    
    <glyph glyph-name="icon-test" unicode="&#58918;" d="M722.748219 474.38155L320.022877 877.106891a63.565758 63.565758 0 0 1-90.442555 0 64.41899 64.41899 0 0 1-18.771097-45.221277v-891.200466H213.36892a63.565758 63.565758 0 0 1 106.653957-49.914052l402.725342 402.725342L813.190775 383.938994z"  horiz-adv-x="1024" />

    
    <glyph glyph-name="-" unicode="&#58919;" d="M512 896a512 512 0 1 1 512-512A512 512 0 0 1 512 896z m0-960a448 448 0 1 0 448 448 448 448 0 0 0-448-448zM842.112 260.48a128 128 0 0 1-191.232 88.832l-93.568 93.696L703.232 588.8a32.256 32.256 0 0 1 0 45.312 32.256 32.256 0 0 1-45.312 0L512 488.32l-145.92 145.92a32.256 32.256 0 0 1-45.312 0 32.256 32.256 0 0 1 0-45.312l145.92-145.92-93.568-93.696a128 128 0 1 1 45.184-45.184L512 397.824l93.696-93.696a128 128 0 1 1 236.416-43.648z m-533.888-85.376a64 64 0 1 0 64 64 64 64 0 0 0-64-64z m407.552 0a64 64 0 1 0 64 64 64 64 0 0 0-64-64z"  horiz-adv-x="1024" />

    
    <glyph glyph-name="-1" unicode="&#58920;" d="M512 896a512 512 0 1 1 512-512A512 512 0 0 1 512 896z m0-960a448 448 0 1 0 448 448 448 448 0 0 0-448-448zM842.112 260.48a128 128 0 0 1-191.232 88.832l-93.568 93.696L703.232 588.8a32.256 32.256 0 0 1 0 45.312 32.256 32.256 0 0 1-45.312 0L512 488.32l-145.92 145.92a32.256 32.256 0 0 1-45.312 0 32.256 32.256 0 0 1 0-45.312l145.92-145.92-93.568-93.696a128 128 0 1 1 45.184-45.184L512 397.824l93.696-93.696a128 128 0 1 1 236.416-43.648z m-533.888-85.376a64 64 0 1 0 64 64 64 64 0 0 0-64-64z m407.552 0a64 64 0 1 0 64 64 64 64 0 0 0-64-64z"  horiz-adv-x="1024" />

    
    <glyph glyph-name="icon-test1" unicode="&#58921;" d="M411.776 463.872l81.92-82.56a27.52 27.52 0 0 1 38.4 0L614.4 463.872a32 32 0 0 1-45.312 45.184l-25.6-25.6V864a32 32 0 0 1-64 0V486.4l-22.784 22.784a32 32 0 1 1-45.44-45.184zM1017.728 374.016l-119.296 332.8A92.416 92.416 0 0 1 811.52 768H629.376a32 32 0 0 1-32-32 32 32 0 0 1 32-32h169.472a45.952 45.952 0 0 0 43.264-30.592l91.136-256H691.2a78.464 78.464 0 0 1-56.32-23.936l-61.056-64a36.864 36.864 0 0 0-26.496-11.264h-68.864a36.48 36.48 0 0 0-25.6 11.008l-64 64.768A78.592 78.592 0 0 1 332.8 417.152H90.752l91.136 256A45.952 45.952 0 0 0 225.152 704h169.472a32 32 0 0 1 32 32 32 32 0 0 1-32 32H212.736a92.288 92.288 0 0 1-87.04-61.44L6.144 370.56a107.136 107.136 0 0 1-6.144-35.84v-338.688A124.032 124.032 0 0 1 124.032-128h775.936A124.032 124.032 0 0 1 1024-3.968V337.92a108.16 108.16 0 0 1-6.272 36.096zM960 1.408A65.408 65.408 0 0 0 894.592-64H129.408A65.408 65.408 0 0 0 64 1.408V312.96a40.192 40.192 0 0 0 40.192 40.192h194.688a80.128 80.128 0 0 0 57.344-24.064l57.344-58.368a55.04 55.04 0 0 1 39.424-16.64h119.808a55.168 55.168 0 0 1 39.936 17.024l55.04 57.344a80.128 80.128 0 0 0 57.856 24.704h194.176A40.192 40.192 0 0 0 960 312.96z"  horiz-adv-x="1024" />

    
    <glyph glyph-name="icon-test2" unicode="&#58922;" d="M457.216 760.192l22.784 22.784v-377.728a32 32 0 0 1 64 0V785.408l25.6-25.6A32 32 0 0 1 614.4 805.376L532.608 887.936a27.52 27.52 0 0 1-38.4 0l-81.92-82.56a32 32 0 0 1 45.44-45.184zM1017.728 374.016l-119.296 332.8A92.416 92.416 0 0 1 811.52 768h-105.344a32 32 0 0 1-32-32 32 32 0 0 1 32-32h92.672a45.952 45.952 0 0 0 43.264-30.592l91.136-256H691.2a78.464 78.464 0 0 1-56.32-23.936l-61.056-64a36.864 36.864 0 0 0-26.496-11.264h-68.864a36.48 36.48 0 0 0-25.6 11.008l-64 64.768A78.592 78.592 0 0 1 332.8 417.152H90.752l91.136 256A45.952 45.952 0 0 0 225.152 704h92.672a32 32 0 0 1 32 32 32 32 0 0 1-32 32h-105.088a92.288 92.288 0 0 1-87.04-61.44L6.144 370.56a107.136 107.136 0 0 1-6.144-35.84v-338.688A124.032 124.032 0 0 1 124.032-128h775.936A124.032 124.032 0 0 1 1024-3.968V337.92a108.16 108.16 0 0 1-6.272 36.096zM960 1.408A65.408 65.408 0 0 0 894.592-64H129.408A65.408 65.408 0 0 0 64 1.408V312.96a40.192 40.192 0 0 0 40.192 40.192h194.688a80.128 80.128 0 0 0 57.344-24.064l57.344-58.368a55.04 55.04 0 0 1 39.424-16.64h119.808a55.168 55.168 0 0 1 39.936 17.024l55.04 57.344a80.128 80.128 0 0 0 57.856 24.704h194.176A40.192 40.192 0 0 0 960 312.96z"  horiz-adv-x="1024" />

    
    <glyph glyph-name="icon-test3" unicode="&#58923;" d="M32 661.376h960a32 32 0 1 1 0 64h-960a32 32 0 0 1 0-64zM992 416h-960a32 32 0 0 1 0-64h960a32 32 0 0 1 0 64zM992 106.624h-960a32 32 0 0 1 0-64h960a32 32 0 0 1 0 64z"  horiz-adv-x="1024" />

    
    <glyph glyph-name="icon-test4" unicode="&#58924;" d="M964.992256 520.96A223.744 223.744 0 1 1 597.632256 768H212.736256a92.288 92.288 0 0 1-87.04-61.44L6.272256 370.56a104.064 104.064 0 0 1-6.272-35.84v-338.688A124.032 124.032 0 0 1 124.032256-128h775.936A124.032 124.032 0 0 1 1024.000256-3.968V337.92a108.16 108.16 0 0 1-6.272 36.096zM181.888256 672.896A45.952 45.952 0 0 0 225.152256 704h353.28a232.192 232.192 0 0 1-2.432-32 200.576 200.576 0 0 1 1.152-21.632H173.824256z m-30.848-86.528h442.112a224.256 224.256 0 0 1 31.36-53.248H132.096256z m-41.728-117.248h596.224a221.952 221.952 0 0 1 206.08 8.96l21.632-60.928H90.752256zM960.000256 1.408A65.408 65.408 0 0 0 894.592256-64H129.408256A65.408 65.408 0 0 0 64.000256 1.408V312.96a40.192 40.192 0 0 0 40.192 40.192h815.616A40.192 40.192 0 0 0 960.000256 312.96zM800.000256 512A160 160 0 1 0 960.000256 672 160.256 160.256 0 0 0 800.000256 512zM615.552256 176.64H408.448256a32 32 0 1 1 0-64h207.104a32 32 0 0 1 0 64zM870.400256 729.6l-78.976-78.976a8.576 8.576 0 0 0-12.8 0l-38.4 38.4a32 32 0 0 1-45.312 0 31.872 31.872 0 0 1 0-45.184l72.96-72.96a24.448 24.448 0 0 1 34.816 0l113.024 112.896A32 32 0 0 1 870.400256 729.6z"  horiz-adv-x="1024" />

    
    <glyph glyph-name="icon-test5" unicode="&#58925;" d="M512 896a512 512 0 1 1 512-512A512 512 0 0 1 512 896z m0-960a448 448 0 1 0 448 448 448 448 0 0 0-448-448zM777.216 296.192l-219.008 101.632a24.32 24.32 0 0 0-14.208 22.272V707.584a32 32 0 1 1-64 0v-322.816a33.152 33.152 0 0 1 19.2-30.08l251.008-116.608a32 32 0 0 1 42.496 15.616 31.872 31.872 0 0 1-15.488 42.496z"  horiz-adv-x="1024" />

    
    <glyph glyph-name="icon-test6" unicode="&#58926;" d="M886.144 896H137.856A137.984 137.984 0 0 1 0 758.144v-748.288A137.984 137.984 0 0 1 137.856-128h748.288A137.984 137.984 0 0 1 1024 9.856V758.144A137.984 137.984 0 0 1 886.144 896zM960 9.856A73.984 73.984 0 0 0 886.144-64H137.856A73.984 73.984 0 0 0 64 9.856V758.144A73.984 73.984 0 0 0 137.856 832h748.288A73.984 73.984 0 0 0 960 758.144zM821.248 569.856h-96v37.376a32 32 0 0 1-64 0v-37.376H202.752a32 32 0 0 1 0-64h458.496v-37.376a32 32 0 1 1 64 0v37.376h96a32 32 0 0 1 0 64zM821.248 262.144h-96V299.52a32 32 0 1 1-64 0v-37.376H202.752a32 32 0 1 1 0-64h458.496v-37.376a32 32 0 0 1 64 0v37.376h96a32 32 0 0 1 0 64z"  horiz-adv-x="1024" />

    
    <glyph glyph-name="icon-test7" unicode="&#58927;" d="M818.048 668.8a32 32 0 0 1-32 32H200.448a32 32 0 1 1 0-64h585.6a32 32 0 0 1 32 32zM604.672 409.6a32 32 0 0 1-32 32H200.448a32 32 0 1 1 0-64h372.224a32 32 0 0 1 32 32zM200.448 182.4a32 32 0 1 1 0-64h180.096a32 32 0 0 1 0 64zM451.584-12.8H137.856A73.856 73.856 0 0 0 64 61.056V758.144A73.856 73.856 0 0 0 137.856 832h697.088A73.856 73.856 0 0 0 908.8 758.144v-313.728a32 32 0 0 1 64 0V758.144A137.856 137.856 0 0 1 834.944 896H137.856A137.856 137.856 0 0 1 0 758.144v-697.088A137.856 137.856 0 0 1 137.856-76.8h313.728a32 32 0 0 1 0 64zM780.8 358.4a243.2 243.2 0 1 1 243.2-243.2 243.2 243.2 0 0 1-243.2 243.2z m0-422.4a179.2 179.2 0 1 0 179.2 179.2 179.2 179.2 0 0 0-179.2-179.2zM863.104 114.56l-38.4 16.768a18.816 18.816 0 0 0-11.52 17.408v83.84a32 32 0 0 1-32 32 32 32 0 0 1-32-32v-118.272a30.592 30.592 0 0 1 18.816-28.16l70.4-30.336a31.872 31.872 0 0 1 41.984 16.768 31.744 31.744 0 0 1-17.28 41.984z"  horiz-adv-x="1024" />

    
    <glyph glyph-name="icon-test8" unicode="&#58928;" d="M991.828662-64.011054h-33.786164a52.342958 52.342958 0 0 0-52.342958 52.21498V503.698874C905.69954 712.686771 742.271773 889.42424 533.411853 895.823135a383.933675 383.933675 0 0 1-395.579664-383.933676v-523.685533A52.21498 52.21498 0 0 0 85.61721-64.011054H31.994473a31.994473 31.994473 0 0 1 0-63.988946h959.834189a31.994473 31.994473 0 0 1 0 63.988946z m-150.118068 52.21498A52.21498 52.21498 0 0 0 789.495615-64.011054H254.164093a52.342958 52.342958 0 0 0-52.342958 52.21498V511.889459A319.94473 319.94473 0 0 0 516.390793 831.834189c179.169049 2.943492 325.319801-148.198399 325.319801-327.23947zM625.683913 387.111015L550.304935 401.572516a36.857633 36.857633 0 0 0-28.795026 44.92024l44.92024 184.800076-176.225557-244.309795a12.797789 12.797789 0 0 1 7.934629-20.348485L473.5182 352.17305A36.857633 36.857633 0 0 0 502.05727 307.124832l-44.92024-184.672098 176.481512 244.437774a12.797789 12.797789 0 0 1-7.934629 20.220507z"  horiz-adv-x="1024" />

    
    <glyph glyph-name="icon-test9" unicode="&#58929;" d="M886.144 896H137.856A137.984 137.984 0 0 1 0 758.144v-748.288A137.984 137.984 0 0 1 137.856-128h748.288A137.984 137.984 0 0 1 1024 9.856V758.144A137.984 137.984 0 0 1 886.144 896zM960 9.856A73.984 73.984 0 0 0 886.144-64H137.856A73.984 73.984 0 0 0 64 9.856V758.144A73.984 73.984 0 0 0 137.856 832h748.288A73.984 73.984 0 0 0 960 758.144zM867.456 707.584a32 32 0 0 1-44.928 5.12L609.536 543.232a34.944 34.944 0 0 0-43.008 0L460.8 624a71.936 71.936 0 0 1-89.6-1.408L161.28 449.536a31.744 31.744 0 0 1-4.352-44.928 31.744 31.744 0 0 1 44.928-4.48l193.92 159.488a34.944 34.944 0 0 0 43.392 0.64l104.96-80.896a71.936 71.936 0 0 1 88.704 0l229.504 183.168a32.128 32.128 0 0 1 5.12 45.056zM835.328 288.384H188.672a32 32 0 1 1 0-64h646.656a32 32 0 0 1 0 64zM835.328 112.384H188.672a32 32 0 1 1 0-64h646.656a32 32 0 1 1 0 64z"  horiz-adv-x="1024" />

    
    <glyph glyph-name="icon-test10" unicode="&#58930;" d="M366.336036 895.999872H82.176107A82.047979 82.047979 0 0 1 0.000128 813.823893v-284.159929A82.175979 82.175979 0 0 1 82.176107 447.999984H448.000016V813.823893A82.175979 82.175979 0 0 1 366.336036 895.999872zM384.000032 511.999968H88.448106A24.447994 24.447994 0 0 0 64.000112 535.935962V807.551894A24.319994 24.319994 0 0 0 88.448106 831.999888h271.615932A24.447994 24.447994 0 0 0 384.000032 807.551894zM0.000128 238.336036v-284.159929A82.047979 82.047979 0 0 1 82.176107-127.999872h284.159929A82.175979 82.175979 0 0 1 448.000016-45.823893V320.000016H82.176107A82.175979 82.175979 0 0 1 0.000128 238.336036zM384.000032 256.000032v-295.551926A24.447994 24.447994 0 0 0 360.064038-63.999888H88.448106A24.319994 24.319994 0 0 0 64.000112-39.551894V232.064038A24.447994 24.447994 0 0 0 88.448106 256.000032zM941.823893 895.999872h-284.159929A82.175979 82.175979 0 0 1 575.999984 813.823893V447.999984h365.823909A82.175979 82.175979 0 0 1 1023.999872 529.663964V813.823893A82.047979 82.047979 0 0 1 941.823893 895.999872zM959.999888 535.935962A24.447994 24.447994 0 0 0 935.551894 511.999968H639.999968V807.551894A24.447994 24.447994 0 0 0 663.935962 831.999888h271.615932A24.319994 24.319994 0 0 0 959.999888 807.551894zM941.823893 320.000016H575.999984v-365.823909A82.175979 82.175979 0 0 1 657.663964-127.999872h284.159929A82.047979 82.047979 0 0 1 1023.999872-45.823893v284.159929A82.175979 82.175979 0 0 1 941.823893 320.000016zM959.999888-39.551894A24.319994 24.319994 0 0 0 935.551894-63.999888H663.935962A24.447994 24.447994 0 0 0 639.999968-39.551894V256.000032h295.551926A24.447994 24.447994 0 0 0 959.999888 232.064038z"  horiz-adv-x="1024" />

    
    <glyph glyph-name="icon-test11" unicode="&#58931;" d="M886.144 896H137.856A137.984 137.984 0 0 1 0 758.144v-748.288A137.984 137.984 0 0 1 137.856-128h748.288A137.984 137.984 0 0 1 1024 9.856V758.144A137.984 137.984 0 0 1 886.144 896zM960 9.856A73.984 73.984 0 0 0 886.144-64H137.856A73.984 73.984 0 0 0 64 9.856V758.144A73.984 73.984 0 0 0 137.856 832h748.288A73.984 73.984 0 0 0 960 758.144zM837.248 675.2H372.096a32 32 0 0 1 0-64h465.152a32 32 0 0 1 0 64zM837.248 416H372.096a32 32 0 1 1 0-64h465.152a32 32 0 0 1 0 64zM837.248 156.8H372.096a32 32 0 1 1 0-64h465.152a32 32 0 0 1 0 64zM236.672 675.2h-36.224a32 32 0 1 1 0-64h36.224a32 32 0 0 1 0 64zM236.672 416h-36.224a32 32 0 1 1 0-64h36.224a32 32 0 0 1 0 64zM236.672 156.8h-36.224a32 32 0 1 1 0-64h36.224a32 32 0 0 1 0 64z"  horiz-adv-x="1024" />

    
    <glyph glyph-name="icon-test12" unicode="&#58932;" d="M998.264913 437.932465L562.046396 874.150983a77.954919 77.954919 0 0 1-110.098668 0L15.729211 437.932465a53.404182 53.404182 0 0 1 37.965058-91.242689H114.691462a29.612745 29.612745 0 0 0 29.612745-29.612745v-371.171718a73.778763 73.778763 0 0 1 73.778763-73.778763h76.942518a107.567664 107.567664 0 0 1 107.567664 107.567665v109.592467A104.40391 104.40391 0 0 0 506.997062 193.690592a104.40391 104.40391 0 0 0 104.40391-104.40391V-20.432336a107.567664 107.567664 0 0 1 107.567664-107.567664h72.892912a73.778763 73.778763 0 0 1 73.778763 73.778763V317.077031A29.486195 29.486195 0 0 0 895.126506 346.563226h65.42645a53.404182 53.404182 0 0 1 37.711957 91.369239zM921.322396 409.838322h-27.208292a91.74889 91.74889 0 0 1-91.74889-91.74889v-361.933553a20.754232 20.754232 0 0 0-20.880782-20.754232H722.132391a47.456323 47.456323 0 0 0-47.456322 47.456323v106.428712A167.679006 167.679006 0 0 1 506.997062 256.965689a167.679006 167.679006 0 0 1-167.679006-167.679007v-106.428712A47.456323 47.456323 0 0 0 291.861733-64.598353h-63.275097a20.627682 20.627682 0 0 0-20.754231 20.754232V318.215982A91.875441 91.875441 0 0 1 115.830414 409.838322H92.671729a6.32751 6.32751 0 0 0-4.555807 10.883317L488.773834 821.506102a25.310039 25.310039 0 0 0 36.446456 0L925.878203 420.848189a6.32751 6.32751 0 0 0-4.555807-11.009867z"  horiz-adv-x="1025" />

    
    <glyph glyph-name="icon-test13" unicode="&#58933;" d="M512 607.998068A223.999412 223.999412 0 1 1 735.999412 383.998656 224.255411 224.255411 0 0 1 512 607.998068z m0-383.998992A159.99958 159.99958 0 1 0 671.99958 383.998656 160.255579 160.255579 0 0 0 512 223.999076zM1021.438663 261.118979A73.343807 73.343807 0 0 1 985.598757 307.198858l-5.375986 3.071992a84.351779 84.351779 0 0 0-43.903885 73.215807v2.431994a83.71178 83.71178 0 0 0 43.391886 72.575809L985.598757 460.798454a73.087808 73.087808 0 0 1 35.583906 45.567881 72.19181 72.19181 0 0 1-7.807979 56.831851L921.598925 716.797782a76.799798 76.799798 0 0 1-102.399731 27.00793 95.487749 95.487749 0 0 0-93.055756 0l-1.279997 0.767997a88.319768 88.319768 0 0 0-45.56788 76.799799A75.007803 75.007803 0 0 1 603.647759 895.997312H420.352241a75.007803 75.007803 0 0 1-75.519802-74.239805v-3.199992a83.71178 83.71178 0 0 0-43.263887-72.44781l-3.455991-1.919994a95.999748 95.999748 0 0 0-93.439754 0A76.799798 76.799798 0 0 1 102.401075 716.797782L10.369317 563.198186a72.703809 72.703809 0 0 1-7.80798-56.319853A73.855806 73.855806 0 0 1 38.401243 460.798454l5.887985-3.327991a83.71178 83.71178 0 0 0 43.391886-72.575809v-2.431994A84.351779 84.351779 0 0 0 43.52123 309.758851L38.401243 307.198858a73.343807 73.343807 0 0 1-35.839906-46.079879A72.19181 72.19181 0 0 1 10.369317 204.799126L102.401075 51.19953a76.799798 76.799798 0 0 1 102.399731-26.87993 95.487749 95.487749 0 0 0 93.055756 0l1.279997-0.767998a88.063769 88.063769 0 0 0 45.56788-76.799798 75.007803 75.007803 0 0 1 75.519802-74.239805h183.423518a75.007803 75.007803 0 0 1 75.519802 74.239805V-51.200202a83.583781 83.583781 0 0 0 43.391886 72.44781l3.327992 1.919995a95.999748 95.999748 0 0 0 93.439754 0A76.799798 76.799798 0 0 1 921.598925 51.19953l91.647759 153.599596a72.19181 72.19181 0 0 1 8.191979 56.319853z m-62.847835-23.679938l-91.64776-153.599597a12.799966 12.799966 0 0 0-16.511956-3.83999 160.511579 160.511579 0 0 1-155.775591 0l-3.455991-1.919995a147.967612 147.967612 0 0 1-76.031801-127.999664v-3.199992a10.879971 10.879971 0 0 0-11.51997-10.239973H420.352241a11.007971 11.007971 0 0 0-11.51997 10.879972 151.935601 151.935601 0 0 1-78.079795 131.967653l-1.279997 0.767998a160.12758 160.12758 0 0 1-156.03159 0 12.799966 12.799966 0 0 0-16.383957 3.83999l-91.64776 153.599597A8.703977 8.703977 0 0 0 64.001176 244.479022a9.983974 9.983974 0 0 0 5.119987 6.399983l5.375985 3.071992a148.351611 148.351611 0 0 1 76.799799 129.023662v2.431993a147.583613 147.583613 0 0 1-76.1598 127.999664l-5.759985 3.327992a10.495972 10.495972 0 0 0-5.119987 6.271983 8.959976 8.959976 0 0 0 1.023998 7.167981l91.647759 153.599597a12.799966 12.799966 0 0 0 16.639956 3.83999 160.511579 160.511579 0 0 1 155.775591 0l3.327992 1.919995a147.967612 147.967612 0 0 1 76.0318 127.999664V821.757507a10.879971 10.879971 0 0 0 11.51997 10.239973h183.423518a11.007971 11.007971 0 0 0 11.51997-10.879971 151.935601 151.935601 0 0 1 78.079795-131.967654l1.279997-0.767998a160.767578 160.767578 0 0 1 155.903591 0 12.799966 12.799966 0 0 0 16.383957-3.96799l91.519759-153.599596a8.447978 8.447978 0 0 0 1.023998-7.167982 9.727974 9.727974 0 0 0-5.119987-6.271983l-5.503985-3.199992a147.711612 147.711612 0 0 1-76.799799-127.999664v-2.431993a148.351611 148.351611 0 0 1 76.799799-129.023662l5.375985-3.071992a10.111973 10.111973 0 0 0 5.119987-6.271983 8.959976 8.959976 0 0 0-0.639998-7.935979z"  horiz-adv-x="1024" />

    
    <glyph glyph-name="icon-test14" unicode="&#58934;" d="M260.352 416a32 32 0 0 1 0-64h503.296a32 32 0 0 1 0 64zM972.8 281.6a31.744 31.744 0 0 1-30.592-22.784A449.664 449.664 0 0 0 637.184-46.08 31.744 31.744 0 0 1 614.4-76.8a31.872 31.872 0 0 1 40.448-30.976 514.688 514.688 0 0 1 348.928 348.928A31.872 31.872 0 0 1 972.8 281.6zM51.2 486.4a31.744 31.744 0 0 1 30.72 22.784A449.664 449.664 0 0 0 386.816 814.08 31.744 31.744 0 0 1 409.6 844.8a31.872 31.872 0 0 1-40.448 30.976A514.688 514.688 0 0 1 20.224 526.848 31.872 31.872 0 0 1 51.2 486.4zM637.184 814.08A449.664 449.664 0 0 0 942.08 509.184 31.744 31.744 0 0 1 972.8 486.4a31.872 31.872 0 0 1 30.976 40.448A514.688 514.688 0 0 1 654.848 875.776 31.872 31.872 0 0 1 614.4 844.8a31.744 31.744 0 0 1 22.784-30.72zM386.816-46.08A449.664 449.664 0 0 0 81.92 258.816 31.744 31.744 0 0 1 51.2 281.6a31.872 31.872 0 0 1-30.976-40.448 514.688 514.688 0 0 1 348.928-348.928A31.872 31.872 0 0 1 409.6-76.8a31.744 31.744 0 0 1-22.784 30.72z"  horiz-adv-x="1024" />

    
    <glyph glyph-name="icon-test15" unicode="&#58935;" d="M557.365493 308.390844h67.54418a15.877923 15.877923 0 0 1 16.886044 16.886045v68.174255a15.877923 15.877923 0 0 1-16.886044 16.886045h-67.54418a15.877923 15.877923 0 0 1-16.886044-16.886045v-67.544179A15.877923 15.877923 0 0 1 557.365493 308.390844z m168.860448 0H793.896136a16.003938 16.003938 0 0 1 16.886045 16.886045v68.174255A15.877923 15.877923 0 0 1 793.896136 410.337189h-67.670195a15.877923 15.877923 0 0 1-16.886044-16.886045v-67.544179A16.003938 16.003938 0 0 1 726.225941 308.390844z m-337.720895 0h67.544179a16.003938 16.003938 0 0 1 16.886045 16.886045v68.174255a15.877923 15.877923 0 0 1-16.886045 16.886045h-67.544179a15.877923 15.877923 0 0 1-16.886045-16.886045v-67.544179A15.877923 15.877923 0 0 1 388.505046 308.390844z m337.720895-239.428993H793.896136a16.003938 16.003938 0 0 1 16.886045 17.01206V153.392075A16.003938 16.003938 0 0 1 793.896136 169.774059h-67.670195a16.003938 16.003938 0 0 1-16.886044-16.886045v-67.544179a16.003938 16.003938 0 0 1 16.886044-16.381984z m-168.860448 0h67.54418a16.003938 16.003938 0 0 1 16.886044 17.01206V153.392075a15.877923 15.877923 0 0 1-16.886044 16.381984h-67.54418a15.877923 15.877923 0 0 1-16.886044-16.886045v-67.544179a16.003938 16.003938 0 0 1 16.886044-16.381984z m-337.846911 0h67.670195a16.003938 16.003938 0 0 1 16.886045 17.01206V153.392075a16.003938 16.003938 0 0 1-16.886045 16.381984h-67.670195a16.003938 16.003938 0 0 1-16.886044-16.886045v-67.544179a16.003938 16.003938 0 0 1 16.886044-16.381984z m0 240.185085h67.670195a16.003938 16.003938 0 0 1 16.886045 16.886045v67.418163a15.877923 15.877923 0 0 1-16.886045 16.886045h-67.670195a15.877923 15.877923 0 0 1-16.886044-16.886045v-67.544179A16.003938 16.003938 0 0 1 219.518582 308.390844zM388.505046 68.961851h67.544179a16.003938 16.003938 0 0 1 16.886045 17.01206V153.392075a16.003938 16.003938 0 0 1-16.886045 16.381984h-67.544179a15.877923 15.877923 0 0 1-16.886045-16.886045v-67.544179a16.003938 16.003938 0 0 1 16.886045-16.381984z m500.910657-196.961851H118.706375A118.958405 118.958405 0 0 0 0-9.16761V717.814423a118.958405 118.958405 0 0 0 118.706375 118.83239h770.709328A118.958405 118.958405 0 0 0 1008.122077 717.814423V-9.16761a118.958405 118.958405 0 0 0-118.706374-118.83239zM118.706375 757.383214a39.694807 39.694807 0 0 1-39.568792-39.568791V-9.16761a39.820822 39.820822 0 0 1 39.568792-39.694807h770.709328a39.820822 39.820822 0 0 1 39.568791 39.694807V717.814423a39.694807 39.694807 0 0 1-39.568791 39.568791zM63.00763 616.246124h882.106817v-79.137584H63.00763z m218.006399 80.52375A39.568792 39.568792 0 0 0 241.445238 736.842727V856.431208a39.568792 39.568792 0 0 0 79.137583 0V736.842727a39.442776 39.442776 0 0 0-39.568792-39.568791z m426.309623 0A39.568792 39.568792 0 0 0 667.880876 736.842727V856.431208a39.694807 39.694807 0 0 0 79.263599 0V736.842727a39.568792 39.568792 0 0 0-39.568792-39.568791z m0 0"  horiz-adv-x="1024" />

    
    <glyph glyph-name="icon-test16" unicode="&#58936;" d="M762.88-73.728L336.128 353.024a43.52 43.52 0 0 0 0 61.568L761.6 840.064a33.408 33.408 0 0 1 3.584 44.16 32.128 32.128 0 0 1-47.488 2.432L277.76 446.848a89.6 89.6 0 0 1 0-125.952L716.8-117.632a33.28 33.28 0 0 1 44.16-3.584 32 32 0 0 1 1.92 47.488z"  horiz-adv-x="1024" />

    
    <glyph glyph-name="icon-test17" unicode="&#58937;" d="M896.768-128H127.232C51.2-128 0-71.808 0-19.2v86.016a108.032 108.032 0 0 0 49.536 90.88l312.32 159.36v23.936C327.424 371.2 256 450.304 256 595.84v42.368C256 792.448 358.4 896 512 896s256-103.552 256-257.792v-42.368c0-145.536-72.064-225.152-106.496-254.848v-23.936l312.32-159.36a107.776 107.776 0 0 0 50.176-90.88v-86.016c0-52.608-51.2-108.8-127.232-108.8zM512 819.2c-86.912 0-179.2-47.488-179.2-180.992v-42.368a271.488 271.488 0 0 1 94.72-206.848 29.952 29.952 0 0 0 10.88-23.168v-65.28a49.664 49.664 0 0 0-26.88-44.544L87.936 91.264A31.104 31.104 0 0 1 76.8 66.816v-86.016c0-7.68 15.232-32 50.432-32h769.536c35.2 0 50.432 24.32 50.432 32v86.016a31.36 31.36 0 0 1-12.8 25.6L612.352 256a49.408 49.408 0 0 0-27.008 44.16v65.792a30.208 30.208 0 0 0 10.88 23.296 270.592 270.592 0 0 1 95.616 206.592v42.368C691.84 771.712 598.912 819.2 512 819.2z"  horiz-adv-x="1024" />

    
    <glyph glyph-name="icon-test18" unicode="&#58938;" d="M857.6 455.424H243.2v94.336a268.8 268.8 0 1 0 538.88 0v-9.216a38.4 38.4 0 0 1 76.16 0v9.216a346.24 346.24 0 0 1-692.48 0v-94.336H166.4a86.144 86.144 0 0 1-86.016-86.016v-411.392A86.016 86.016 0 0 1 166.4-128h691.2a86.016 86.016 0 0 1 86.016 86.016V369.408A86.144 86.144 0 0 1 857.6 455.424z m9.216-497.408A9.216 9.216 0 0 0 857.6-51.2H166.4a9.216 9.216 0 0 0-9.216 9.216V369.408a9.216 9.216 0 0 0 9.216 9.216h691.2a9.216 9.216 0 0 0 9.216-9.216zM512 268.8a38.4 38.4 0 0 1-38.4-38.4v-134.144a38.4 38.4 0 0 1 76.8 0V230.4a38.4 38.4 0 0 1-38.4 38.4z"  horiz-adv-x="1024" />

    
    <glyph glyph-name="icon-test19" unicode="&#58939;" d="M934.564352 473.6L674.852352 733.312a63.104 63.104 0 0 1-89.6 0 62.976 62.976 0 0 1 0-89.6l197.12-197.248H63.140352A58.752 58.752 0 0 1 0.164352 384a58.752 58.752 0 0 1 62.976-62.976h719.744l-197.12-197.248a63.104 63.104 0 0 1 0-89.6 62.976 62.976 0 0 1 89.6 0L934.564352 294.4l89.6 89.6z"  horiz-adv-x="1024" />

    
    <glyph glyph-name="icon-test20" unicode="&#58940;" d="M602.453333 173.226667l402.773334 402.773333a63.573333 63.573333 0 0 1 0 90.453333 64.426667 64.426667 0 0 1-45.226667 18.773334H68.693333V682.666667A63.573333 63.573333 0 0 1 18.773333 576l402.773334-402.773333L512 82.773333z"  horiz-adv-x="1024" />

    
    <glyph glyph-name="icon-test21" unicode="&#58941;" d="M725.996752 119.446835a30.441724 30.441724 0 0 1 30.185911-26.604532h0.895345a30.441724 30.441724 0 0 1 30.441724 33.639384A278.452243 278.452243 0 0 1 626.741382 345.841171a197.871208 197.871208 0 1 1-230.231528 0 278.452243 278.452243 0 0 1-160.778351-219.359484 30.441724 30.441724 0 0 1 30.441725-33.639384h0.895345a30.441724 30.441724 0 0 1 30.185911 26.604532 216.033917 216.033917 0 0 0 428.742268 0zM511.625618 370.655013a136.092414 136.092414 0 1 0 136.092414 136.092415A136.220321 136.220321 0 0 0 511.625618 370.655013zM30.95335 507.898585a30.569631 30.569631 0 0 1 29.290567 21.36037 476.32345 476.32345 0 0 0 306.97537 306.335839 30.569631 30.569631 0 0 1 21.36037 29.290566 30.95335 30.95335 0 0 1-41.057956 29.418473 537.206899 537.206899 0 0 1-345.347292-345.986824 30.95335 30.95335 0 0 1 28.778941-40.418424zM656.671481 835.594794a476.32345 476.32345 0 0 0 306.97537-306.975371 30.569631 30.569631 0 0 1 29.290567-21.36037 30.95335 30.95335 0 0 1 29.418473 40.418424 537.206899 537.206899 0 0 1-345.347292 345.347292 30.95335 30.95335 0 0 1-40.418424-29.418473 30.569631 30.569631 0 0 1 20.081306-28.011502zM366.579755-67.168609a476.32345 476.32345 0 0 0-306.335838 306.97537 30.569631 30.569631 0 0 1-29.290567 21.36037 30.95335 30.95335 0 0 1-29.418473-40.418424 537.206899 537.206899 0 0 1 345.986824-346.626356 30.95335 30.95335 0 0 1 40.418424 29.418473 30.569631 30.569631 0 0 1-21.36037 29.290567zM992.297886 260.527599a30.569631 30.569631 0 0 1-29.290567-21.36037 476.32345 476.32345 0 0 0-306.97537-306.97537 30.569631 30.569631 0 0 1-21.36037-29.290567 30.95335 30.95335 0 0 1 40.418424-29.418473 537.206899 537.206899 0 0 1 345.986824 345.347292 30.95335 30.95335 0 0 1-28.778941 41.697488z"  horiz-adv-x="1024" />

    
    <glyph glyph-name="icon-test22" unicode="&#58942;" d="M603.305387 594.773333l402.773333-402.773333a63.573333 63.573333 0 0 0 0-90.453333 64.426667 64.426667 0 0 0-45.226667-18.773334H69.545387A63.573333 63.573333 0 0 0 19.625387 192l402.773333 402.773333L512.852053 685.226667z"  horiz-adv-x="1024" />

    
    <glyph glyph-name="icon-test23" unicode="&#58943;" d="M722.748219 474.38155L320.022877 877.106891a63.565758 63.565758 0 0 1-90.442555 0 64.41899 64.41899 0 0 1-18.771097-45.221277v-891.200466H213.36892a63.565758 63.565758 0 0 1 106.653957-49.914052l402.725342 402.725342L813.190775 383.938994z"  horiz-adv-x="1024" />

    
    <glyph glyph-name="icon-test24" unicode="&#58944;" d="M210.809225 383.938994l90.442556-90.442556 402.725342-402.725342a63.565758 63.565758 0 0 1 106.653957 49.914052V831.885614a64.41899 64.41899 0 0 1-16.211402 45.221277 63.565758 63.565758 0 0 1-90.442555 0L301.251781 474.38155z"  horiz-adv-x="1024" />

    
    <glyph glyph-name="icon-test25" unicode="&#58945;" d="M3.072 344.704a11.776 11.776 0 0 0-1.024 14.464l44.416 59.776a10.24 10.24 0 0 0 12.8 1.92l252.288-192.768a23.168 23.168 0 0 1 29.824 0.896l622.848 518.656a10.624 10.624 0 0 0 14.464-0.896l42.368-41.472a9.216 9.216 0 0 0 0-13.568L340.48 23.68a18.688 18.688 0 0 0-27.008 0z m0 0"  horiz-adv-x="1024" />

    
    <glyph glyph-name="icon-test26" unicode="&#58946;" d="M411.776 463.872l81.92-82.56a27.52 27.52 0 0 1 38.4 0L614.4 463.872a32 32 0 0 1-45.312 45.184l-25.6-25.6V864a32 32 0 0 1-64 0V486.4l-22.784 22.784a32 32 0 1 1-45.44-45.184zM1017.728 374.016l-119.296 332.8A92.416 92.416 0 0 1 811.52 768H629.376a32 32 0 0 1-32-32 32 32 0 0 1 32-32h169.472a45.952 45.952 0 0 0 43.264-30.592l91.136-256H691.2a78.464 78.464 0 0 1-56.32-23.936l-61.056-64a36.864 36.864 0 0 0-26.496-11.264h-68.864a36.48 36.48 0 0 0-25.6 11.008l-64 64.768A78.592 78.592 0 0 1 332.8 417.152H90.752l91.136 256A45.952 45.952 0 0 0 225.152 704h169.472a32 32 0 0 1 32 32 32 32 0 0 1-32 32H212.736a92.288 92.288 0 0 1-87.04-61.44L6.144 370.56a107.136 107.136 0 0 1-6.144-35.84v-338.688A124.032 124.032 0 0 1 124.032-128h775.936A124.032 124.032 0 0 1 1024-3.968V337.92a108.16 108.16 0 0 1-6.272 36.096zM960 1.408A65.408 65.408 0 0 0 894.592-64H129.408A65.408 65.408 0 0 0 64 1.408V312.96a40.192 40.192 0 0 0 40.192 40.192h194.688a80.128 80.128 0 0 0 57.344-24.064l57.344-58.368a55.04 55.04 0 0 1 39.424-16.64h119.808a55.168 55.168 0 0 1 39.936 17.024l55.04 57.344a80.128 80.128 0 0 0 57.856 24.704h194.176A40.192 40.192 0 0 0 960 312.96z"  horiz-adv-x="1024" />

    
    <glyph glyph-name="icon-test27" unicode="&#58947;" d="M457.216 760.192l22.784 22.784v-377.728a32 32 0 0 1 64 0V785.408l25.6-25.6A32 32 0 0 1 614.4 805.376L532.608 887.936a27.52 27.52 0 0 1-38.4 0l-81.92-82.56a32 32 0 0 1 45.44-45.184zM1017.728 374.016l-119.296 332.8A92.416 92.416 0 0 1 811.52 768h-105.344a32 32 0 0 1-32-32 32 32 0 0 1 32-32h92.672a45.952 45.952 0 0 0 43.264-30.592l91.136-256H691.2a78.464 78.464 0 0 1-56.32-23.936l-61.056-64a36.864 36.864 0 0 0-26.496-11.264h-68.864a36.48 36.48 0 0 0-25.6 11.008l-64 64.768A78.592 78.592 0 0 1 332.8 417.152H90.752l91.136 256A45.952 45.952 0 0 0 225.152 704h92.672a32 32 0 0 1 32 32 32 32 0 0 1-32 32h-105.088a92.288 92.288 0 0 1-87.04-61.44L6.144 370.56a107.136 107.136 0 0 1-6.144-35.84v-338.688A124.032 124.032 0 0 1 124.032-128h775.936A124.032 124.032 0 0 1 1024-3.968V337.92a108.16 108.16 0 0 1-6.272 36.096zM960 1.408A65.408 65.408 0 0 0 894.592-64H129.408A65.408 65.408 0 0 0 64 1.408V312.96a40.192 40.192 0 0 0 40.192 40.192h194.688a80.128 80.128 0 0 0 57.344-24.064l57.344-58.368a55.04 55.04 0 0 1 39.424-16.64h119.808a55.168 55.168 0 0 1 39.936 17.024l55.04 57.344a80.128 80.128 0 0 0 57.856 24.704h194.176A40.192 40.192 0 0 0 960 312.96z"  horiz-adv-x="1024" />

    
    <glyph glyph-name="icon-test28" unicode="&#58948;" d="M678.91264 592.256a183.168 183.168 0 0 1-20.608 15.36c-7.168 5.12-14.336 9.216-22.016 13.824a198.656 198.656 0 0 1-23.552 11.264 239.616 239.616 0 0 1-24.576 9.216 261.376 261.376 0 0 1-52.096 10.88 244.992 244.992 0 0 1-54.784 0 239.104 239.104 0 0 1-26.624-4.096c-8.704-2.048-17.408-4.096-25.6-6.656a30.208 30.208 0 0 1-21.12-28.672 23.936 23.936 0 0 1 1.536-8.704 29.056 29.056 0 0 1 36.992-19.584c6.656 2.048 12.8 3.584 19.968 5.248a138.112 138.112 0 0 0 20.48 2.944 201.216 201.216 0 0 0 43.008 0c7.168 0 13.952-2.048 21.12-3.072s12.8-3.2 19.968-5.248 12.8-4.608 18.944-7.168 12.8-5.632 18.432-8.704a122.624 122.624 0 0 0 17.408-10.752 119.808 119.808 0 0 0 15.872-12.8 125.056 125.056 0 0 0 14.848-13.824 29.568 29.568 0 0 1 21.12-8.704 29.056 29.056 0 0 1 20.992 8.704 29.696 29.696 0 0 1 0 41.984A231.168 231.168 0 0 1 678.91264 592.256zM116.35264 204.8c3.072 3.584 6.144 7.68 8.704 11.264s5.632 7.68 8.192 11.776l7.68 12.8c2.56 4.096 4.608 8.32 7.168 12.8a105.6 105.6 0 0 1 6.144 12.8c2.048 4.608 4.096 9.216 5.632 12.8s3.584 9.216 5.12 13.824a117.12 117.12 0 0 1 4.096 14.336c1.024 5.12 2.56 9.728 3.584 14.464a150.016 150.016 0 0 1 2.56 14.848c1.024 5.12 1.536 10.24 2.048 14.848s1.152 10.24 1.152 15.36v15.36a342.656 342.656 0 0 0 1.664 34.432 249.216 249.216 0 0 0 5.12 33.28 313.856 313.856 0 0 0 8.192 31.872 247.68 247.68 0 0 0 11.264 30.72c4.096 9.856 8.704 19.584 13.824 29.312a34.816 34.816 0 0 1 3.584 14.336 30.336 30.336 0 0 1-15.36 25.6 29.44 29.44 0 0 1-40.064-11.776c-6.144-11.264-11.264-22.528-16.384-34.304s-9.216-24.192-12.8-35.968-7.168-25.6-9.728-38.4-4.608-26.24-6.144-39.04A348.544 348.544 0 0 1 119.42464 384a98.688 98.688 0 0 0 0-12.8c0-4.096 0-8.192-1.024-11.776s-1.024-7.68-1.536-11.776-1.536-7.68-2.048-11.264a89.6 89.6 0 0 1-2.56-11.264c-1.024-3.584-2.048-7.168-3.584-11.392a92.288 92.288 0 0 0-4.096-10.752l-4.608-10.752a95.488 95.488 0 0 0-5.12-10.24c-1.536-3.072-3.584-6.656-5.632-10.24s-4.096-6.656-6.144-9.728a103.808 103.808 0 0 0-6.656-9.216c-2.048-3.072-4.608-6.272-6.656-8.832l-7.168-8.704-7.808-8.192c-2.56-2.56-5.632-5.12-8.192-7.68a30.08 30.08 0 0 1-2.56-42.112 30.848 30.848 0 0 1 22.144-10.24 27.52 27.52 0 0 1 19.456 7.68c3.584 3.072 7.168 6.784 10.24 9.856s6.656 6.656 9.728 10.24a35.2 35.2 0 0 1 10.752 9.984zM59.52064 377.216v8.32c0 14.336 0.896 29.184 2.048 43.52s3.584 30.336 6.656 45.184 6.656 29.184 10.752 43.52a354.944 354.944 0 0 0 14.848 41.6 413.568 413.568 0 0 0 18.944 39.552 402.176 402.176 0 0 0 22.528 37.376c8.192 11.776 16.896 23.68 25.6 34.944A411.136 411.136 0 0 0 190.20864 704a29.824 29.824 0 0 1 8.704 20.992 29.056 29.056 0 0 1-8.704 21.12 29.568 29.568 0 0 1-42.112 0c-11.264-11.776-22.528-23.68-32.768-36.48s-19.968-25.6-29.184-39.424a495.488 495.488 0 0 1-25.6-42.624c-7.68-14.336-14.848-29.696-21.504-45.184S26.11264 550.4 22.01664 534.784a439.936 439.936 0 0 1-12.8-49.28 427.648 427.648 0 0 1-7.68-51.2c0-16.384-1.536-34.304-1.536-51.84v-3.072A29.824 29.824 0 0 1 20.99264 350.72l1.024-1.024h7.168a29.952 29.952 0 0 1 29.824 27.648z m371.2 390.4a329.728 329.728 0 0 1-37.504-9.728 338.56 338.56 0 0 1-35.84-12.8c-11.264-5.12-23.04-10.24-33.792-16.384s-21.504-12.8-31.872-19.584a323.072 323.072 0 0 1-29.696-22.528 321.536 321.536 0 0 1-27.648-25.6 30.336 30.336 0 0 1-9.344-20.992 29.696 29.696 0 0 1 29.696-29.696 29.824 29.824 0 0 1 20.992 8.704A234.624 234.624 0 0 0 299.26464 640c8.32 6.656 16.512 12.8 25.6 19.072a299.008 299.008 0 0 0 27.136 16.896 295.296 295.296 0 0 0 28.672 13.824 304.512 304.512 0 0 0 29.44 11.648c10.368 3.072 21.12 6.144 31.36 8.192a29.312 29.312 0 0 1 23.552 29.312 25.6 25.6 0 0 1 0 6.144A29.696 29.696 0 0 1 430.08064 768z m210.944 48.768c13.824-4.608 27.776-9.728 41.088-15.36s26.624-12.8 38.4-19.072a337.664 337.664 0 0 0 36.864-22.528 32.384 32.384 0 0 1 16.384-5.12 30.208 30.208 0 0 1 24.704 12.8 29.056 29.056 0 0 1 4.608 22.528 31.616 31.616 0 0 1-12.8 19.072 439.296 439.296 0 0 1-42.112 25.6 446.336 446.336 0 0 1-43.52 22.016 465.92 465.92 0 0 1-46.72 17.536 29.184 29.184 0 0 1-36.864-19.584A30.976 30.976 0 0 1 623.74464 832a34.432 34.432 0 0 1 17.92-15.36z m-400.768-62.592a29.568 29.568 0 0 1 16.384 5.12A394.624 394.624 0 0 0 294.14464 780.8c12.8 7.168 25.6 12.8 38.4 19.072s27.136 10.752 40.96 15.36a408.064 408.064 0 0 0 43.008 11.264 431.744 431.744 0 0 0 44.8 7.296 458.112 458.112 0 0 0 91.776 0 29.44 29.44 0 0 1 32.256 26.624A29.952 29.952 0 0 1 559.23264 893.312a504.96 504.96 0 0 1-104.064 0 414.848 414.848 0 0 1-50.304-7.68c-16.384-3.584-32.768-7.68-48.64-12.8s-31.232-10.88-46.592-17.536a493.44 493.44 0 0 1-44.672-21.504c-14.336-7.68-28.16-16.384-41.984-25.6a30.208 30.208 0 0 1-7.68-41.6 34.688 34.688 0 0 1 25.6-12.8z m479.744-452.48a28.928 28.928 0 0 1 7.168-21.504 28.288 28.288 0 0 1 19.968-10.24h2.048a29.824 29.824 0 0 1 29.312 27.648c0.896 10.752 1.536 22.144 2.048 33.408s0 22.528 0 33.792a226.176 226.176 0 0 1-1.664 27.776 247.68 247.68 0 0 1-3.968 27.136c-2.176 8.704-4.224 17.408-6.784 25.6a203.52 203.52 0 0 1-9.216 25.6c-3.584 8.192-7.168 15.872-11.264 23.552s-8.704 15.36-12.8 22.528a30.08 30.08 0 0 1-18.944 12.8 28.288 28.288 0 0 1-22.016-4.608 30.08 30.08 0 0 1-12.8-24.704 32.64 32.64 0 0 1 5.12-16.896 194.048 194.048 0 0 0 10.24-17.408c3.072-6.144 6.144-12.8 8.704-18.56s5.12-12.8 7.168-19.456 3.584-12.8 5.12-20.48a148.224 148.224 0 0 0 3.072-20.992c0-7.296 1.024-14.464 1.024-22.144v-31.232c0-10.24 0-21.632-1.024-31.872z m17.92-49.152A29.568 29.568 0 0 1 704.51264 227.968c-2.048-10.24-3.584-19.968-6.144-29.696s-4.608-19.584-7.168-29.312-5.12-19.456-8.192-28.672-5.632-18.944-9.216-28.672-6.144-18.56-9.728-28.288L653.31264 55.68c-3.584-9.216-7.68-18.56-11.776-27.264s-8.192-17.92-12.8-26.624-8.704-17.408-13.824-25.6-9.728-17.024-14.336-25.6-10.24-16.896-15.36-25.6a31.872 31.872 0 0 1-4.096-22.656 30.336 30.336 0 0 1 12.8-18.944 28.8 28.8 0 0 1 15.872-4.608 28.16 28.16 0 0 1 24.576 13.824c5.632 8.704 11.264 18.048 16.384 26.752s10.368 18.432 15.488 27.136 9.728 18.432 14.336 27.776 9.216 18.944 13.824 28.672 8.704 19.456 12.8 29.184 7.68 19.584 11.776 29.824 7.168 19.968 10.752 30.208 6.656 20.608 9.728 30.848 6.144 20.48 8.704 30.72 5.12 20.992 7.68 31.36 4.608 21.504 6.144 31.744a29.44 29.44 0 0 1-23.04 35.456zM888.70464 460.8a343.04 343.04 0 0 1-9.728 38.4 303.232 303.232 0 0 1-12.8 35.968c-5.12 11.776-10.24 23.04-16.384 34.304A338.816 338.816 0 0 1 829.82464 601.6 308.096 308.096 0 0 1 806.91264 632.192a368.512 368.512 0 0 1-52.864 52.864c-9.728 8.192-19.456 15.36-29.696 22.528a316.288 316.288 0 0 1-31.744 19.584 293.12 293.12 0 0 1-33.792 16.384c-11.904 5.12-23.68 9.216-35.968 12.8s-24.576 7.168-37.376 9.728-25.6 4.608-38.4 6.144a348.544 348.544 0 0 1-39.552 2.048 29.824 29.824 0 0 1 0-59.52c11.264 0 22.528 0 33.92-1.536a241.92 241.92 0 0 0 32.768-5.12 310.4 310.4 0 0 0 31.232-8.192 304.512 304.512 0 0 0 30.208-11.264 312.448 312.448 0 0 0 28.8-13.824A299.008 299.008 0 0 0 691.71264 658.432c8.704-6.272 17.408-12.8 25.6-19.072a307.968 307.968 0 0 0 23.552-21.504c7.168-7.68 14.336-15.36 20.992-23.552s12.8-17.024 19.072-25.6a293.632 293.632 0 0 0 16.384-27.136A247.168 247.168 0 0 0 810.88064 512c4.096-9.728 7.68-19.968 11.264-30.72a313.856 313.856 0 0 0 8.192-31.872c2.048-10.752 4.096-22.016 5.12-33.28s1.536-22.528 1.536-34.944v-25.6c0-8.704 0-16.896-1.024-25.6s-1.024-17.024-1.536-25.6S832.51264 289.536 832.51264 281.6s-2.048-16.384-2.56-24.576-2.048-16.512-3.584-24.704-2.56-15.872-4.096-24.064-3.072-15.872-4.608-24.064-3.072-16-5.12-23.68-3.584-15.872-5.632-23.552l-6.144-23.04c-2.048-7.808-4.608-15.488-6.656-23.168s-5.12-15.36-7.168-22.528-5.12-14.848-7.68-22.528-5.76-14.976-8.832-22.656-6.144-14.848-9.216-22.016a30.08 30.08 0 0 1 15.488-38.4 30.336 30.336 0 0 1 11.776-2.56 29.568 29.568 0 0 1 27.136 18.048c3.072 7.68 6.656 15.36 9.728 23.552s6.144 15.872 9.216 23.552 5.632 15.872 8.192 24.192 5.632 15.872 7.68 24.064 5.12 16.384 7.168 24.576 4.608 16.512 6.656 24.704 4.096 16.384 6.144 25.6 3.584 16.896 5.632 25.6 3.584 17.024 5.12 25.6 3.072 16.896 4.096 25.6 2.56 17.408 3.584 25.6l3.072 25.6c1.024 8.704 1.536 17.408 2.048 25.6s1.024 17.536 1.536 26.752 1.024 17.92 1.024 26.624v26.624a348.544 348.544 0 0 1-2.176 40.448 329.6 329.6 0 0 1-5.632 38.4zM457.72864 66.432c5.12 9.216 10.24 18.944 14.848 28.672s9.216 19.584 12.8 29.312 8.192 19.968 11.776 30.208 7.168 20.48 10.24 30.848 6.144 20.992 9.216 31.232 5.12 21.504 7.168 31.744 4.096 22.144 6.144 32.896 3.072 22.016 4.096 33.28 2.048 22.656 2.56 33.92S538.11264 371.2 538.11264 382.848a29.824 29.824 0 1 1-59.52 0c0-10.24 0-20.48-1.024-30.72s-1.536-20.48-2.048-30.72-2.048-20.096-3.584-30.336-3.072-19.968-5.12-29.696-4.096-19.584-6.656-29.312-5.12-18.944-8.192-28.672-6.144-18.432-9.728-27.776-7.168-18.432-10.752-27.136-7.68-17.92-12.8-26.624-8.832-17.536-12.8-25.6-9.728-16.896-14.336-25.6-10.24-16.384-15.872-24.064-10.752-16-16.896-23.68-11.776-15.36-17.92-22.528-12.8-14.336-18.944-21.504-12.8-13.952-19.968-20.608a29.568 29.568 0 0 1 0-41.984 30.464 30.464 0 0 1 20.992-9.216 28.672 28.672 0 0 1 20.48 8.704c7.68 7.168 14.848 14.848 22.016 22.528s14.336 15.872 20.992 23.552 12.8 16.512 19.456 24.704 12.8 16.896 18.56 25.6 11.776 17.92 17.408 26.624 11.392 17.92 16.384 27.264zM209.66464 128c4.608 5.632 9.216 11.776 12.8 17.92s8.704 12.8 12.8 18.432 7.68 12.8 11.264 19.072 7.168 12.8 10.24 19.968 6.656 13.824 9.216 20.48 5.632 14.336 8.192 20.992 5.12 14.464 7.168 21.632 4.096 14.848 6.144 22.016 3.072 15.36 4.608 22.528 2.56 15.488 3.584 23.168 1.536 15.872 2.048 23.552 0 15.872 0 24.064a14.976 14.976 0 0 1 0 4.736c0 6.144 0 11.776 1.024 17.92s2.176 14.336 3.2 20.992 3.072 13.824 5.12 20.48 4.608 13.44 7.168 19.584 5.632 12.8 8.704 18.432a194.048 194.048 0 0 0 10.24 17.408 124.288 124.288 0 0 0 12.8 16.384 163.712 163.712 0 0 0 12.8 14.976c4.608 4.608 9.728 9.216 14.848 13.824s10.752 8.192 16.384 12.8a29.696 29.696 0 0 1 12.8 24.576 29.696 29.696 0 0 1-46.08 25.6c-7.168-4.608-13.824-10.24-20.48-15.36a227.456 227.456 0 0 1-18.944-17.536c-6.144-6.144-11.776-12.8-17.408-19.456a184.448 184.448 0 0 1-15.488-20.992c-4.608-7.168-9.216-14.976-12.8-22.656s-7.68-15.872-11.264-23.552-6.144-16.384-9.216-25.6-4.608-17.536-6.656-26.24A230.4 230.4 0 0 1 239.87264 409.6a250.752 250.752 0 0 1-1.536-27.776 14.208 14.208 0 0 1 0-4.608v-16.384l-1.536-19.968c-1.024-6.656-1.536-12.8-3.072-19.968s-2.56-12.8-4.096-19.584-3.072-12.8-5.12-18.944l-6.4-17.92c-2.048-6.144-4.608-12.8-7.168-18.048s-5.12-11.776-8.192-17.408-5.632-11.264-8.704-16.896-6.144-10.752-9.728-16.384L173.69664 179.2c-3.584-5.248-7.68-10.368-11.264-14.976s-8.192-9.728-12.8-14.336-8.704-9.216-12.8-13.824-9.216-8.704-13.824-12.8-9.728-8.192-14.336-12.8a31.104 31.104 0 0 1-11.264-20.096 28.672 28.672 0 0 1 6.144-22.016 29.824 29.824 0 0 1 41.472-5.12c5.632 4.608 11.264 9.216 16.896 14.336s10.752 10.24 16.512 15.36 10.24 10.752 15.36 15.872a105.216 105.216 0 0 1 15.872 19.2z m387.968-47.232c4.096 10.24 8.704 20.992 12.8 31.36s7.68 20.992 10.752 31.744 6.656 21.504 9.728 32.256 5.632 22.144 8.192 33.408 4.608 22.528 6.656 33.792 3.584 22.656 5.12 34.432 2.56 23.04 3.584 34.816 2.048 23.168 2.048 34.944 1.024 23.552 1.024 35.84a154.752 154.752 0 0 1-1.024 15.488c0 5.12-1.536 10.24-2.048 14.848a117.248 117.248 0 0 1-3.584 14.336c-1.536 4.608-3.072 9.216-5.12 13.824s-4.096 8.704-6.144 13.44a80.64 80.64 0 0 1-7.68 12.8c-2.56 4.096-5.632 7.68-8.704 11.776s-6.144 7.168-9.728 10.752A65.92 65.92 0 0 1 602.11264 499.2c-3.584 3.072-7.68 6.144-11.264 8.704l-12.8 7.68c-4.096 2.048-8.704 4.608-12.8 6.272s-9.216 3.584-13.824 5.12a140.8 140.8 0 0 1-13.312 3.712 73.984 73.984 0 0 1-14.848 2.048 148.864 148.864 0 0 1-30.208 0c-5.12 0-10.24-1.536-14.848-2.048a146.688 146.688 0 0 1-14.336-3.584c-4.608-1.536-9.216-3.072-13.824-5.12l-12.8-6.272a80.64 80.64 0 0 1-12.8-7.68 86.272 86.272 0 0 1-11.392-8.704c-3.584-3.072-7.168-6.144-10.752-9.728s-6.656-7.168-9.728-10.752a99.968 99.968 0 0 1-8.704-11.776l-7.68-12.8a116.48 116.48 0 0 1-6.144-13.44c-1.536-4.608-3.584-9.216-5.12-13.824a137.984 137.984 0 0 1-6.016-28.672 154.752 154.752 0 0 1 0-15.488v-26.624c0-8.704-1.024-17.92-2.048-26.624s-2.048-17.536-3.584-26.24-3.072-16.896-5.12-25.6-4.096-16.896-6.144-25.6-5.12-16.512-7.68-24.192-5.632-15.872-8.704-23.552-6.656-15.36-10.24-23.04-7.68-14.976-12.416-22.656-8.32-14.848-12.8-21.504-8.704-14.336-12.8-20.992-9.856-13.824-14.464-20.096-10.24-12.8-15.36-19.456-10.752-12.8-16.384-18.432-11.392-11.904-17.408-17.536-12.8-11.264-18.432-16.384a28.416 28.416 0 0 1-10.24-20.48 33.152 33.152 0 0 1 6.656-22.016 28.672 28.672 0 0 1 41.472-3.584c7.168 6.144 13.824 12.8 20.992 18.432a239.744 239.744 0 0 1 19.456 19.968c6.144 6.656 12.8 13.824 18.432 20.992s11.904 14.464 17.536 22.144 11.264 14.848 16.384 22.528 10.24 15.872 15.36 23.552 9.728 16.512 13.824 24.704 8.704 16.896 12.8 25.6 7.68 17.408 11.264 26.24 6.656 17.92 10.24 26.624 6.144 18.432 8.704 27.648 5.12 18.56 7.168 28.288 4.096 18.944 5.632 28.672 3.072 19.456 4.096 29.312 2.048 19.968 2.56 29.696 1.024 19.968 1.024 30.72a45.312 45.312 0 0 0 0 9.344l1.536 9.216c0 3.072 1.536 6.144 2.048 8.704s2.048 5.632 3.072 8.192 2.56 5.12 3.584 7.68l4.608 7.68a62.08 62.08 0 0 0 5.12 7.168c2.048 2.048 3.584 4.608 5.632 6.656l6.144 6.272a57.984 57.984 0 0 0 6.656 5.12c2.56 1.536 5.12 3.072 7.168 4.608a51.2 51.2 0 0 0 7.68 3.584l8.192 3.072a43.392 43.392 0 0 0 8.704 2.048l9.216 1.536a110.72 110.72 0 0 0 18.432 0l8.704-1.536c3.072 0 5.632-1.536 8.704-2.048l8.32-3.072c2.56-1.024 5.12-2.56 7.68-3.584s5.12-3.072 7.168-4.608l6.656-5.12a40.576 40.576 0 0 0 6.144-6.272 35.2 35.2 0 0 0 5.632-6.656 36.352 36.352 0 0 0 5.12-7.168l4.608-7.68a39.68 39.68 0 0 0 3.584-8.192c1.024-3.072 2.048-5.632 3.072-8.192a43.392 43.392 0 0 0 2.048-8.704l1.536-9.216a59.648 59.648 0 0 0 0-9.856v-32.768c0-10.752-1.024-21.504-2.048-32.256s-2.048-21.632-3.584-31.872-3.072-20.992-5.12-31.232-4.096-21.12-6.144-30.848-4.608-20.608-7.68-30.72-5.632-20.096-8.704-30.336-6.656-19.456-10.24-29.184-7.168-19.456-11.264-28.8-8.32-18.944-12.8-28.16-8.704-18.432-13.824-27.648-9.728-18.048-14.848-26.752-10.24-17.408-15.872-25.6-11.264-16.896-16.896-25.6-11.776-16.384-17.92-24.576-12.8-15.872-18.944-23.552a30.464 30.464 0 0 1 3.584-42.112 29.056 29.056 0 0 1 18.944-7.168 29.696 29.696 0 0 1 22.528 10.752c7.168 8.192 13.824 16.896 20.48 25.6s12.8 17.92 19.456 26.624 12.8 18.432 18.432 27.648 11.904 19.072 17.536 28.288 10.752 19.456 15.872 29.184 10.112 19.712 14.848 29.824a239.36 239.36 0 0 1 15.36 30.208z m265.984 672.512a29.44 29.44 0 0 1-41.984 1.92 31.232 31.232 0 0 1-1.92-43.52c104.96-116.352 153.6-249.216 143.36-394.88-4.608-69.888-18.944-124.16-30.72-182.144l-1.024-5.12a30.848 30.848 0 0 1 23.552-35.968 25.6 25.6 0 0 1 6.144 0 29.568 29.568 0 0 1 29.184 24.192l1.024 5.12c11.776 59.52 26.624 115.2 31.872 189.696 11.264 164.224-42.624 312.448-159.488 441.216z"  horiz-adv-x="1024" />

    
    <glyph glyph-name="icon-test29" unicode="&#58949;" d="M886.144 896H137.856A137.984 137.984 0 0 1 0 758.144v-748.288A137.984 137.984 0 0 1 137.856-128h748.288A137.984 137.984 0 0 1 1024 9.856V758.144A137.984 137.984 0 0 1 886.144 896zM960 9.856A73.984 73.984 0 0 0 886.144-64H137.856A73.984 73.984 0 0 0 64 9.856V758.144A73.984 73.984 0 0 0 137.856 832h748.288A73.984 73.984 0 0 0 960 758.144zM821.248 569.856h-96v37.376a32 32 0 0 1-64 0v-37.376H202.752a32 32 0 0 1 0-64h458.496v-37.376a32 32 0 1 1 64 0v37.376h96a32 32 0 0 1 0 64zM821.248 262.144h-96V299.52a32 32 0 1 1-64 0v-37.376H202.752a32 32 0 1 1 0-64h458.496v-37.376a32 32 0 0 1 64 0v37.376h96a32 32 0 0 1 0 64z"  horiz-adv-x="1024" />

    
    <glyph glyph-name="icon-test30" unicode="&#58950;" d="M512 896a512 512 0 1 1 512-512A512 512 0 0 1 512 896z m0-960a448 448 0 1 0 448 448 448 448 0 0 0-448-448zM777.216 296.192l-219.008 101.632a24.32 24.32 0 0 0-14.208 22.272V707.584a32 32 0 1 1-64 0v-322.816a33.152 33.152 0 0 1 19.2-30.08l251.008-116.608a32 32 0 0 1 42.496 15.616 31.872 31.872 0 0 1-15.488 42.496z"  horiz-adv-x="1024" />

    
    <glyph glyph-name="icon-test31" unicode="&#58951;" d="M991.828662-64.011054h-33.786164a52.342958 52.342958 0 0 0-52.342958 52.21498V503.698874C905.69954 712.686771 742.271773 889.42424 533.411853 895.823135a383.933675 383.933675 0 0 1-395.579664-383.933676v-523.685533A52.21498 52.21498 0 0 0 85.61721-64.011054H31.994473a31.994473 31.994473 0 0 1 0-63.988946h959.834189a31.994473 31.994473 0 0 1 0 63.988946z m-150.118068 52.21498A52.21498 52.21498 0 0 0 789.495615-64.011054H254.164093a52.342958 52.342958 0 0 0-52.342958 52.21498V511.889459A319.94473 319.94473 0 0 0 516.390793 831.834189c179.169049 2.943492 325.319801-148.198399 325.319801-327.23947zM625.683913 387.111015L550.304935 401.572516a36.857633 36.857633 0 0 0-28.795026 44.92024l44.92024 184.800076-176.225557-244.309795a12.797789 12.797789 0 0 1 7.934629-20.348485L473.5182 352.17305A36.857633 36.857633 0 0 0 502.05727 307.124832l-44.92024-184.672098 176.481512 244.437774a12.797789 12.797789 0 0 1-7.934629 20.220507z"  horiz-adv-x="1024" />

    
    <glyph glyph-name="icon-test32" unicode="&#58952;" d="M32 661.376h960a32 32 0 1 1 0 64h-960a32 32 0 0 1 0-64zM992 416h-960a32 32 0 0 1 0-64h960a32 32 0 0 1 0 64zM992 106.624h-960a32 32 0 0 1 0-64h960a32 32 0 0 1 0 64z"  horiz-adv-x="1024" />

    
    <glyph glyph-name="icon-test33" unicode="&#58953;" d="M886.144 896H137.856A137.984 137.984 0 0 1 0 758.144v-748.288A137.984 137.984 0 0 1 137.856-128h748.288A137.984 137.984 0 0 1 1024 9.856V758.144A137.984 137.984 0 0 1 886.144 896zM960 9.856A73.984 73.984 0 0 0 886.144-64H137.856A73.984 73.984 0 0 0 64 9.856V758.144A73.984 73.984 0 0 0 137.856 832h748.288A73.984 73.984 0 0 0 960 758.144zM867.456 707.584a32 32 0 0 1-44.928 5.12L609.536 543.232a34.944 34.944 0 0 0-43.008 0L460.8 624a71.936 71.936 0 0 1-89.6-1.408L161.28 449.536a31.744 31.744 0 0 1-4.352-44.928 31.744 31.744 0 0 1 44.928-4.48l193.92 159.488a34.944 34.944 0 0 0 43.392 0.64l104.96-80.896a71.936 71.936 0 0 1 88.704 0l229.504 183.168a32.128 32.128 0 0 1 5.12 45.056zM835.328 288.384H188.672a32 32 0 1 1 0-64h646.656a32 32 0 0 1 0 64zM835.328 112.384H188.672a32 32 0 1 1 0-64h646.656a32 32 0 1 1 0 64z"  horiz-adv-x="1024" />

    
    <glyph glyph-name="icon-test34" unicode="&#58954;" d="M886.144 896H137.856A137.984 137.984 0 0 1 0 758.144v-748.288A137.984 137.984 0 0 1 137.856-128h748.288A137.984 137.984 0 0 1 1024 9.856V758.144A137.984 137.984 0 0 1 886.144 896zM960 9.856A73.984 73.984 0 0 0 886.144-64H137.856A73.984 73.984 0 0 0 64 9.856V758.144A73.984 73.984 0 0 0 137.856 832h748.288A73.984 73.984 0 0 0 960 758.144zM837.248 675.2H372.096a32 32 0 0 1 0-64h465.152a32 32 0 0 1 0 64zM837.248 416H372.096a32 32 0 1 1 0-64h465.152a32 32 0 0 1 0 64zM837.248 156.8H372.096a32 32 0 1 1 0-64h465.152a32 32 0 0 1 0 64zM236.672 675.2h-36.224a32 32 0 1 1 0-64h36.224a32 32 0 0 1 0 64zM236.672 416h-36.224a32 32 0 1 1 0-64h36.224a32 32 0 0 1 0 64zM236.672 156.8h-36.224a32 32 0 1 1 0-64h36.224a32 32 0 0 1 0 64z"  horiz-adv-x="1024" />

    
    <glyph glyph-name="icon-test35" unicode="&#58955;" d="M1009.236114-38.356319l-179.191623 179.191623a49.661678 49.661678 0 0 0-6.015718 62.46108 447.979057 447.979057 0 1 1-128.122011-129.657939 49.533684 49.533684 0 0 0 62.46108-6.015718l180.471563-180.599557a51.197607 51.197607 0 0 1 76.028446 3.967814 53.245511 53.245511 0 0 1-5.631737 70.652697zM450.030257 64.038894a383.982049 383.982049 0 1 0 383.982049 383.982049 383.982049 383.982049 0 0 0-383.982049-383.982049zM668.772031 681.610023a31.742516 31.742516 0 0 1-46.84581-3.455839l-0.767964-1.151946a31.614522 31.614522 0 0 1 4.095808-42.622007A254.836086 254.836086 0 0 0 706.01829 448.020943v-15.61527a31.486528 31.486528 0 0 1 25.598803-33.406438h1.151946A31.486528 31.486528 0 0 1 770.015298 427.797888c0 6.655689 0.63997 12.799402 0.63997 20.223055a319.217077 319.217077 0 0 1-101.883237 233.58908zM711.13805 320.538903m-31.998504 0a31.998504 31.998504 0 1 1 63.997008 0 31.998504 31.998504 0 1 1-63.997008 0Z"  horiz-adv-x="1026" />

    
    <glyph glyph-name="icon-test36" unicode="&#58956;" d="M964.992256 520.96A223.744 223.744 0 1 1 597.632256 768H212.736256a92.288 92.288 0 0 1-87.04-61.44L6.272256 370.56a104.064 104.064 0 0 1-6.272-35.84v-338.688A124.032 124.032 0 0 1 124.032256-128h775.936A124.032 124.032 0 0 1 1024.000256-3.968V337.92a108.16 108.16 0 0 1-6.272 36.096zM181.888256 672.896A45.952 45.952 0 0 0 225.152256 704h353.28a232.192 232.192 0 0 1-2.432-32 200.576 200.576 0 0 1 1.152-21.632H173.824256z m-30.848-86.528h442.112a224.256 224.256 0 0 1 31.36-53.248H132.096256z m-41.728-117.248h596.224a221.952 221.952 0 0 1 206.08 8.96l21.632-60.928H90.752256zM960.000256 1.408A65.408 65.408 0 0 0 894.592256-64H129.408256A65.408 65.408 0 0 0 64.000256 1.408V312.96a40.192 40.192 0 0 0 40.192 40.192h815.616A40.192 40.192 0 0 0 960.000256 312.96zM800.000256 512A160 160 0 1 0 960.000256 672 160.256 160.256 0 0 0 800.000256 512zM615.552256 176.64H408.448256a32 32 0 1 1 0-64h207.104a32 32 0 0 1 0 64zM870.400256 729.6l-78.976-78.976a8.576 8.576 0 0 0-12.8 0l-38.4 38.4a32 32 0 0 1-45.312 0 31.872 31.872 0 0 1 0-45.184l72.96-72.96a24.448 24.448 0 0 1 34.816 0l113.024 112.896A32 32 0 0 1 870.400256 729.6z"  horiz-adv-x="1024" />

    
    <glyph glyph-name="icon-test37" unicode="&#58957;" d="M818.048 668.8a32 32 0 0 1-32 32H200.448a32 32 0 1 1 0-64h585.6a32 32 0 0 1 32 32zM604.672 409.6a32 32 0 0 1-32 32H200.448a32 32 0 1 1 0-64h372.224a32 32 0 0 1 32 32zM200.448 182.4a32 32 0 1 1 0-64h180.096a32 32 0 0 1 0 64zM451.584-12.8H137.856A73.856 73.856 0 0 0 64 61.056V758.144A73.856 73.856 0 0 0 137.856 832h697.088A73.856 73.856 0 0 0 908.8 758.144v-313.728a32 32 0 0 1 64 0V758.144A137.856 137.856 0 0 1 834.944 896H137.856A137.856 137.856 0 0 1 0 758.144v-697.088A137.856 137.856 0 0 1 137.856-76.8h313.728a32 32 0 0 1 0 64zM780.8 358.4a243.2 243.2 0 1 1 243.2-243.2 243.2 243.2 0 0 1-243.2 243.2z m0-422.4a179.2 179.2 0 1 0 179.2 179.2 179.2 179.2 0 0 0-179.2-179.2zM863.104 114.56l-38.4 16.768a18.816 18.816 0 0 0-11.52 17.408v83.84a32 32 0 0 1-32 32 32 32 0 0 1-32-32v-118.272a30.592 30.592 0 0 1 18.816-28.16l70.4-30.336a31.872 31.872 0 0 1 41.984 16.768 31.744 31.744 0 0 1-17.28 41.984z"  horiz-adv-x="1024" />

    
    </font>
</defs>
</svg>
